<?xml version="1.0" encoding="utf-8"?>
<!-- Generator: Adobe Illustrator 13.0.2, SVG Export Plug-In . SVG Version: 6.00 Build 14948)  -->
<!DOCTYPE svg PUBLIC "-//W3C//DTD SVG 1.0//EN" "http://www.w3.org/TR/2001/REC-SVG-20010904/DTD/svg10.dtd">
<svg version="1.0" id="Ebene_1" xmlns="http://www.w3.org/2000/svg" xmlns:xlink="http://www.w3.org/1999/xlink" x="0px" y="0px"
	 width="329.544px" height="329.544px" viewBox="0 0 329.544 329.544" enable-background="new 0 0 329.544 329.544"
	 xml:space="preserve">
<path fill-rule="evenodd" clip-rule="evenodd" fill="#FFFFFF" d="M164.772,0.211C73.889,0.211,0.211,73.889,0.211,164.772
	c0,90.883,73.678,164.561,164.562,164.561c90.881,0,164.559-73.678,164.559-164.561C329.332,73.889,255.654,0.211,164.772,0.211
	L164.772,0.211z"/>
<path d="M164.772,45.378c-32.972,0-62.821,13.363-84.426,34.969c-21.605,21.604-34.969,51.454-34.969,84.426
	c0,32.971,13.363,62.82,34.969,84.426c21.604,21.605,51.454,34.969,84.426,34.969c32.971,0,62.819-13.363,84.424-34.969
	s34.969-51.455,34.969-84.426s-13.363-62.821-34.969-84.426C227.591,58.741,197.744,45.378,164.772,45.378L164.772,45.378z
	 M164.772,0c45.497,0,86.69,18.444,116.508,48.262c29.818,29.819,48.264,71.014,48.264,116.511
	c0,45.496-18.445,86.691-48.264,116.51s-71.012,48.262-116.508,48.262c-45.497,0-86.69-18.443-116.509-48.262
	C18.444,251.464,0,210.271,0,164.772S18.444,78.081,48.264,48.262C78.082,18.444,119.275,0,164.772,0L164.772,0z"/>
<path fill-rule="evenodd" clip-rule="evenodd" fill="#E32219" d="M164.772,278.021V51.523c-62.546,0-113.249,50.704-113.249,113.249
	S102.227,278.021,164.772,278.021L164.772,278.021z"/>
<path fill-rule="evenodd" clip-rule="evenodd" fill="#FFFFFF" d="M165.056,277.454c62.231,0,112.68-50.451,112.68-112.682
	c0-62.231-50.449-112.682-112.68-112.682V277.454L165.056,277.454z"/>
<path d="M165.72,276.786c30.668-0.178,58.418-12.68,78.543-32.805c20.271-20.271,32.809-48.277,32.809-79.209
	c0-30.933-12.537-58.938-32.809-79.209c-20.125-20.126-47.875-32.627-78.543-32.805V276.786L165.72,276.786z M165.056,278.118
	h-0.664V51.427h0.664c31.299,0,59.635,12.688,80.147,33.198c20.51,20.511,33.197,48.849,33.197,80.147s-12.688,59.637-33.197,80.146
	C224.691,265.431,196.355,278.118,165.056,278.118L165.056,278.118z"/>
<polygon fill-rule="evenodd" clip-rule="evenodd" fill="#FFFFFF" points="53.467,108.567 50.027,114.867 19.87,98.402 31.588,76.94 
	36.923,79.852 28.645,95.015 35.449,98.73 42.695,85.457 48.028,88.369 40.782,101.642 53.467,108.567 "/>
<polygon fill-rule="evenodd" clip-rule="evenodd" fill="#FFFFFF" points="61.163,51.664 48.79,65.057 54.098,69.96 65.464,57.657 
	69.928,61.781 58.563,74.085 65.1,80.124 78.025,66.135 82.489,70.259 64.791,89.416 39.552,66.1 56.697,47.539 61.163,51.664 "/>
<polygon fill-rule="evenodd" clip-rule="evenodd" fill="#FFFFFF" points="100.733,57.877 94.691,61.75 87.691,50.834 66.154,39.231 
	73.284,34.66 87.347,43.381 85.008,27.144 91.855,22.753 93.785,47.039 100.733,57.877 "/>
<polygon fill-rule="evenodd" clip-rule="evenodd" fill="#FFFFFF" points="129.838,15.44 112.495,21.065 114.724,27.938 
	130.656,22.772 132.531,28.554 116.599,33.72 119.345,42.187 137.462,36.312 139.337,42.093 114.527,50.137 103.929,17.454 
	127.964,9.66 129.838,15.44 "/>
<polygon fill-rule="evenodd" clip-rule="evenodd" fill="#FFFFFF" points="164.394,5.771 171.085,5.456 172.693,39.778 
	165.524,40.114 150.37,16.297 150.275,16.302 151.424,40.776 144.731,41.09 143.121,6.768 150.674,6.414 165.419,29.675 
	165.515,29.671 164.394,5.771 "/>
<path fill-rule="evenodd" clip-rule="evenodd" fill="#FFFFFF" d="M189.029,24.901c2.262-9.349,8.127-10.394,11.893-9.481
	c3.77,0.91,8.51,4.519,6.248,13.867c-2.26,9.351-8.125,10.394-11.893,9.482S186.769,34.25,189.029,24.901L189.029,24.901z
	 M182.052,23.215c-3.789,15.675,7.377,20.394,11.795,21.462c4.42,1.068,16.51,1.973,20.299-13.701
	c3.791-15.677-7.375-20.395-11.795-21.464C197.931,8.444,185.843,7.539,182.052,23.215L182.052,23.215z"/>
<path fill-rule="evenodd" clip-rule="evenodd" fill="#FFFFFF" d="M228.716,38.043c4.898-8.278,10.813-7.559,14.148-5.585
	s6.813,6.812,1.914,15.089c-4.898,8.278-10.814,7.56-14.148,5.586C227.294,51.158,223.818,46.321,228.716,38.043L228.716,38.043z
	 M222.541,34.387c-8.215,13.879,1.082,21.66,4.994,23.976c3.914,2.316,15.209,6.72,23.422-7.158
	c8.213-13.88-1.084-21.662-4.998-23.977C242.048,24.912,230.751,20.508,222.541,34.387L222.541,34.387z"/>
<path fill-rule="evenodd" clip-rule="evenodd" fill="#FFFFFF" d="M265.126,61.774l6.709-6.277l6.113,6.534
	c2.877,3.075,1.477,5.499,0.15,6.743c-2.482,2.32-4.668,1.876-7.219-0.85L265.126,61.774L265.126,61.774z M246.273,69.783
	l4.807,5.137l9.818-9.188l5.068,5.416c3.629,3.878,2.498,5.33-0.928,8.536c-2.586,2.418-3.682,3.838-4.541,5.299l5.426,5.801
	l0.664-0.622c-0.627-1.51,0.281-2.36,3.951-5.793c4.682-4.382,4.404-6.22,3.383-9.131c3.16,1.696,6.846,0.87,9.605-1.713
	c2.166-2.027,5.947-7.86-0.297-14.534l-11.869-12.685L246.273,69.783L246.273,69.783z"/>
<path fill-rule="evenodd" clip-rule="evenodd" fill="#FFFFFF" d="M297.529,88.729l3.168,6.12c1.41,2.72,2.91,7.385-6.1,12.05
	c-5.016,2.597-11.145,3.561-13.828-1.624l-3.213-6.204L297.529,88.729L297.529,88.729z M269.052,95.553l6.844,13.217
	c5.215,10.071,15.99,7.778,22.535,4.39c5.779-2.992,13.434-9.65,8.109-19.934l-6.977-13.471L269.052,95.553L269.052,95.553z"/>
<path fill-rule="evenodd" clip-rule="evenodd" fill="#FFFFFF" d="M38.455,225.452l8.069-4.357l4.243,7.859
	c1.998,3.697,0.029,5.682-1.567,6.545c-2.984,1.609-4.98,0.627-6.751-2.652L38.455,225.452L38.455,225.452z M18.229,228.396
	l3.334,6.176l11.81-6.375l3.516,6.514c2.52,4.664,1.059,5.779-3.06,8.004c-3.11,1.678-4.529,2.77-5.73,3.961l3.766,6.977
	l0.799-0.432c-0.222-1.617,0.87-2.207,5.283-4.59c5.631-3.039,5.829-4.883,5.584-7.953c2.619,2.439,6.385,2.578,9.704,0.785
	c2.605-1.406,7.736-6.076,3.403-14.104L48.4,212.104L18.229,228.396L18.229,228.396z"/>
<path fill-rule="evenodd" clip-rule="evenodd" fill="#FFFFFF" d="M56.885,257.606c6.855-6.721,12.371-4.506,15.08-1.742
	c2.708,2.764,4.814,8.322-2.041,15.041c-6.855,6.721-12.372,4.504-15.08,1.742C52.136,269.884,50.03,264.325,56.885,257.606
	L56.885,257.606z M51.869,252.489c-11.492,11.266-4.533,21.164-1.356,24.404c3.176,3.24,12.932,10.395,24.425-0.871
	c11.494-11.268,4.534-21.164,1.358-24.404C73.119,248.378,63.363,241.224,51.869,252.489L51.869,252.489z"/>
<polygon fill-rule="evenodd" clip-rule="evenodd" fill="#FFFFFF" points="85.955,303.167 79.817,299.474 94.37,275.29 
	85.49,269.946 88.617,264.749 112.515,279.13 109.388,284.327 100.507,278.985 85.955,303.167 "/>
<polygon fill-rule="evenodd" clip-rule="evenodd" fill="#FFFFFF" points="121.104,317.96 114.26,315.843 122.608,288.878 
	112.708,285.813 114.501,280.019 141.145,288.269 139.351,294.063 129.451,290.997 121.104,317.96 "/>
<polygon fill-rule="evenodd" clip-rule="evenodd" fill="#FFFFFF" points="171.027,296.237 152.854,295.331 152.495,302.534 
	169.189,303.366 168.888,309.425 152.193,308.593 151.752,317.466 170.736,318.411 170.433,324.47 144.438,323.173 146.145,288.925 
	171.328,290.181 171.027,296.237 "/>
<path fill-rule="evenodd" clip-rule="evenodd" fill="#FFFFFF" d="M188.636,302.921l-1.977-8.955l8.723-1.924
	c4.104-0.906,5.473,1.529,5.863,3.303c0.73,3.311-0.764,4.961-4.4,5.764L188.636,302.921L188.636,302.921z M185.919,323.181
	l6.855-1.512l-2.893-13.105l7.229-1.596c5.176-1.143,5.848,0.568,6.855,5.139c0.762,3.449,1.424,5.113,2.24,6.598l7.74-1.709
	l-0.195-0.887c-1.615-0.23-1.883-1.443-2.963-6.34c-1.381-6.248-3.1-6.945-6.119-7.551c3.064-1.85,4.23-5.434,3.418-9.117
	c-0.639-2.893-3.723-9.107-12.629-7.141l-16.93,3.736L185.919,323.181L185.919,323.181z"/>
<path fill-rule="evenodd" clip-rule="evenodd" fill="#FFFFFF" d="M221.25,283.011l6.043-3.281c2.686-1.459,7.313-3.047,12.143,5.85
	c2.691,4.953,3.773,11.049-1.346,13.83l-6.129,3.328L221.25,283.011L221.25,283.011z M228.617,311.29l13.053-7.088
	c9.947-5.4,7.447-16.109,3.938-22.572c-3.1-5.709-9.893-13.213-20.049-7.699l-13.305,7.227L228.617,311.29L228.617,311.29z"/>
<path fill-rule="evenodd" clip-rule="evenodd" fill="#FFFFFF" d="M256.152,260.888l0.068-0.064l12.436,6.885l-6.326,6.029
	L256.152,260.888L256.152,260.888z M265.031,279.343l9.162-8.732l6.467,3.602l5.635-5.371l-32.404-16.486l-5.98,5.701l14.809,33.258
	l5.461-5.207L265.031,279.343L265.031,279.343z"/>
<polygon fill-rule="evenodd" clip-rule="evenodd" fill="#FFFFFF" points="311.648,228.343 308.367,234.169 283.4,220.108 
	283.353,220.192 305.181,239.829 301.736,245.946 273.699,237.337 273.65,237.419 298.619,251.481 295.339,257.308 265.46,240.481 
	270.591,231.368 297.191,239.222 297.238,239.138 276.685,220.548 281.769,211.519 311.648,228.343 "/>
<path fill-rule="evenodd" clip-rule="evenodd" fill="#FFFFFF" d="M22.499,175.935c4.689,0,8.493-3.803,8.493-8.494
	c0-4.689-3.804-8.492-8.493-8.492c-4.691,0-8.494,3.803-8.494,8.492C14.005,172.132,17.808,175.935,22.499,175.935L22.499,175.935z"
	/>
<path fill-rule="evenodd" clip-rule="evenodd" fill="#FFFFFF" d="M307.044,175.935c4.691,0,8.494-3.803,8.494-8.494
	c0-4.689-3.803-8.492-8.494-8.492c-4.689,0-8.492,3.803-8.492,8.492C298.552,172.132,302.355,175.935,307.044,175.935
	L307.044,175.935z"/>
<path fill-rule="evenodd" clip-rule="evenodd" fill="#FFFFFF" d="M165.906,167.104h-28.979v54.273c0,0-0.85,10.127,11.231,10.211
	h5.106v10.443H99.831v-10.443h5.105c12.593,0,11.23-10.211,11.23-10.211V109.875c0-13.614-9.87-12.253-9.87-12.253h-6.466
	l-0.007-10.443h67.951v10.443h-30.848v58.699h28.879L165.906,167.104L165.906,167.104z"/>
<path fill="#E32219" d="M166.576,167.769h-28.984v53.65c-0.001,0.027-0.794,9.426,10.566,9.506h0.004h-0.004
	c0.002,0,0.002,0,0.004,0h5.766v11.771H99.167v-11.771h5.77c11.837,0,10.576-9.445,10.572-9.471l-0.005-0.076V109.875
	c0-12.855-9.103-11.598-9.129-11.594l-0.078,0.005h-7.129l-0.001-0.664L99.16,87.179v-0.664h69.277v11.771h-30.845v57.37h28.872
	l0.006,0.658l0.1,10.784L166.576,167.769L166.576,167.769z M165.236,166.44l-0.088-9.456h-28.884V96.958h30.845v-9.115h-66.62
	l0.005,9.115h5.778c0.789-0.086,10.56-0.894,10.56,12.917v111.468c0.079,0.713,1.003,10.91-11.896,10.91h-4.442v9.115h52.106v-9.115
	h-4.444c-12.8-0.088-11.895-10.887-11.892-10.916V166.44H165.236L165.236,166.44z M106.233,96.962l-0.014,0.001
	C106.221,96.963,106.225,96.963,106.233,96.962L106.233,96.962z"/>
<path fill-rule="evenodd" clip-rule="evenodd" fill="#FFFFFF" d="M164.472,156.321h0.704c14.974,0,13.273-14.688,13.273-14.688
	h7.773l8.51,48.327h-8.115c-8.168-25.524-17.984-22.855-17.984-22.855h-4.061L164.472,156.321L164.472,156.321z"/>
<polygon points="164.472,155.652 165.176,155.652 165.176,156.987 164.472,156.987 164.472,155.652 "/>
<path d="M165.176,155.652c14.226,0,12.615-13.91,12.611-13.948l1.324-0.142c0.004,0.044,1.785,15.425-13.935,15.425V155.652
	L165.176,155.652z"/>
<polygon points="178.449,140.965 186.783,140.965 186.88,141.518 195.388,189.847 195.525,190.628 186.617,190.628 186.617,189.292 
	193.937,189.292 185.664,142.3 178.449,142.3 178.449,140.965 "/>
<path d="M185.984,190.163c-7.979-24.929-17.172-22.416-17.197-22.41l-0.309-1.297c0.029-0.008,10.414-2.82,18.771,23.301
	L185.984,190.163L185.984,190.163z"/>
<polygon points="168.632,167.772 164.571,167.772 164.571,166.437 168.632,166.437 168.632,167.772 "/>
<path fill-rule="evenodd" clip-rule="evenodd" fill="#FFFFFF" d="M164.571,97.622h13.877c0,0,34.371-2.586,37.15,27.332h8.795
	l-5.053-37.775h-54.77V97.622L164.571,97.622z"/>
<polygon points="164.571,96.955 178.449,96.955 178.449,98.289 164.571,98.289 164.571,96.955 "/>
<path d="M178.408,96.955c0.1-0.007,35.012-2.635,37.854,27.941l-1.324,0.119c-2.719-29.262-36.35-26.731-36.447-26.727
	L178.408,96.955L178.408,96.955z"/>
<polygon points="215.599,124.289 223.634,124.289 218.761,87.847 164.571,87.847 164.571,86.511 219.923,86.511 220.001,87.093 
	225.052,124.87 225.154,125.624 215.599,125.624 215.599,124.289 "/>
</svg>
