<?xml version="1.0" encoding="UTF-8" standalone="no"?>
<svg
   xmlns:dc="http://purl.org/dc/elements/1.1/"
   xmlns:cc="http://creativecommons.org/ns#"
   xmlns:rdf="http://www.w3.org/1999/02/22-rdf-syntax-ns#"
   xmlns:svg="http://www.w3.org/2000/svg"
   xmlns="http://www.w3.org/2000/svg"
   xmlns:sodipodi="http://sodipodi.sourceforge.net/DTD/sodipodi-0.dtd"
   xmlns:inkscape="http://www.inkscape.org/namespaces/inkscape"
   width="174.2375"
   height="233.85922"
   viewBox="0 0 194 194"
   id="svg2"
   sodipodi:version="0.32"
   inkscape:version="0.46"
   sodipodi:docname="Sporting_CP.svg"
   inkscape:output_extension="org.inkscape.output.svg.inkscape"
   version="1.0">
  <metadata
     id="metadata163">
    <rdf:RDF>
      <cc:Work
         rdf:about="">
        <dc:format>image/svg+xml</dc:format>
        <dc:type
           rdf:resource="http://purl.org/dc/dcmitype/StillImage" />
      </cc:Work>
    </rdf:RDF>
  </metadata>
  <defs
     id="defs161">
    <inkscape:perspective
       sodipodi:type="inkscape:persp3d"
       inkscape:vp_x="0 : 121.25 : 1"
       inkscape:vp_y="0 : 1000 : 0"
       inkscape:vp_z="242.5 : 121.25 : 1"
       inkscape:persp3d-origin="121.25 : 80.833333 : 1"
       id="perspective165" />
  </defs>
  <sodipodi:namedview
     inkscape:window-height="994"
     inkscape:window-width="1680"
     inkscape:pageshadow="2"
     inkscape:pageopacity="0.0"
     guidetolerance="10.0"
     gridtolerance="10.0"
     objecttolerance="10.0"
     borderopacity="1.0"
     bordercolor="#666666"
     pagecolor="#ffffff"
     id="base"
     showgrid="false"
     inkscape:zoom="1.9051546"
     inkscape:cx="121.25"
     inkscape:cy="121.25"
     inkscape:window-x="-4"
     inkscape:window-y="-4"
     inkscape:current-layer="svg2" />
  <g
     transform="matrix(1.3917784,0,0,1.3917784,1.4256e-7,9.0057732)"
     style="fill:#008054;fill-rule:evenodd;stroke:none;stroke-width:1;stroke-linecap:butt;stroke-linejoin:miter;stroke-dasharray:none"
     id="g8">
    <path
       d="M 69.6943,156.768 C 39.7412,146.686 17.0839,127.475 6.5254,101.261 C 6.5254,101.261 39.1552,101.261 39.1552,101.261 C 37.0644,98.2909 35.3046,95.1389 33.9482,91.7659 C 33.9482,91.7659 3.3359,91.7659 3.3359,91.7659 C 2.4921,88.6859 1.7959,85.5329 1.2822,82.3079 C 1.2822,82.3079 31.1259,82.3079 31.1259,82.3079 C 30.5761,79.2639 30.2461,76.1109 30.2089,72.8119 C 30.2089,72.8119 0.2197,72.8119 0.2197,72.8119 C 0.0722,70.6859 0,68.4849 0,66.2849 C 0,65.2959 0.0361,64.3056 0.0361,63.3525 C 0.0361,63.3525 30.5761,63.3525 30.5761,63.3525 C 30.7587,61.1894 31.0527,59.0996 31.4189,57.0468 C 31.6025,55.9834 31.8222,54.9199 32.042,53.8564 C 32.042,53.8564 0.4023,53.8564 0.4023,53.8564 C 1.3564,39.2285 4.1787,27.0566 9.2754,14.7021 C 26.2129,14.2988 31.7851,11.5117 38.6416,8.0654 C 46.414,4.1796 53.123,0 69.6943,0 C 86.2656,0 92.9746,4.1796 100.747,8.0654 C 107.604,11.5117 113.176,14.2988 130.114,14.7021 C 135.209,27.0566 138.033,39.2285 138.986,53.8564 C 138.986,53.8564 107.346,53.8564 107.346,53.8564 C 107.567,54.9199 107.786,55.9834 107.97,57.0468 C 108.336,59.0996 108.63,61.1894 108.813,63.3525 C 108.813,63.3525 139.353,63.3525 139.353,63.3525 C 139.353,64.3056 139.39,65.2959 139.39,66.2849 C 139.39,68.4849 139.316,70.6859 139.169,72.8119 C 139.169,72.8119 109.18,72.8119 109.18,72.8119 C 109.144,76.1109 108.813,79.2639 108.263,82.3079 C 108.263,82.3079 138.106,82.3079 138.106,82.3079 C 137.592,85.5329 136.896,88.6859 136.053,91.7659 C 136.053,91.7659 105.441,91.7659 105.441,91.7659 C 104.084,95.1389 102.324,98.2909 100.235,101.261 C 100.235,101.261 132.864,101.261 132.864,101.261 C 122.305,127.475 99.6476,146.686 69.6943,156.768 z"
       id="path10" />
  </g>
  <g
     transform="matrix(1.3917784,0,0,1.3917784,139.50435,136.72357)"
     style="fill:#ffffff;fill-rule:evenodd;stroke:none;stroke-width:1;stroke-linecap:butt;stroke-linejoin:miter;stroke-dasharray:none"
     id="g12">
    <path
       d="M 35.818,0 C 34.901,3.262 33.838,6.416 32.629,9.495 C 32.629,9.495 0,9.495 0,9.495 C 2.089,6.525 3.849,3.373 5.206,0 C 5.206,0 35.818,0 35.818,0 z"
       id="path14" />
  </g>
  <g
     transform="matrix(1.3917784,0,0,1.3917784,150.67755,110.3438)"
     style="fill:#ffffff;fill-rule:evenodd;stroke:none;stroke-width:1;stroke-linecap:butt;stroke-linejoin:miter;stroke-dasharray:none"
     id="g16">
    <path
       d="M 0.917,0 C 0.881,3.299 0.55,6.452 0,9.496 C 0,9.496 29.843,9.496 29.843,9.496 C 30.356,6.416 30.687,3.226 30.906,0 C 30.906,0 0.917,0 0.917,0 z"
       id="path18" />
  </g>
  <g
     transform="matrix(1.3917784,0,0,1.3917784,149.40129,83.961947)"
     style="fill:#ffffff;fill-rule:evenodd;stroke:none;stroke-width:1;stroke-linecap:butt;stroke-linejoin:miter;stroke-dasharray:none"
     id="g20">
    <path
       d="M 0,0 C 0.221,1.0635 0.44,2.127 0.624,3.1904 C 0.99,5.2432 1.284,7.333 1.467,9.4961 C 1.467,9.4961 32.007,9.4961 32.007,9.4961 C 31.97,6.1963 31.859,3.0439 31.64,0 C 31.64,0 0,0 0,0 z"
       id="path22" />
  </g>
  <g
     transform="matrix(1.3917784,0,0,1.3917784,5.0243343e-2,83.961947)"
     style="fill:#ffffff;fill-rule:evenodd;stroke:none;stroke-width:1;stroke-linecap:butt;stroke-linejoin:miter;stroke-dasharray:none"
     id="g24">
    <path
       d="M 30.54,9.4961 C 30.7226,7.333 31.0166,5.2432 31.3828,3.1904 C 31.5664,2.127 31.7861,1.0635 32.0059,0 C 32.0059,0 0.3662,0 0.3662,0 C 0.1465,3.0439 0.0361,6.1963 0,9.4961 C 0,9.4961 30.54,9.4961 30.54,9.4961 z"
       id="path26" />
  </g>
  <g
     transform="matrix(1.3917784,0,0,1.3917784,0.3057739,110.3438)"
     style="fill:#ffffff;fill-rule:evenodd;stroke:none;stroke-width:1;stroke-linecap:butt;stroke-linejoin:miter;stroke-dasharray:none"
     id="g28">
    <path
       d="M 30.9062,9.496 C 30.3564,6.452 30.0264,3.299 29.9892,0 C 29.9892,0 0,0 0,0 C 0.2197,3.226 0.5498,6.416 1.0625,9.496 C 1.0625,9.496 30.9062,9.496 30.9062,9.496 z"
       id="path30" />
  </g>
  <g
     transform="matrix(1.3917784,0,0,1.3917784,4.6428337,136.72357)"
     style="fill:#ffffff;fill-rule:evenodd;stroke:none;stroke-width:1;stroke-linecap:butt;stroke-linejoin:miter;stroke-dasharray:none"
     id="g32">
    <path
       d="M 35.8193,9.495 C 33.7285,6.525 31.9687,3.373 30.6123,0 C 30.6123,0 0,0 0,0 C 0.916,3.262 1.9795,6.416 3.1895,9.495 C 3.1895,9.495 35.8193,9.495 35.8193,9.495 z"
       id="path34" />
  </g>
  <g
     transform="matrix(1.3917784,0,0,1.3917784,44.850755,59.571866)"
     style="fill:#ffffff;fill-rule:evenodd;stroke:none;stroke-width:1;stroke-linecap:butt;stroke-linejoin:miter;stroke-dasharray:none"
     id="g36">
    <path
       d="M 37.7618,84.0659 C 37.7618,84.0659 37.1758,84.0659 37.1758,84.0659 C 25.7374,80.1809 16.2784,73.8379 9.752,65.4049 C 3.5196,57.3039 0,47.2579 0,35.7099 C 0,30.2829 0.3672,25.5166 1.1729,21.081 C 1.9795,16.6455 3.1895,12.5019 4.9131,8.3232 C 4.9131,8.3232 5.169,7.7363 5.169,7.7363 C 8.542,7.626 11.9883,7.4795 15.252,6.5996 C 17.5616,5.9765 19.6504,4.9131 21.7774,3.8496 C 25.5538,1.9072 29.293,0 37.4688,0 C 45.6441,0 49.3841,1.9072 53.1601,3.8496 C 55.2861,4.9131 57.3761,5.9765 59.6851,6.5996 C 62.9491,7.4795 66.3951,7.626 69.7681,7.7363 C 69.7681,7.7363 70.0241,8.3232 70.0241,8.3232 C 71.7481,12.5019 72.9571,16.6455 73.7641,21.081 C 74.5711,25.5166 74.9361,30.2829 74.9361,35.7099 C 74.9361,47.2579 71.4181,57.3039 65.1851,65.4049 C 58.6601,73.8379 49.2011,80.1809 37.7618,84.0659 z"
       id="path38" />
  </g>
  <g
     transform="matrix(1.3917784,0,0,1.3917784,47.657415,62.378526)"
     style="fill:#008054;fill-rule:evenodd;stroke:none;stroke-width:1;stroke-linecap:butt;stroke-linejoin:miter;stroke-dasharray:none"
     id="g40">
    <path
       d="M 35.4522,80.0343 C 46.3405,76.2953 55.3595,70.2083 61.5545,62.1423 C 67.5315,54.4073 70.9055,44.8003 70.9055,33.6933 C 70.9055,28.3763 70.5745,23.7207 69.7675,19.3945 C 69.0355,15.3252 67.9345,11.5488 66.3945,7.6992 C 62.2525,7.5527 59.3915,7.1494 57.1565,6.5264 C 54.7005,5.8662 52.5005,4.7666 50.2265,3.6299 C 46.6705,1.7969 43.1515,0 35.4522,0 C 27.753,0 24.2334,1.7969 20.6768,3.6299 C 18.4043,4.7666 16.2051,5.8662 13.7481,6.5264 C 11.5118,7.1494 8.6524,7.5527 4.5088,7.6992 C 2.9698,11.5488 1.8702,15.3252 1.1368,19.3945 C 0.3301,23.7207 0,28.3763 0,33.6933 C 0,44.8003 3.3731,54.4073 9.3487,62.1423 C 15.545,70.2083 24.5635,76.2953 35.4522,80.0343 z"
       id="path42" />
  </g>
  <g
     transform="matrix(1.3917784,0,0,1.3917784,19.032291,52.83719)"
     style="fill:#ffffff;fill-rule:evenodd;stroke:none;stroke-width:1;stroke-linecap:butt;stroke-linejoin:miter;stroke-dasharray:none"
     id="g44">
    <path
       d="M 13.3818,4.1426 C 14.4082,4.9131 14.8847,6.0488 14.7382,7.5889 C 14.5908,9.1289 13.8584,10.8154 12.5019,12.6846 C 11.7314,13.7481 10.998,14.6279 10.2656,15.2881 C 9.5322,15.9844 9.2382,16.2412 8.5048,16.7539 C 8.5048,16.7539 5.8291,15.1045 5.8291,15.1045 C 6.8554,14.5176 7.5156,14.1153 8.5048,13.3447 C 9.3857,12.6846 10.082,11.9522 10.6679,11.1455 C 10.8154,10.9619 10.998,10.669 11.1816,10.3389 C 11.4013,9.9727 11.5478,9.6787 11.622,9.4219 C 11.7314,9.1289 11.7685,8.836 11.7685,8.5791 C 11.7685,8.3223 11.6582,8.1026 11.4013,7.919 C 11.1455,7.7354 10.8886,7.7354 10.5214,7.8457 C 10.1923,7.9561 9.8252,8.2119 9.3857,8.6153 C 8.9453,9.0186 8.4687,9.4951 7.9922,9.9727 C 7.5156,10.4483 7.0752,10.8516 6.5986,11.2559 C 5.499,12.1358 4.5459,12.6113 3.7392,12.7588 C 2.8964,12.8682 2.0898,12.6485 1.3925,12.1358 C 0.4033,11.4024 0,10.3018 0.1464,8.7988 C 0.33,7.2588 1.0263,5.6455 2.2363,3.959 C 2.8593,3.1162 3.5556,2.3096 4.289,1.5762 C 4.9121,0.9531 5.499,0.4395 6.0859,0 C 6.0859,0 8.0654,1.9063 8.0654,1.9063 C 6.6357,2.7129 5.1689,4.0332 4.2529,5.2793 C 4.0322,5.5362 3.8496,5.8291 3.7021,6.1221 C 3.5195,6.416 3.373,6.709 3.2988,7.0391 C 3.1894,7.3321 3.1523,7.5889 3.1894,7.8457 C 3.2256,8.1026 3.3359,8.3223 3.5195,8.4688 C 3.7763,8.6524 4.1054,8.6885 4.4355,8.542 C 4.7656,8.3594 5.2422,7.9922 5.9023,7.3321 C 6.3056,6.9287 6.7451,6.5254 7.1123,6.1592 C 7.5156,5.7559 7.955,5.3887 8.4316,4.9863 C 9.4218,4.1797 10.3017,3.7031 11.1084,3.5557 C 11.915,3.4092 12.6484,3.6289 13.3818,4.1426 z"
       id="path46" />
  </g>
  <g
     transform="matrix(1.3917784,0,0,1.3917784,32.196984,39.111053)"
     style="fill:#ffffff;fill-rule:evenodd;stroke:none;stroke-width:1;stroke-linecap:butt;stroke-linejoin:miter;stroke-dasharray:none"
     id="g48">
    <path
       d="M 11.0713,0.2197 C 10.4483,0.0371 9.8252,0 9.0918,0.1465 C 8.5049,0.2569 7.8819,0.5137 7.2588,0.8428 C 6.6358,1.1729 5.9395,1.6865 5.169,2.3467 C 5.169,2.3467 0,6.6729 0,6.6729 C 0,6.6729 8.3223,16.6084 8.3223,16.6084 C 8.3223,16.6084 11.3282,14.0781 11.3282,14.0781 C 11.3282,14.0781 8.6153,10.8526 8.6153,10.8526 C 8.6153,10.8526 10.7051,9.0928 10.7051,9.0928 C 11.6211,8.3223 12.2813,7.626 12.6846,6.8926 C 13.125,6.1963 13.418,5.4629 13.5645,4.6563 C 13.711,4.0694 13.6749,3.4834 13.4913,2.8965 C 13.3448,2.3096 13.0508,1.7969 12.6846,1.3565 C 12.2081,0.7705 11.6583,0.4033 11.0713,0.2197 z M 10.045,4.9131 C 10.1182,5.1699 10.1182,5.4629 10.045,5.793 C 9.9346,6.1592 9.752,6.4893 9.4219,6.8555 C 9.128,7.1856 8.7256,7.5899 8.1758,8.0293 C 8.1758,8.0293 7.0391,8.9824 7.0391,8.9824 C 7.0391,8.9824 4.5459,6.0127 4.5459,6.0127 C 4.5459,6.0127 5.3155,5.3526 5.3155,5.3526 C 5.8292,4.9131 6.2686,4.583 6.5625,4.3262 C 6.8926,4.0694 7.2588,3.8867 7.6993,3.7031 C 7.9922,3.5928 8.3223,3.5567 8.6885,3.5928 C 9.0557,3.6299 9.3487,3.8135 9.5684,4.0694 C 9.8252,4.3623 9.9717,4.6563 10.045,4.9131 z"
       id="path50" />
  </g>
  <g
     transform="matrix(1.3917784,0,0,1.3917784,51.994614,28.701247)"
     style="fill:#ffffff;fill-rule:evenodd;stroke:none;stroke-width:1;stroke-linecap:butt;stroke-linejoin:miter;stroke-dasharray:none"
     id="g52">
    <path
       d="M 12.208,0.5508 C 10.375,0 8.249,0.2569 5.8662,1.2471 C 3.4462,2.2735 1.7968,3.6299 0.917,5.3164 C 0.0361,7.0401 0,8.836 0.8066,10.7422 C 1.6132,12.6494 2.9326,13.8584 4.7656,14.4082 C 6.5996,14.959 8.7255,14.7022 11.1455,13.6758 C 13.5644,12.6494 15.2148,11.293 16.0947,9.6055 C 16.9746,7.9199 17.0107,6.1231 16.205,4.2168 C 15.3974,2.2735 14.0781,1.0635 12.208,0.5508 z M 11.622,10.5596 C 11.2187,10.8897 10.705,11.2188 10.1923,11.4395 C 9.6787,11.6592 9.0918,11.8057 8.5791,11.8418 C 8.0654,11.8789 7.5527,11.8418 7.0761,11.6592 C 6.5996,11.4756 6.1591,11.1826 5.7558,10.7793 C 5.3164,10.376 4.9492,9.8262 4.6562,9.0928 C 4.3623,8.3965 4.2158,7.7735 4.2158,7.1494 C 4.2158,6.5264 4.289,5.9766 4.5097,5.5362 C 4.7656,5.0596 5.0595,4.6563 5.4257,4.3272 C 5.8291,4.0332 6.3427,3.7031 6.8193,3.5205 C 7.332,3.2998 7.8818,3.1533 8.3955,3.0801 C 8.9091,3.043 9.4218,3.1172 9.8984,3.2637 C 10.375,3.4473 10.8154,3.7403 11.2548,4.1436 C 11.6953,4.5469 12.0253,5.1328 12.3545,5.8301 C 12.6113,6.4903 12.7949,7.1133 12.7949,7.6992 C 12.832,8.25 12.7216,8.7998 12.5019,9.3496 C 12.3183,9.8262 11.9882,10.2285 11.622,10.5596 z"
       id="path54" />
  </g>
  <g
     transform="matrix(1.3917784,0,0,1.3917784,78.630052,24.77337)"
     style="fill:#ffffff;fill-rule:evenodd;stroke:none;stroke-width:1;stroke-linecap:butt;stroke-linejoin:miter;stroke-dasharray:none"
     id="g56">
    <path
       d="M 10.5224,7.2226 C 11.5117,6.7451 12.2451,6.1591 12.7216,5.499 C 13.1982,4.8759 13.3808,4.0693 13.3076,3.1162 C 13.2353,2.4199 13.0517,1.8701 12.6845,1.4296 C 12.2822,0.9892 11.7675,0.6591 11.1455,0.4394 C 10.5224,0.1826 9.8984,0.0732 9.2021,0.0361 C 8.5058,0 7.6992,0.0361 6.7822,0.1093 C 6.7822,0.1093 0,0.6962 0,0.6962 C 0,0.6962 1.1367,13.6377 1.1367,13.6377 C 1.1367,13.6377 4.9492,13.2714 4.9492,13.2714 C 4.9492,13.2714 4.5459,8.5419 4.5459,8.5419 C 4.5459,8.5419 6.5625,8.3584 6.5625,8.3584 C 8.4326,9.789 9.8623,11.2548 10.6689,12.7949 C 10.6689,12.7949 15.1416,12.538 15.1416,12.538 C 13.9677,10.5214 12.7949,8.6523 10.5224,7.2226 z M 9.0185,4.7656 C 8.9091,4.9853 8.7255,5.206 8.4687,5.4257 C 8.1757,5.6455 7.8085,5.7919 7.3691,5.8652 C 6.9658,5.9755 6.416,6.0488 5.7558,6.0859 C 5.7558,6.0859 4.3623,6.2324 4.3623,6.2324 C 4.3623,6.2324 4.0332,2.749 4.0332,2.749 C 4.0332,2.749 5.6826,2.6025 5.6826,2.6025 C 6.1591,2.5664 6.5986,2.5293 6.9658,2.5293 C 7.332,2.4931 7.6621,2.5293 7.956,2.6025 C 8.3593,2.7128 8.6523,2.8593 8.8359,3.0791 C 9.0185,3.2988 9.1289,3.5556 9.165,3.8857 C 9.2021,4.2529 9.1289,4.5459 9.0185,4.7656 z"
       id="path58" />
  </g>
  <g
     transform="matrix(1.3917784,0,0,1.3917784,99.040482,23.956396)"
     style="fill:#ffffff;fill-rule:evenodd;stroke:none;stroke-width:1;stroke-linecap:butt;stroke-linejoin:miter;stroke-dasharray:none"
     id="g60">
    <path
       d="M 14.2605,1.4668 C 14.2605,1.4668 0.293,0 0.293,0 C 0.293,0 0,2.6768 0,2.6768 C 0,2.6768 5.1325,3.2266 5.1325,3.2266 C 5.1325,3.2266 4.0325,13.419 4.0325,13.419 C 4.0325,13.419 7.8085,13.8223 7.8085,13.8223 C 7.8085,13.8223 8.8725,3.5928 8.8725,3.5928 C 8.8725,3.5928 13.9675,4.1426 13.9675,4.1426 C 13.9675,4.1426 14.2605,1.4668 14.2605,1.4668 z"
       id="path62" />
  </g>
  <g
     transform="matrix(1.3917784,0,0,1.3917784,118.63324,27.630273)"
     style="fill:#ffffff;fill-rule:evenodd;stroke:none;stroke-width:1;stroke-linecap:butt;stroke-linejoin:miter;stroke-dasharray:none"
     id="g64">
    <path
       d="M 7.259,1.0635 C 7.259,1.0635 3.593,0 3.593,0 C 3.593,0 0,12.4658 0,12.4658 C 0,12.4658 3.704,13.4912 3.704,13.4912 C 3.704,13.4912 7.259,1.0635 7.259,1.0635 z"
       id="path66" />
  </g>
  <g
     transform="matrix(1.3917784,0,0,1.3917784,128.22677,31.91709)"
     style="fill:#ffffff;fill-rule:evenodd;stroke:none;stroke-width:1;stroke-linecap:butt;stroke-linejoin:miter;stroke-dasharray:none"
     id="g68">
    <path
       d="M 19.688,7.5888 C 19.688,7.5888 16.461,5.6826 16.461,5.6826 C 16.461,5.6826 12.135,12.3545 12.135,12.3545 C 12.135,12.3545 8.762,1.5761 8.762,1.5761 C 8.762,1.5761 5.316,0 5.316,0 C 5.316,0 0,11.8047 0,11.8047 C 0,11.8047 3.3,13.2343 3.3,13.2343 C 3.3,13.2343 6.527,6.1953 6.527,6.1953 C 6.527,6.1953 9.789,16.7539 9.789,16.7539 C 9.789,16.7539 12.612,18.6972 12.612,18.6972 C 12.612,18.6972 19.688,7.5888 19.688,7.5888 z"
       id="path70" />
  </g>
  <g
     transform="matrix(1.3917784,0,0,1.3917784,151.08534,49.774999)"
     style="fill:#ffffff;fill-rule:evenodd;stroke:none;stroke-width:1;stroke-linecap:butt;stroke-linejoin:miter;stroke-dasharray:none"
     id="g72">
    <path
       d="M 12.099,14.2256 C 12.099,14.2256 8.689,8.9092 8.689,8.9092 C 8.689,8.9092 6.783,10.3028 6.783,10.3028 C 6.783,10.3028 8.029,12.2823 8.029,12.2823 C 8.029,12.2823 6.159,13.6026 6.159,13.6026 C 5.022,12.3194 3.264,9.6797 3.337,7.919 C 3.373,6.709 3.996,5.6826 5.133,4.8399 C 5.683,4.3994 6.27,4.1436 6.856,4.0332 C 7.442,3.9229 7.992,3.9229 8.542,4.0694 C 9.753,4.3994 10.89,5.4258 11.622,6.3799 C 11.989,6.8926 12.282,7.4063 12.538,7.919 C 13.053,9.0928 13.419,10.9258 13.639,12.4658 C 13.639,12.4658 16.095,10.6328 16.095,10.6328 C 15.729,9.4229 15.325,7.919 14.886,7.0762 C 14.409,6.2334 13.895,5.3535 13.235,4.5459 C 11.586,2.3106 9.789,0.9531 7.883,0.4766 C 5.977,0 4.216,0.3301 2.604,1.5401 C 0.917,2.8233 0.037,4.4365 0,6.3799 C 0,8.3223 0.77,10.376 2.42,12.5391 C 3.116,13.4922 3.923,14.336 4.803,15.1416 C 5.683,15.9483 6.966,17.1944 7.59,17.6348 C 7.59,17.6348 12.099,14.2256 12.099,14.2256 z"
       id="path74" />
  </g>
  <g
     transform="matrix(1.3917784,0,0,1.3917784,29.236811,162.59395)"
     style="fill:#ffffff;fill-rule:evenodd;stroke:none;stroke-width:1;stroke-linecap:butt;stroke-linejoin:miter;stroke-dasharray:none"
     id="g76">
    <path
       d="M 12.5381,9.532 C 12.209,9.898 11.8418,10.155 11.4023,10.338 C 10.9258,10.522 10.4853,10.594 10.0088,10.557 C 9.3496,10.522 8.7256,10.375 8.1387,10.082 C 7.5156,9.825 6.8926,9.348 6.1963,8.725 C 6.1963,8.725 4.5469,7.185 4.5469,7.185 C 4.5469,7.185 2.2363,9.642 2.2363,9.642 C 2.2363,9.642 0,7.552 0,7.552 C 0,7.552 7.0762,0 7.0762,0 C 7.0762,0 11.0723,3.555 11.0723,3.555 C 11.6582,4.105 12.0986,4.619 12.4287,5.096 C 13.0156,5.866 13.4551,7.185 13.2715,8.138 C 13.1982,8.651 12.9414,9.092 12.5381,9.532 z M 10.082,7.369 C 10.3027,7.148 10.4121,6.892 10.4121,6.598 C 10.4121,6.342 10.3389,6.048 10.1924,5.829 C 10.0459,5.499 9.8262,5.242 9.6055,5.022 C 9.3857,4.766 9.0557,4.472 8.6523,4.105 C 8.6523,4.105 7.9922,3.483 7.9922,3.483 C 7.9922,3.483 5.8662,5.755 5.8662,5.755 C 5.8662,5.755 6.8193,6.635 6.8193,6.635 C 7.2227,7.003 7.5889,7.294 7.8818,7.515 C 8.1758,7.735 8.4687,7.844 8.7627,7.881 C 9.0195,7.919 9.2754,7.919 9.4961,7.809 C 9.6787,7.735 9.8994,7.588 10.082,7.369 z"
       id="path78" />
  </g>
  <g
     transform="matrix(1.3917784,0,0,1.3917784,45.310181,173.86874)"
     style="fill:#ffffff;fill-rule:evenodd;stroke:none;stroke-width:1;stroke-linecap:butt;stroke-linejoin:miter;stroke-dasharray:none"
     id="g80">
    <path
       d="M 12.3555,9.387 C 11.5117,10.816 10.375,11.659 8.8721,11.915 C 7.3692,12.172 5.7198,11.806 3.959,10.779 C 2.1992,9.752 1.0264,8.506 0.5127,7.076 C 0,5.683 0.1465,4.254 0.9893,2.823 C 1.7969,1.357 2.9698,0.515 4.4727,0.258 C 5.9395,0 7.5889,0.404 9.3487,1.394 C 11.1084,2.421 12.2823,3.667 12.7949,5.061 C 13.3448,6.489 13.1983,7.92 12.3555,9.387 z M 7.3321,9.496 C 7.7354,9.387 8.1387,9.166 8.5059,8.873 C 8.835,8.58 9.1651,8.213 9.459,7.699 C 9.752,7.15 9.9356,6.637 10.0088,6.195 C 10.0821,5.72 10.0459,5.28 9.9356,4.913 C 9.8252,4.547 9.6426,4.18 9.3858,3.887 C 9.0918,3.594 8.7256,3.3 8.3955,3.117 C 8.0293,2.898 7.626,2.75 7.2588,2.677 C 6.8555,2.567 6.4893,2.567 6.086,2.677 C 5.6826,2.75 5.3164,2.934 4.9121,3.264 C 4.5459,3.557 4.2158,3.96 3.8858,4.51 C 3.5928,5.024 3.4092,5.536 3.336,5.977 C 3.2627,6.453 3.2998,6.894 3.4092,7.26 C 3.5196,7.626 3.7031,7.993 3.959,8.286 C 4.253,8.58 4.583,8.873 4.9492,9.057 C 5.3164,9.277 5.7559,9.459 6.1592,9.532 C 6.5254,9.607 6.9287,9.607 7.3321,9.496 z"
       id="path82" />
  </g>
  <g
     transform="matrix(1.3917784,0,0,1.3917784,62.862455,179.78937)"
     style="fill:#ffffff;fill-rule:evenodd;stroke:none;stroke-width:1;stroke-linecap:butt;stroke-linejoin:miter;stroke-dasharray:none"
     id="g84">
    <path
       d="M 11.3652,13.528 C 11.3652,13.528 7.6992,12.355 7.6992,12.355 C 7.5527,10.778 6.746,9.238 5.7197,7.698 C 5.7197,7.698 4.1425,7.186 4.1425,7.186 C 4.1425,7.186 2.9697,10.815 2.9697,10.815 C 2.9697,10.815 0,9.861 0,9.861 C 0,9.861 3.1904,0 3.1904,0 C 3.1904,0 8.4326,1.686 8.4326,1.686 C 9.166,1.906 9.7519,2.163 10.2294,2.383 C 10.7421,2.64 11.1826,2.933 11.5488,3.299 C 11.9521,3.666 12.2089,4.069 12.3554,4.509 C 12.5019,4.948 12.5019,5.426 12.3554,5.939 C 12.0986,6.672 11.6953,7.222 11.1455,7.516 C 10.5595,7.846 9.8623,8.028 8.9824,8.103 C 10.0087,9.531 10.8154,11.328 11.3652,13.528 z M 9.0927,5.242 C 9.166,4.985 9.166,4.766 9.1289,4.546 C 9.0556,4.326 8.873,4.106 8.6162,3.922 C 8.4326,3.776 8.1757,3.666 7.9189,3.557 C 7.6259,3.445 7.2959,3.335 6.9296,3.189 C 6.9296,3.189 5.6103,2.785 5.6103,2.785 C 5.6103,2.785 4.7294,5.426 4.7294,5.426 C 4.7294,5.426 5.9033,5.792 5.9033,5.792 C 6.3798,5.976 6.8193,6.085 7.1865,6.158 C 7.5166,6.232 7.8457,6.232 8.1025,6.158 C 8.3593,6.085 8.5791,5.976 8.7255,5.865 C 8.873,5.718 9.0195,5.535 9.0927,5.242 z"
       id="path86" />
  </g>
  <g
     transform="matrix(1.3917784,0,0,1.3917784,81.181182,183.87146)"
     style="fill:#ffffff;fill-rule:evenodd;stroke:none;stroke-width:1;stroke-linecap:butt;stroke-linejoin:miter;stroke-dasharray:none"
     id="g88">
    <path
       d="M 11.3652,0.953 C 11.3652,0.953 0.1836,0 0.1836,0 C 0.1836,0 0,2.126 0,2.126 C 0,2.126 4.1425,2.493 4.1425,2.493 C 4.1425,2.493 3.4463,10.668 3.4463,10.668 C 3.4463,10.668 6.3056,10.924 6.3056,10.924 C 6.3056,10.924 7.0029,2.75 7.0029,2.75 C 7.0029,2.75 11.1826,3.116 11.1826,3.116 C 11.1826,3.116 11.3652,0.953 11.3652,0.953 z"
       id="path90" />
  </g>
  <g
     transform="matrix(1.3917784,0,0,1.3917784,99.192743,183.46366)"
     style="fill:#ffffff;fill-rule:evenodd;stroke:none;stroke-width:1;stroke-linecap:butt;stroke-linejoin:miter;stroke-dasharray:none"
     id="g92">
    <path
       d="M 11.2921,0 C 11.2921,0 8.1021,0.33 8.1021,0.33 C 8.1021,0.33 8.6521,6.819 8.6521,6.819 C 8.7251,7.589 8.5791,8.138 8.2131,8.505 C 7.8831,8.872 7.1861,9.091 6.3801,9.165 C 5.5361,9.239 4.8031,9.128 4.3991,8.835 C 3.9961,8.505 3.7761,7.991 3.7031,7.258 C 3.7031,7.258 3.1531,0.842 3.1531,0.842 C 3.1531,0.842 0,1.062 0,1.062 C 0,1.062 0.5498,7.698 0.5498,7.698 C 0.6601,8.982 1.247,9.898 2.2361,10.485 C 3.2631,11.108 4.6931,11.328 6.5621,11.145 C 8.3951,10.998 9.7891,10.521 10.6691,9.752 C 11.5851,8.982 11.9521,7.991 11.8421,6.709 C 11.8421,6.709 11.2921,0 11.2921,0 z"
       id="path94" />
  </g>
  <g
     transform="matrix(1.3917784,0,0,1.3917784,118.93943,178.6662)"
     style="fill:#ffffff;fill-rule:evenodd;stroke:none;stroke-width:1;stroke-linecap:butt;stroke-linejoin:miter;stroke-dasharray:none"
     id="g96">
    <path
       d="M 11.915,3.849 C 11.915,3.849 7.369,5.243 7.369,5.243 C 7.369,5.243 7.919,7.112 7.919,7.112 C 7.919,7.112 9.679,6.562 9.679,6.562 C 9.679,6.562 10.266,8.505 10.266,8.505 C 8.91,9.055 6.856,9.605 5.462,9.055 C 4.546,8.688 3.96,7.955 3.593,6.856 C 3.447,6.305 3.41,5.83 3.484,5.353 C 3.629,4.364 4.216,3.629 5.023,3.08 C 5.427,2.823 6.012,2.566 6.562,2.383 C 7.039,2.236 7.516,2.163 7.993,2.126 C 8.982,2.089 10.302,2.236 11.329,2.42 C 11.329,2.42 10.595,0.073 10.595,0.073 C 9.606,0 8.726,0.038 7.955,0.147 C 7.223,0.256 6.416,0.404 5.647,0.66 C 3.52,1.32 2.016,2.273 1.101,3.592 C 0.221,4.876 0,6.305 0.477,7.846 C 0.953,9.459 1.943,10.559 3.41,11.108 C 4.84,11.659 6.599,11.622 8.689,10.998 C 9.569,10.742 10.45,10.375 11.292,9.936 C 12.136,9.496 12.906,9.055 13.418,8.725 C 13.418,8.725 11.915,3.849 11.915,3.849 z"
       id="path98" />
  </g>
  <g
     transform="matrix(1.3917784,0,0,1.3917784,139.40136,171.26612)"
     style="fill:#ffffff;fill-rule:evenodd;stroke:none;stroke-width:1;stroke-linecap:butt;stroke-linejoin:miter;stroke-dasharray:none"
     id="g100">
    <path
       d="M 12.539,6.6 C 12.539,6.6 9.605,8.323 9.605,8.323 C 9.605,8.323 7.772,6.931 7.772,6.931 C 7.772,6.931 3.703,9.313 3.703,9.313 C 3.703,9.313 3.959,11.55 3.959,11.55 C 3.959,11.55 1.099,13.199 1.099,13.199 C 1.099,13.199 0,1.87 0,1.87 C 0,1.87 3.262,0 3.262,0 C 3.262,0 12.539,6.6 12.539,6.6 z M 6.122,5.684 C 6.122,5.684 2.933,3.264 2.933,3.264 C 2.933,3.264 3.409,7.26 3.409,7.26 C 3.409,7.26 6.122,5.684 6.122,5.684 z"
       id="path102" />
  </g>
  <g
     transform="matrix(1.3917784,0,0,1.3917784,149.55438,164.3796)"
     style="fill:#ffffff;fill-rule:evenodd;stroke:none;stroke-width:1;stroke-linecap:butt;stroke-linejoin:miter;stroke-dasharray:none"
     id="g104">
    <path
       d="M 12.209,2.015 C 12.209,2.015 7.883,6.049 7.883,6.049 C 7.883,6.049 2.237,0 2.237,0 C 2.237,0 0,2.09 0,2.09 C 0,2.09 7.039,9.678 7.039,9.678 C 7.039,9.678 13.638,3.556 13.638,3.556 C 13.638,3.556 12.209,2.015 12.209,2.015 z"
       id="path106" />
  </g>
  <g
     transform="matrix(1.3917784,0,0,1.3917784,26.737316,-25.487019)"
     style="fill:#008054;fill-rule:evenodd;stroke:none;stroke-width:1;stroke-linecap:butt;stroke-linejoin:miter;stroke-dasharray:none"
     id="g108">
    <path
       d="M 5.6094,23.4268 C 6.8555,23.4268 11.8779,23.5743 16.0215,22.4375 C 19.0273,21.5937 21.9238,19.7979 21.2275,18.1113 C 20.5674,16.6085 17.707,16.5713 14.334,17.3408 C 10.082,18.3311 5.792,18.0009 4.3262,17.3408 C 2.6758,16.6085 1.3193,15.288 0.6592,13.5283 C 0,11.6954 0.8057,9.09175 2.6025,7.11235 C 4.3994,5.13285 7.0752,3.51955 10.5947,2.23635 C 13.9678,0.98925 17.377,0.36621 20.8975,0 C 20.8975,0 23.1699,4.87595 23.1699,4.87595 C 21.2275,4.83885 18.917,4.91215 16.4609,5.38965 C 13.9678,5.82915 11.292,6.67285 9.752,8.10255 C 8.3223,9.45895 9.0186,11.3291 11.0352,11.1085 C 12.1709,10.9991 13.6377,10.8515 14.958,10.705 C 18.2568,10.4122 21.7402,9.89845 24.9668,10.8515 C 31.4189,12.7579 29.8428,18.9913 25.9199,22.5469 C 24.417,23.9033 22.6201,24.9668 21.0439,25.7001 C 17.084,27.5332 12.4648,28.2294 8.249,28.5595 C 8.249,28.5595 5.6094,23.4268 5.6094,23.4268 z"
       id="path110" />
  </g>
  <g
     transform="matrix(1.3917784,0,0,1.3917784,71.84374,-33.192085)"
     style="fill:#008054;fill-rule:evenodd;stroke:none;stroke-width:1;stroke-linecap:butt;stroke-linejoin:miter;stroke-dasharray:none"
     id="g112">
    <path
       d="M 32.2625,2.27246 C 30.4655,1.54004 28.5595,0.95312 26.5425,0.58691 C 24.5635,0.18359 22.4365,0 20.2734,0 C 17.5244,0 14.8847,0.33008 12.3916,0.95312 C 8.2851,2.0166 3.8496,4.14258 1.4658,7.84568 C 0.4765,9.42188 0,11.0723 0,12.8682 C 0,14.9219 0.6601,16.8653 1.9795,18.5879 C 4.6924,22.1446 9.3857,24.1973 13.6377,25.1133 C 15.7285,25.5537 17.9277,25.7002 20.2002,25.7002 C 22.3635,25.7002 24.4165,25.5166 26.3965,25.1504 C 28.3755,24.7842 30.8695,23.8301 32.5195,23.1338 C 32.5195,23.1338 32.4825,17.1582 32.4825,17.1582 C 28.8165,19.0645 24.8205,20.2012 20.6767,20.2012 C 16.1679,20.2012 9.1289,18.625 9.1289,12.7949 C 9.1289,7.00288 16.1308,5.42578 20.6767,5.42578 C 24.5265,5.42578 29.0355,6.34277 32.2625,8.35938 C 32.2625,8.35938 32.2625,2.27246 32.2625,2.27246 z"
       id="path114" />
  </g>
  <g
     transform="matrix(1.3917784,0,0,1.3917784,124.90877,-27.834281)"
     style="fill:#008054;fill-rule:evenodd;stroke:none;stroke-width:1;stroke-linecap:butt;stroke-linejoin:miter;stroke-dasharray:none"
     id="g116">
    <path
       d="M 7.7,25.7735 C 7.7,25.7735 10.56,16.791 10.56,16.791 C 10.56,16.791 17.122,18.8809 17.122,18.8809 C 19.285,19.541 22.768,20.0537 25.738,19.0274 C 29.955,17.5244 31.237,12.9053 28.67,9.31247 C 27.607,7.80857 25.994,6.59867 24.455,5.82907 C 22.804,5.02247 19.578,4.06937 16.645,3.07907 C 16.645,3.07907 7.333,0 7.333,0 C 7.333,0 0,23.2442 0,23.2442 C 0,23.2442 7.7,25.7735 7.7,25.7735 z M 22.108,12.7217 C 21.522,14.6651 17.783,14.2246 16.352,13.7852 C 16.352,13.7852 11.989,12.4287 11.989,12.4287 C 11.989,12.4287 13.639,7.00197 13.639,7.00197 C 13.639,7.00197 18.588,8.57907 18.588,8.57907 C 20.276,9.12887 22.768,10.669 22.108,12.7217 z"
       id="path118" />
  </g>
  <g
     transform="matrix(1.3917784,0,0,1.3917784,56.739326,71.461829)"
     style="fill:#f4c03f;fill-rule:evenodd;stroke:none;stroke-width:1;stroke-linecap:butt;stroke-linejoin:miter;stroke-dasharray:none"
     id="g120">
    <path
       d="M 36.2961,1.2089 C 35.3791,1.9062 34.6461,2.4921 33.8761,2.7128 C 33.8031,2.7128 33.8031,2.8222 33.8391,2.8222 C 34.4261,3.0791 35.1961,3.0429 36.0021,3.0429 C 36.7721,3.0058 37.6151,3.0058 38.3491,3.1894 C 38.8611,3.2988 39.2281,3.5566 39.5221,3.8486 C 39.7781,4.1796 39.9621,4.5459 39.9991,4.8759 C 39.0821,4.3994 38.2021,4.1796 37.4331,4.2158 C 37.1021,4.2158 36.7721,4.289 36.5161,4.4355 C 36.2231,4.582 36.0021,4.8027 35.8551,5.0595 C 35.6731,5.3525 35.5991,5.7187 35.5991,6.1591 C 35.6361,6.1953 35.6731,6.2324 35.7091,6.1953 C 36.0761,5.9755 36.4421,5.8291 36.8101,5.7558 C 37.1401,5.6455 37.4691,5.6093 37.7991,5.6455 C 38.5681,5.6826 39.2281,5.9755 39.7421,6.416 C 40.2551,6.8554 40.5861,7.4423 40.5861,8.0293 C 40.6221,8.5419 40.6591,9.0918 40.7681,9.5683 C 40.8421,9.9716 40.9881,10.3378 41.1721,10.705 C 40.6591,10.4853 40.3291,10.0087 39.9991,9.5312 C 39.5221,8.9082 39.0461,8.249 38.1661,8.1025 C 37.7991,8.0293 37.3951,8.1025 37.0291,8.2851 C 36.6621,8.4687 36.3691,8.7988 36.1481,9.2021 C 36.1121,9.2753 36.1481,9.3115 36.2231,9.3115 C 36.9191,9.2753 37.5421,9.4218 38.0561,9.7148 C 38.6421,10.0087 39.1181,10.4853 39.4851,11.0351 C 40.2551,12.2451 40.3291,13.3076 40.3651,14.2246 C 40.4021,14.958 40.4381,15.581 40.8051,16.1679 C 39.9251,15.8378 39.4121,14.8847 38.9731,14.0048 C 38.7161,13.4912 38.4961,13.0517 38.2021,12.7216 C 38.0561,12.5752 37.9091,12.4648 37.7251,12.3554 C 37.4331,12.208 37.1401,12.1347 36.8101,12.1718 C 36.4781,12.2451 36.1851,12.3916 35.9291,12.6484 C 35.7461,12.7949 35.5631,13.0146 35.4521,13.2714 C 35.4161,13.3076 35.4521,13.3818 35.4891,13.3818 C 36.2231,13.3818 36.9191,13.6748 37.4691,14.2246 C 37.9821,14.7011 38.3491,15.4345 38.4961,16.3144 C 38.5681,17.0107 38.5681,17.8173 38.5321,18.624 C 38.4961,20.2373 38.4591,21.8869 39.4121,22.9129 C 37.6891,22.6209 37.3221,21.08 36.9551,19.5771 C 36.8461,19.1367 36.7351,18.7334 36.5891,18.331 C 36.4051,17.7441 36.0761,17.2675 35.7091,16.9013 C 35.2691,16.498 34.7921,16.2773 34.3521,16.2041 C 34.3151,16.2041 34.2791,16.2773 34.3151,16.3515 C 35.0131,17.0839 35.2691,17.9648 35.2691,18.9169 C 35.2691,19.871 35.0491,20.9335 34.7561,22.0699 C 34.5351,22.9129 34.4631,23.7569 34.6091,24.4899 C 34.7201,25.1869 34.9771,25.7729 35.4521,26.2499 C 35.4891,26.2869 35.5631,26.2499 35.5631,26.2129 C 35.6361,25.5909 35.7461,25.0759 35.9661,24.6739 C 36.1851,24.3069 36.4421,23.9769 36.7721,23.6839 C 36.7721,23.9029 36.7721,24.1229 36.7721,24.3799 C 36.8101,26.2129 36.8461,28.1559 37.0291,29.5499 C 37.1401,30.4299 37.7251,31.8589 38.4231,33.2159 C 39.2661,34.8649 40.2551,36.4409 40.8051,37.0279 C 41.7221,37.9819 42.7121,38.5309 43.7011,38.7519 C 44.5441,38.9349 45.3881,38.8609 46.0841,38.5669 C 46.8171,38.3119 47.4041,37.7979 47.8081,37.1759 C 48.2111,36.5889 48.4311,35.8559 48.3941,35.0479 C 48.3201,33.9129 48.1381,33.0319 47.5511,31.6759 C 46.9641,30.3569 46.0121,28.5599 44.5081,25.6259 C 43.7381,24.1599 43.1151,22.6209 42.8581,21.08 C 42.6011,19.5039 42.7121,17.9277 43.4071,16.3515 C 43.8861,15.1777 44.6541,14.2617 45.6441,13.6377 C 46.5611,13.0878 47.6611,12.7949 48.9071,12.9414 C 48.9071,12.9414 48.9441,12.9052 48.9801,12.9052 C 49.1641,12.4648 49.4571,12.1718 49.8241,11.9511 C 50.2271,11.7314 50.7031,11.622 51.1811,11.5849 C 51.8401,11.5849 52.5011,11.6943 53.0881,11.915 C 53.3441,11.9882 53.6011,12.1347 53.8201,12.2451 C 54.2601,12.4648 54.7001,12.6845 55.2501,12.6845 C 55.8731,12.7216 56.4971,12.3916 57.0831,12.6845 C 56.6801,12.7216 56.3501,12.9414 56.0201,13.125 C 55.6161,13.3447 55.2141,13.5644 54.5901,13.6015 C 53.8931,13.6377 53.3441,13.455 52.6841,13.1982 C 52.6461,13.1621 52.6101,13.1982 52.5731,13.2343 C 52.5731,13.2714 52.5731,13.3076 52.5731,13.3076 C 52.5731,14.2978 54.3701,14.4443 55.1031,14.2978 C 55.5071,14.1884 55.9831,14.1142 56.2401,14.1884 C 55.8731,14.1884 55.5431,14.4082 55.1771,14.5918 C 54.7361,14.8115 53.8201,15.0312 53.0511,15.0312 C 52.6101,15.0312 52.1701,14.9209 51.9511,14.664 C 51.9141,14.6279 51.8041,14.6279 51.8041,14.7011 C 51.8041,14.7744 51.8041,14.8476 51.8401,14.9209 C 51.8771,15.3252 52.2441,15.581 52.6101,15.6904 C 53.0141,15.8017 53.4531,15.7275 53.7831,15.6904 C 54.2971,15.6171 54.7001,15.581 55.2861,15.6904 C 54.7001,15.8378 54.2241,16.0576 53.7101,16.2773 C 52.5731,16.791 51.4371,17.1572 50.1901,16.9013 C 49.3841,16.7177 48.7251,16.2402 48.5051,15.4707 C 48.3571,14.9941 48.3571,14.4443 48.5051,13.9316 C 48.5051,13.8945 48.5051,13.8574 48.4311,13.8574 C 47.8441,13.748 47.2581,13.8212 46.7441,14.041 C 46.1571,14.2978 45.6441,14.7011 45.2051,15.1777 C 44.4711,16.0205 44.0671,17.0107 43.9221,18.0742 C 43.7741,19.247 43.9221,20.5302 44.2881,21.7399 C 44.5811,22.7669 45.0581,23.7929 45.6441,24.8189 C 46.1941,25.8829 46.8541,26.8729 47.4771,27.8989 C 47.8811,28.5229 48.2471,29.1459 48.6141,29.7699 C 48.9801,30.3569 49.3111,30.9429 49.6411,31.5279 C 50.0441,32.1899 50.2271,32.8129 50.3381,33.4359 C 50.4471,34.0219 50.4471,34.6079 50.4471,35.1579 C 50.4101,36.2589 50.1181,37.2849 49.5671,38.1649 C 49.0181,39.0089 48.2471,39.7409 47.1841,40.3649 C 47.1111,40.4009 47.1111,40.4749 47.1841,40.4749 C 47.5141,40.6209 47.8811,40.6939 48.2471,40.5849 C 48.5771,40.5109 48.9071,40.3279 49.2371,40.0709 C 48.8701,40.8779 48.2111,41.4279 47.4041,41.7589 C 46.3771,42.1609 45.1311,42.1979 43.8491,41.9409 C 43.8111,41.9409 43.7741,41.9789 43.7741,42.0509 C 43.8861,42.6009 44.1041,43.1139 44.4351,43.5179 C 44.6541,43.7739 44.9481,43.9939 45.2771,44.1419 C 45.6071,44.2509 46.0121,44.2869 46.4141,44.2139 C 46.9271,44.1049 47.5511,43.8109 48.1751,43.2979 C 48.4681,45.3139 46.8541,46.1939 45.1311,47.1099 C 44.9121,47.2209 44.7281,47.3309 44.5441,47.4039 C 43.9581,47.7709 43.3721,48.3199 43.0421,48.9439 C 42.7481,49.5299 42.6011,50.1899 42.7851,50.8139 C 42.7851,50.8869 42.8581,50.8869 42.8941,50.8509 C 43.2621,50.4829 43.7741,50.2639 44.3241,50.0069 C 45.2051,49.6039 46.1941,49.1269 46.8541,48.0269 C 47.1481,48.5039 47.2581,48.9809 47.1841,49.4199 C 47.1111,49.9699 46.8171,50.4829 46.3771,50.8509 C 45.2051,51.9129 44.2511,52.1699 43.7741,52.3539 C 43.6291,52.3899 43.5181,52.3899 43.4441,52.4269 C 43.1511,52.5719 42.8941,52.7569 42.6011,52.9769 C 42.2721,53.2329 41.9781,53.5259 41.7221,53.7829 C 41.7221,53.7829 41.6851,53.8199 41.6851,53.8199 C 41.5381,54.1129 41.4291,54.4069 41.3921,54.6999 C 41.3551,54.9919 41.4291,55.2859 41.5751,55.5429 C 41.6111,55.5789 41.6481,55.5789 41.6851,55.5789 C 41.9041,55.4339 42.2721,55.3969 42.6381,55.3589 C 42.9321,55.3229 43.2251,55.2859 43.4811,55.2129 C 43.2991,55.7629 42.9681,56.1659 42.6011,56.4959 C 42.1621,56.8259 41.6481,57.1199 41.0991,57.3769 C 40.8051,57.5229 40.4381,57.8899 40.1821,58.3289 C 39.8881,58.8059 39.6691,59.3559 39.5221,59.9419 C 39.3391,60.6029 39.4851,61.2249 39.6321,61.8119 C 39.7421,62.2159 39.8521,62.6179 39.8881,63.0229 C 39.8881,63.5349 39.5591,63.9389 39.0821,64.2319 C 38.4961,64.5989 37.6521,64.8179 36.9191,64.8559 C 37.2851,64.1219 37.1401,63.6079 37.0291,63.0949 C 36.9551,62.8379 36.8831,62.5819 36.8831,62.2879 C 36.8831,62.2519 36.8461,62.2159 36.8101,62.2159 C 36.4781,62.2159 36.1121,62.6549 35.7461,63.0949 C 35.5631,63.3149 35.3791,63.4989 35.1961,63.6819 C 34.6091,64.2319 33.8031,64.2689 33.0691,64.3059 C 32.7761,64.3059 32.4831,64.3059 32.2266,64.3789 C 32.2266,64.3419 32.2266,64.3059 32.2627,64.2319 C 32.4461,63.4619 32.5931,62.9119 32.8501,62.5089 C 32.9591,62.2879 33.1791,62.1059 33.4001,61.9229 C 33.6191,61.7379 33.8761,61.5559 34.0221,61.2989 C 34.0601,61.2989 34.0601,61.2619 34.0221,61.2249 C 33.7291,60.5289 32.7761,60.7119 31.7871,60.8959 C 31.3467,60.9689 30.9063,61.0419 30.5391,61.0419 C 30.503,60.6749 30.503,60.3459 30.5762,60.0889 C 30.6133,59.7599 30.7227,59.5389 30.8702,59.4289 C 31.4932,58.7319 32.4091,58.8789 33.3631,59.0249 C 34.0221,59.0989 34.7201,59.2089 35.3421,59.0249 C 36.0391,58.4769 36.6261,57.8899 37.1401,57.2299 C 37.6151,56.5329 38.0561,55.8359 38.3861,55.0289 C 38.7161,54.0769 38.7891,53.2329 38.6421,52.6089 C 38.5321,52.1699 38.3491,51.8399 38.0921,51.6199 C 38.0921,51.6199 38.0921,51.6569 38.0921,51.6569 C 37.7991,51.3999 37.4331,51.2899 37.0291,51.3269 C 36.4421,51.3629 35.7091,51.6199 34.9021,52.1329 C 35.1591,50.0439 34.4631,49.2739 33.4351,48.1009 C 33.4001,48.0639 33.3261,47.9899 33.2891,47.9179 C 32.9961,47.5869 32.5191,47.0739 32.1524,46.5609 C 31.75,46.0479 31.42,45.5339 31.42,45.2039 C 31.42,45.1309 31.42,45.0209 31.42,44.9469 C 31.3829,43.4439 31.3829,42.4549 31.9327,41.4279 C 32.1524,40.9869 32.4091,40.5849 32.6661,40.1809 C 32.9231,39.7409 33.1791,39.3389 33.3631,38.9719 C 33.6561,38.4219 33.7661,37.9449 33.4001,37.7249 C 33.6561,37.2109 33.5101,36.8089 32.9961,36.4789 C 32.4831,36.1109 31.6026,35.8559 30.4659,35.5989 C 29.294,35.3789 28.4873,35.1949 27.7168,34.9759 C 26.9834,34.7559 26.3604,34.4629 25.7002,34.0959 C 25.0411,33.6909 24.3077,33.1069 23.7207,32.4819 C 23.1709,31.9699 22.7676,31.4189 22.6211,30.9799 C 23.2813,30.7229 23.8311,30.3929 24.2344,29.9519 C 24.2705,29.9159 24.2344,29.8429 24.1973,29.8429 C 22.6573,29.9159 21.2276,29.0359 19.9815,28.3029 C 19.0645,27.7889 18.2579,27.3139 17.6348,27.3139 C 17.1582,27.3139 16.6817,27.3869 16.3155,27.5329 C 15.9483,27.6799 15.6553,27.8989 15.4356,28.2299 C 15.4356,28.2669 15.4717,28.3389 15.5088,28.3389 C 16.6446,28.1189 17.2686,28.6329 17.9278,29.2199 C 18.4414,29.6589 18.9912,30.1369 19.9082,30.3929 C 18.918,30.9059 18.1485,31.0529 17.4512,30.9799 C 16.7188,30.8689 16.0215,30.4659 15.1416,29.9889 C 14.4815,29.6229 13.7852,29.2559 13.0889,29.1459 C 12.4287,28.9999 11.7696,29.1089 11.1827,29.6229 C 11.1084,29.6589 11.1455,29.7319 11.1827,29.7319 C 11.7325,29.9159 12.209,30.1729 12.5752,30.4659 C 12.9053,30.7589 13.1621,31.0889 13.3086,31.4929 C 12.6123,31.2729 11.9161,31.0529 11.2559,30.9059 C 10.5596,30.7229 9.8995,30.6129 9.2764,30.6129 C 8.542,30.6129 7.8457,30.8689 7.1133,31.1259 C 6.8194,31.2359 6.4893,31.3089 6.1963,31.4189 C 4.583,31.8219 4.1065,32.1899 3.5928,32.5199 C 3.4834,32.6289 3.337,32.7389 3.1534,32.8499 C 3.043,32.8859 2.8604,32.9589 2.6768,32.9959 C 2.3838,33.1069 2.0166,33.1789 1.6866,33.4729 C 1.6504,33.3619 1.6504,33.2159 1.6133,33.1069 C 1.5772,32.5199 1.6504,31.9329 1.9434,31.4929 C 2.2002,31.0529 2.7129,30.6869 3.4463,30.5389 C 3.5928,30.5019 3.7764,30.5019 3.9229,30.4659 C 3.9971,30.4659 4.0332,30.3929 3.96,30.3569 C 3.1162,29.3649 2.6397,29.5499 1.7598,29.8799 C 1.5772,29.9519 1.3204,30.0629 1.0635,30.1369 C 0.9532,30.1729 0.8438,30.2819 0.7705,30.4299 C 0.6973,30.5759 0.6231,30.7229 0.587,30.8689 C 0,29.5499 0.5137,28.8899 1.3204,28.5599 C 2.2002,28.2299 3.4102,28.2299 4.0332,28.2299 C 4.0704,28.2299 4.1065,28.1929 4.1065,28.1189 C 3.8868,27.7169 3.667,27.4599 3.4463,27.3139 C 3.1905,27.1669 2.8965,27.1299 2.4932,27.0929 C 2.42,27.0929 2.3467,27.0569 2.2735,27.0569 C 2.0899,26.9819 1.834,26.9459 1.5772,27.0199 C 1.6133,26.6169 1.7237,26.2869 1.9073,26.0659 C 2.0899,25.8469 2.3467,25.7359 2.7129,25.7359 C 3.5928,25.7729 4.3262,26.1759 5.0967,26.6169 C 5.9395,27.0929 6.8194,27.5689 7.9932,27.5689 C 8.9092,27.5329 9.7159,27.3499 10.4854,27.0199 C 11.2559,26.6899 11.9883,26.2869 12.7217,25.7729 C 13.0528,25.5539 13.3086,25.3699 13.6016,25.1869 C 14.6651,24.4169 15.6914,23.7199 16.6446,23.4279 C 16.9014,23.6839 17.3047,23.7929 17.8184,23.8299 C 18.3311,23.8299 18.9912,23.7199 19.7618,23.4999 C 19.9444,23.4279 20.128,23.3909 20.3116,23.3539 C 21.1914,23.1339 22.0342,22.9129 22.4746,22.5469 C 22.9873,22.1439 23.3907,21.7399 23.6846,21.2646 C 23.9405,20.8232 24.1241,20.3476 24.2344,19.7607 C 24.2344,19.7236 24.1241,19.6865 24.0879,19.7236 C 23.0977,20.8232 22.2549,21.0078 21.4844,21.1533 C 21.0811,21.2275 20.6778,21.3369 20.2745,21.5569 C 19.4678,22.1069 18.7344,22.5109 18.1485,22.7309 C 17.5987,22.9499 17.1582,23.0229 16.8282,22.9499 C 16.9746,22.1439 17.2686,21.3739 17.708,20.7871 C 18.1485,20.1279 18.7344,19.6513 19.3946,19.3574 C 20.1641,18.9902 21.0079,18.6972 21.7774,18.4404 C 23.501,17.8535 24.9678,17.3779 25.1875,16.3515 C 25.1875,16.3144 25.1504,16.2402 25.1143,16.2773 C 23.6846,16.7177 22.8409,16.7177 21.961,16.7177 C 21.5577,16.7177 21.1182,16.7177 20.6416,16.791 C 20.7149,16.3877 21.0079,16.0576 21.5215,15.7275 C 22.0342,15.3974 22.8047,15.1416 23.6104,14.8476 C 23.9043,14.7382 24.2344,14.664 24.5645,14.5546 C 25.5537,14.2617 26.7276,13.9316 27.3135,13.3076 C 27.5704,13.0878 27.6807,12.7949 27.7168,12.538 C 27.753,12.3916 27.753,12.2451 27.7168,12.0986 C 27.6807,11.9882 27.6075,11.8418 27.4961,11.7685 C 27.3877,11.6582 27.2764,11.5849 27.0938,11.5849 C 26.8008,11.5488 26.3243,11.6582 25.8106,11.915 C 25.334,12.1718 24.7842,12.538 24.2344,12.9785 C 23.4639,12.538 22.878,12.0615 22.5108,11.5488 C 22.2178,11.0712 22.1075,10.5947 22.2911,10.1552 C 24.3809,10.4482 25.7002,10.4853 26.5069,10.2656 C 27.3877,10.0087 27.7168,9.5312 27.8272,8.7617 C 27.9004,8.2851 27.7168,7.8457 27.3506,7.4052 C 27.0938,7.1484 26.8008,6.9287 26.4336,6.7451 C 26.1036,6.5625 25.6641,6.416 25.2237,6.3427 C 23.9776,6.122 22.4375,6.4521 21.0811,7.6621 C 20.7149,7.5156 20.4942,7.2949 20.3477,7.0752 C 20.2383,6.8925 20.2012,6.6728 20.2012,6.4521 C 20.2383,6.2324 20.3116,6.0117 20.458,5.8662 C 20.6416,5.6093 20.8975,5.4257 21.2276,5.3525 C 21.3008,5.3164 21.3008,5.206 21.2276,5.206 C 21.0811,5.1689 20.9707,5.1689 20.8614,5.1689 C 20.4209,5.0966 20.128,5.0595 19.9444,4.9492 C 19.835,4.8759 19.835,4.7656 19.9444,4.582 C 19.9444,4.582 20.2745,3.9589 20.2745,3.9589 C 21.8145,3.5566 22.8409,3.372 23.6475,3.4091 C 24.417,3.4834 24.9307,3.7763 25.4073,4.3623 C 25.4444,4.3994 25.4805,4.3994 25.5176,4.3994 C 25.9209,4.0693 26.4707,3.8857 26.9834,3.7392 C 27.6807,3.4834 28.3037,3.2988 28.5596,2.8222 C 28.5967,2.7861 28.5596,2.7128 28.5235,2.7128 C 27.6807,2.8222 26.9473,2.8593 26.2871,2.8964 C 25.627,2.8964 25.1143,2.8593 24.6739,2.7861 C 24.2705,2.7128 23.9776,2.4921 23.8311,2.2724 C 23.7579,2.1259 23.7207,2.0166 23.7207,1.8691 C 23.7207,1.7597 23.794,1.6123 23.8672,1.5029 C 24.0137,1.2832 24.3077,1.0996 24.711,1.0625 C 25.0772,0.9892 25.5176,1.0263 26.0303,1.0625 C 26.544,1.1357 27.1309,1.246 27.753,1.3564 C 27.7901,1.3564 27.8272,1.3564 27.8272,1.3564 C 29.6963,0 30.9063,0.3291 32.3361,0.7334 C 33.4001,1.0263 34.6461,1.3564 36.3691,1.1357 C 36.3691,1.1357 36.3331,1.1728 36.2961,1.2089 z"
       id="path122" />
  </g>
  <g
     transform="matrix(1.3917784,0,0,1.3917784,58.475013,81.360574)"
     style="fill:#f4c03f;fill-rule:evenodd;stroke:none;stroke-width:1;stroke-linecap:butt;stroke-linejoin:miter;stroke-dasharray:none"
     id="g124">
    <path
       d="M 0.7695,1.6132 C 1.0264,1.6494 1.1729,1.7597 1.3193,1.8691 C 1.3926,1.9423 1.4658,1.9795 1.5029,2.0166 C 1.833,2.1259 2.1631,2.3095 2.4199,2.5664 C 2.6397,2.7861 2.8233,3.08 2.9697,3.4091 C 2.9697,3.4824 2.9326,3.5195 2.8965,3.5195 C 2.5293,3.5556 2.2363,3.373 1.9063,3.1533 C 1.4297,2.8593 0.916,2.5293 0,2.8593 C 1.0996,5.206 1.9063,5.3525 3.8858,5.6826 C 4.3262,5.7929 4.876,5.8662 5.499,6.0127 C 6.2324,6.1591 6.8193,6.416 7.2588,6.7822 C 7.5518,7.0019 7.7725,7.2587 7.8818,7.5517 C 7.9922,7.8457 8.0293,8.1757 7.9551,8.5048 C 7.8818,8.872 7.6983,9.2021 7.4053,9.6054 C 7.9922,9.6054 8.6885,9.4218 9.3125,9.2392 C 10.1924,9.0185 10.9619,8.8359 11.4385,9.0556 C 11.4746,9.0918 11.4746,9.165 11.4385,9.2021 C 10.9619,9.3486 10.7051,9.5693 10.3389,9.8984 C 9.8613,10.3388 9.2022,10.9257 7.6621,11.6953 C 8.2119,11.9521 8.7256,12.0244 9.2754,11.9892 C 9.8613,11.9521 10.4483,11.7324 11.0713,11.4013 C 11.1455,11.3652 11.2549,11.291 11.4014,11.2187 C 12.0986,10.7783 13.3447,9.9716 14.2246,10.6318 C 14.2617,10.6679 14.2246,10.7783 14.1514,10.7783 C 13.1983,10.7412 12.7217,11.3281 12.1719,12.0244 C 11.7686,12.5742 11.292,13.1611 10.4854,13.6377 C 12.0986,13.8584 13.3086,13.6015 14.2246,13.0517 C 15.1777,12.4648 15.874,11.5849 16.4981,10.6318 C 17.0479,9.7519 17.5606,9.3125 17.9639,8.9453 C 18.1475,8.7988 18.294,8.6523 18.4043,8.542 C 17.8174,8.3955 17.1211,8.3955 16.4609,8.3584 C 15.8008,8.3584 15.1777,8.3222 14.5918,8.249 C 13.8945,8.1025 13.2344,7.956 12.6484,7.7353 C 12.0254,7.5156 11.4746,7.2226 10.9619,6.8925 C 9.9717,6.2324 9.2754,5.5722 8.7627,4.9492 C 8.2119,4.3261 7.8818,3.7031 7.6621,3.1533 C 7.5518,2.9326 7.4785,2.7129 7.4053,2.5293 C 6.8926,1.2461 6.3789,0 4.5098,0.2197 C 4.8027,0.6962 5.0225,1.1367 5.2061,1.54 C 5.4258,2.0166 5.5361,2.4189 5.5723,2.8232 C 5.5723,2.8964 5.4629,2.9326 5.4258,2.8593 C 4.9492,1.9423 4.2891,1.1728 3.6299,0.8056 C 3.2998,0.623 2.9697,0.5127 2.6758,0.4765 C 2.3457,0.4765 2.0166,0.5127 1.7227,0.6962 C 1.3926,0.8798 1.0635,1.1367 0.7695,1.6132 z"
       id="path126" />
  </g>
  <g
     transform="matrix(1.3917784,0,0,1.3917784,67.760819,121.4154)"
     style="fill:#f4c03f;fill-rule:evenodd;stroke:none;stroke-width:1;stroke-linecap:butt;stroke-linejoin:miter;stroke-dasharray:none"
     id="g128">
    <path
       d="M 1.0264,11.329 C 1.1738,11.329 1.3574,11.292 1.54,11.292 C 1.6865,11.292 1.7969,11.256 1.9062,11.256 C 2.6767,11.109 3.2265,11.072 3.5937,11.218 C 3.9599,11.329 4.1797,11.622 4.2168,12.062 C 4.2168,12.098 4.1797,12.172 4.1435,12.172 C 3.8506,12.172 3.5566,12.135 3.2637,12.135 C 2.5664,12.098 1.9062,12.098 1.4668,12.319 C 1.0264,12.502 0.7334,12.796 0.4775,13.089 C 0.2207,13.455 0.0742,13.858 0.0371,14.189 C 0,14.335 0.0371,14.518 0.1103,14.739 C 0.1474,14.959 0.2207,15.178 0.2939,15.361 C 0.7705,14.665 1.3203,14.225 1.9062,13.932 C 2.5664,13.638 3.2637,13.602 3.9971,13.785 C 4.0693,13.785 4.0693,13.858 3.9971,13.895 C 3.5566,14.152 2.8965,14.629 2.4199,15.252 C 2.0908,15.691 1.7969,16.168 1.7236,16.645 C 2.3096,16.535 2.8603,16.645 3.373,16.717 C 3.9971,16.828 4.5469,16.937 4.9131,16.608 C 5.0234,16.498 5.206,16.278 5.3896,16.021 C 5.6826,15.655 6.0859,15.178 6.4531,14.811 C 6.6367,14.665 6.8193,14.518 6.9658,14.445 C 7.1494,14.372 7.333,14.335 7.4795,14.298 C 9.0928,14.225 10.376,14.225 11.292,14.372 C 12.1357,14.518 12.7588,14.739 13.0889,15.032 C 13.0889,14.739 12.9785,14.445 12.7588,14.189 C 12.4658,13.858 11.9892,13.528 11.3291,13.235 C 11.292,13.198 11.292,13.126 11.3291,13.089 C 12.5752,12.428 13.8955,12.832 15.2158,13.272 C 16.7549,13.785 18.2578,14.261 19.6885,13.015 C 19.1387,12.978 18.6982,12.685 18.2578,12.319 C 17.6347,11.841 16.9385,11.292 15.7656,11.439 C 15.7285,11.439 15.6914,11.365 15.6914,11.329 C 15.9121,10.925 16.2422,10.632 16.6455,10.413 C 17.1221,10.156 17.6719,10.046 18.1484,10.046 C 18.8086,10.046 19.3945,10.228 19.9443,10.413 C 20.6406,10.632 21.2646,10.815 21.9971,10.742 C 21.2275,9.496 21.1172,8.25 21.4111,7.002 C 21.7051,5.793 22.4004,4.583 23.207,3.373 C 22.6572,3.189 22.0342,3.262 21.375,3.592 C 20.7148,3.923 19.9443,4.509 19.1387,5.316 C 19.1015,5.389 19.0283,5.316 19.0283,5.243 C 19.3213,4.289 19.7246,3.519 20.2383,2.969 C 20.6406,2.456 21.1172,2.126 21.7051,1.87 C 20.9707,1.833 20.164,1.87 19.3213,2.09 C 18.332,2.31 17.3047,2.75 16.2422,3.41 C 16.1689,3.41 16.1318,3.373 16.1318,3.337 C 16.2051,2.713 16.5351,2.236 17.0117,1.87 C 17.4883,1.541 18.0752,1.247 18.625,0.99 C 19.0283,0.843 19.3213,0.624 19.5771,0.403 C 19.7978,0.256 19.9814,0.147 20.164,0.037 C 19.6514,0 19.0283,0.11 18.332,0.219 C 17.8183,0.293 17.2685,0.403 16.6455,0.44 C 16.3154,0.477 15.9853,0.477 15.6553,0.512 C 15.1055,0.512 14.5185,0.549 13.9687,0.624 C 13.125,0.806 12.3926,1.211 11.8789,1.797 C 11.4394,2.31 11.2187,3.006 11.292,3.886 C 11.3652,4.729 11.7685,5.352 12.1357,5.976 C 12.6123,6.709 13.0889,7.443 13.0156,8.615 C 12.9424,9.715 12.3193,10.376 11.4756,10.742 C 10.6689,11.109 9.6426,11.182 8.7627,11.182 C 8.249,11.182 7.7363,11.145 7.2959,11.109 C 6.8564,11.035 6.4531,10.925 6.1601,10.815 C 5.8301,10.669 5.5361,10.522 5.2431,10.339 C 4.7666,10.082 4.29,9.789 3.6299,9.715 C 3.043,9.678 2.4199,9.789 1.9433,10.119 C 1.54,10.413 1.2099,10.815 1.0264,11.329 z"
       id="path130" />
  </g>
  <g
     transform="matrix(1.3917784,0,0,1.3917784,77.405426,82.279287)"
     style="fill:#f4c03f;fill-rule:evenodd;stroke:none;stroke-width:1;stroke-linecap:butt;stroke-linejoin:miter;stroke-dasharray:none"
     id="g132">
    <path
       d="M 0,0.5498 C 0.1826,1.0996 0.5498,1.5391 1.0625,1.833 C 1.6865,2.2363 2.4931,2.4561 3.2627,2.4561 C 4.0322,2.4199 4.8759,2.0899 5.8291,1.6865 C 7.1855,1.0996 8.6884,0.4395 10.5586,0.5127 C 8.3955,0 6.6357,0.4766 5.1689,0.8799 C 4.4355,1.0996 3.7763,1.2822 3.1894,1.2822 C 2.3828,1.3194 1.7226,1.2461 1.2099,1.0996 C 0.6963,0.9531 0.33,0.7695 0,0.5498 z"
       id="path134" />
  </g>
  <g
     transform="matrix(1.3917784,0,0,1.3917784,102.3049,127.33603)"
     style="fill:#008054;fill-rule:evenodd;stroke:none;stroke-width:1;stroke-linecap:butt;stroke-linejoin:miter;stroke-dasharray:none"
     id="g136">
    <path
       d="M 1.54,0.035 C 1.576,0 1.651,0.035 1.651,0.109 C 1.503,0.622 1.394,1.135 1.321,1.685 C 1.246,2.198 1.246,2.748 1.246,3.298 C 1.283,4.361 1.613,5.058 1.944,5.754 C 2.347,6.598 2.713,7.405 2.457,8.761 C 2.457,8.798 2.347,8.835 2.31,8.761 C 1.907,7.772 1.467,7.111 1.1,6.524 C 0.624,5.754 0.22,5.168 0.074,4.178 C 0,3.665 0.111,2.822 0.404,1.978 C 0.661,1.246 1.064,0.548 1.54,0.035 z"
       id="path138" />
  </g>
  <g
     transform="matrix(1.3917784,0,0,1.3917784,94.856935,117.43491)"
     style="fill:#008054;fill-rule:evenodd;stroke:none;stroke-width:1;stroke-linecap:butt;stroke-linejoin:miter;stroke-dasharray:none"
     id="g140">
    <path
       d="M 0.0733,0.404 C 0.4395,0.844 1.0254,1.174 1.6123,1.394 C 2.2715,1.651 3.042,1.76 3.7383,1.724 C 5.3514,1.651 6.1584,1.027 6.9274,0.441 C 7.0754,0.33 7.2214,0.22 7.3684,0.147 C 7.4044,0.11 7.3684,0 7.2954,0 C 6.0124,0.33 4.7647,0.513 3.5186,0.55 C 2.3086,0.587 1.209,0.513 0.1455,0.294 C 0.0733,0.294 0,0.367 0.0733,0.404 z"
       id="path142" />
  </g>
  <g
     transform="matrix(1.3917784,0,0,1.3917784,90.570258,114.0682)"
     style="fill:#008054;fill-rule:evenodd;stroke:none;stroke-width:1;stroke-linecap:butt;stroke-linejoin:miter;stroke-dasharray:none"
     id="g144">
    <path
       d="M 0.0361,0.915 C 0.4765,1.32 1.0625,1.614 1.7226,1.832 C 2.3828,2.052 3.08,2.162 3.8125,2.162 C 4.6191,2.126 5.4257,1.907 6.122,1.577 C 6.8183,1.209 7.4052,0.696 7.7353,0.146 C 7.7714,0.074 7.6992,0 7.625,0.036 C 7.0752,0.403 6.3427,0.696 5.6084,0.88 C 4.8388,1.1 4.0693,1.246 3.2998,1.283 C 2.75,1.32 2.1992,1.283 1.6494,1.209 C 1.1367,1.136 0.623,0.99 0.1464,0.77 C 0.0732,0.77 0,0.843 0.0361,0.915 z"
       id="path146" />
  </g>
  <g
     transform="matrix(1.3917784,0,0,1.3917784,86.283441,108.04737)"
     style="fill:#008054;fill-rule:evenodd;stroke:none;stroke-width:1;stroke-linecap:butt;stroke-linejoin:miter;stroke-dasharray:none"
     id="g148">
    <path
       d="M 0.0732,0.843 C 0.5869,0.843 1.0635,1.209 1.5771,1.612 C 2.4931,2.273 3.5195,3.078 5.2793,2.456 C 5.3164,2.419 5.3164,2.346 5.2793,2.309 C 4.7666,2.126 4.29,1.796 3.8135,1.502 C 2.75,0.77 1.6504,0 0.0371,0.695 C 0,0.733 0,0.843 0.0732,0.843 z"
       id="path150" />
  </g>
  <g
     transform="matrix(1.3917784,0,0,1.3917784,93.734327,98.555301)"
     style="fill:#008054;fill-rule:evenodd;stroke:none;stroke-width:1;stroke-linecap:butt;stroke-linejoin:miter;stroke-dasharray:none"
     id="g152">
    <path
       d="M 0.1465,7.2231 C 1.0625,6.4531 1.9062,6.3441 2.6758,6.2331 C 3.2627,6.1591 3.7754,6.1241 4.3252,5.8301 C 5.4258,5.2431 6.158,4.5101 6.452,3.5561 C 6.708,2.6401 6.525,1.4667 5.719,0.0742 C 5.6816,0 5.5713,0.0742 5.5713,0.1474 C 5.791,0.8437 5.755,1.541 5.5351,2.1631 C 5.2783,2.8241 4.8018,3.4461 4.1787,3.8491 C 3.7021,4.1811 3.1885,4.4361 2.6758,4.7301 C 1.4658,5.3901 0.293,5.9761 0,7.1501 C 0,7.2231 0.0723,7.2601 0.1465,7.2231 z"
       id="path154" />
  </g>
  <g
     transform="matrix(1.3917784,0,0,1.3917784,86.131181,98.453283)"
     style="fill:#008054;fill-rule:evenodd;stroke:none;stroke-width:1;stroke-linecap:butt;stroke-linejoin:miter;stroke-dasharray:none"
     id="g156">
    <path
       d="M 0.2559,6.0864 C 1.209,5.6104 2.0166,5.5364 2.8223,5.4254 C 3.5557,5.3534 4.3262,5.2434 5.2061,4.8764 C 6.0859,4.4734 6.8926,3.8124 7.2949,2.8974 C 7.626,2.1274 7.6621,1.1738 7.2217,0.0371 C 7.2217,0 7.1123,0 7.1123,0.0371 C 6.2695,2.0534 5.1328,2.5664 3.6289,3.1904 C 3.2256,3.3374 2.8223,3.5194 2.3828,3.7404 C 1.6865,4.0694 0.9893,4.5094 0.5498,4.9494 C 0.1826,5.3164 0,5.6824 0.1465,6.0494 C 0.1465,6.0864 0.2197,6.1234 0.2559,6.0864 z"
       id="path158" />
  </g>
</svg>
