<?xml version="1.0" encoding="utf-8"?>
<!-- Generator: Adobe Illustrator 12.0.0, SVG Export Plug-In . SVG Version: 6.00 Build 51448)  -->
<!DOCTYPE svg PUBLIC "-//W3C//DTD SVG 1.1//EN" "http://www.w3.org/Graphics/SVG/1.1/DTD/svg11.dtd" [
	<!ENTITY ns_svg "http://www.w3.org/2000/svg">
	<!ENTITY ns_xlink "http://www.w3.org/1999/xlink">
]>
<svg  version="1.1" id="Layer_1" xmlns="&ns_svg;" xmlns:xlink="&ns_xlink;" width="201.011" height="300.426"
	 viewBox="0 0 201.011 300.426" overflow="visible" enable-background="new 0 0 201.011 300.426" xml:space="preserve">
<g>
	<g>
		<g>
			<g>
				<path fill-rule="evenodd" clip-rule="evenodd" fill="#FFD200" d="M19.823,103.428c0,3.356,0.644,6.59,2.074,9.264
					c3.516-3.639,6.938-11.328,6.938-18.383c0-3.33-0.805-6.482-2.677-9.006C22.689,88.441,19.823,96.134,19.823,103.428z"/>
				<path fill="#120C16" d="M26.251,84.426c-3.956,3.076-6.982,11.249-6.987,18.905c-0.002,3.366,0.579,6.632,1.922,9.321l0,0
					c0.005,0.011,0.011,0.022,0.016,0.032l0,0c0.171,0.341,0.354,0.671,0.549,0.992c0.267-0.244,0.534-0.512,0.8-0.803l0,0
					c0.008-0.009,0.017-0.019,0.025-0.028l0,0c3.491-3.835,6.79-11.512,6.796-18.552C29.377,90.618,28.483,87.116,26.251,84.426
					L26.251,84.426z M22.019,111.767c-1.68-3.642-2.084-8.647-1.096-14.015c0.9-4.887,2.872-9.29,5.162-11.651
					c2.978,4.503,2.235,10.536,1.48,13.869C26.538,104.492,24.388,109.014,22.019,111.767L22.019,111.767z"/>
			</g>
			<g>
				<path fill-rule="evenodd" clip-rule="evenodd" fill="#FFD200" d="M172.334,94.031c0,5.202,1.159,10.486,3.343,14.149
					c1.302,2.185,2.889,3.526,4.602,4.009c0.462-2.815,0.736-5.708,0.736-8.526c0-8.18-2.154-15.627-7.423-18.383
					C172.757,87.941,172.334,90.963,172.334,94.031z"/>
				<path fill="#120C16" d="M173.251,84.426c-0.996,2.854-1.467,6.167-1.47,9.504c-0.009,8.355,2.913,16.864,7.869,18.705l0,0
					c0.002,0,0.003,0.001,0.005,0.001l0,0c0.354,0.132,0.72,0.229,1.096,0.29c0.533-3.032,0.834-6.212,0.833-9.314
					C181.583,95.037,179.282,87.056,173.251,84.426L173.251,84.426z M179.838,111.488c-1.663-0.708-2.892-2.282-3.675-3.597
					c-1.651-2.77-2.76-6.668-3.124-10.975c-0.326-3.864-0.011-7.664,0.889-10.859C180.144,89.907,181.411,101.174,179.838,111.488
					L179.838,111.488z"/>
			</g>
			<g>
				<path fill-rule="evenodd" clip-rule="evenodd" fill="#FFD200" d="M10.617,116.586c0,6.26,2.232,11.134,6.226,13.438
					c0.329-1.543,0.527-3.139,0.527-4.732c0-5.718-2.146-11.218-6.404-13.035C10.747,113.753,10.617,115.208,10.617,116.586z"/>
				<path fill="#120C16" d="M10.501,111.426c-0.292,1.725-0.441,3.431-0.443,5.08c-0.006,6,1.95,11.242,6.163,13.856l0,0
					c0.012,0.007,0.022,0.014,0.034,0.021l0,0c0.319,0.196,0.651,0.377,0.996,0.543c0.092-0.366,0.175-0.735,0.249-1.106l0,0
					c0.002-0.011,0.004-0.021,0.006-0.033l0,0c0.293-1.489,0.44-3.013,0.442-4.518C17.956,118.958,15.414,112.996,10.501,111.426
					L10.501,111.426z M16.467,129.167c-1.995-1.37-3.492-3.507-4.367-6.262c-0.903-2.842-1.137-6.226-0.69-9.859
					C15.925,115.528,17.596,122.778,16.467,129.167L16.467,129.167z"/>
			</g>
			<g>
				<path fill-rule="evenodd" clip-rule="evenodd" fill="#FFD200" d="M183.496,124.98c0,1.74,0.414,3.422,1.205,4.97
					c2.921-2.505,5.187-6.646,5.68-10.644c0.061-0.492,0.101-1.036,0.101-1.611c0-1.69-0.391-3.646-1.59-5.399
					C186.311,114.643,183.496,119.92,183.496,124.98z"/>
				<path fill="#120C16" d="M189.001,111.426c-2.98,2.325-6.073,8.11-6.063,13.57c0.003,1.71,0.311,3.388,1.021,4.917l0,0
					c0.002,0.005,0.004,0.009,0.006,0.014l0,0c0.159,0.34,0.338,0.673,0.537,0.998c0.295-0.224,0.586-0.466,0.871-0.726l0,0
					c0.004-0.003,0.007-0.006,0.01-0.009l0,0c3.188-2.902,5.668-7.898,5.667-12.504
					C191.049,115.404,190.438,113.216,189.001,111.426L189.001,111.426z M184.853,129.134c-1.359-3.234-0.65-6.844-0.05-8.84
					c0.843-2.795,2.351-5.468,3.994-7.159c1.188,2.081,1.23,4.41,1.021,6.103C189.377,122.813,187.399,126.691,184.853,129.134
					L184.853,129.134z"/>
			</g>
			<g>
				<path fill-rule="evenodd" clip-rule="evenodd" fill="#FFD200" d="M173.79,120.167c0,6.856,2.597,12.96,5.856,16.337
					c0.411-1.928,0.647-3.837,0.647-5.677c0-6.863-2.615-12.816-5.922-16.017C174.003,116.619,173.79,118.418,173.79,120.167z"/>
				<path fill="#120C16" d="M174.001,113.676c-0.528,2.157-0.772,4.337-0.773,6.471c-0.006,6.69,2.372,12.931,5.828,16.611l0,0
					c0.043,0.045,0.084,0.089,0.127,0.134l0,0c0.267,0.277,0.54,0.539,0.818,0.785c0.094-0.368,0.179-0.736,0.257-1.104l0,0
					c0.012-0.057,0.023-0.114,0.035-0.17l0,0c0.374-1.839,0.551-3.683,0.554-5.488C180.858,123.65,178.059,116.997,174.001,113.676
					L174.001,113.676z M179.331,135.364c-1.756-2.089-3.159-4.897-4.031-8.108c-1.01-3.723-1.211-7.604-0.6-11.338
					c1.808,2.025,3.24,4.818,4.113,8.064C179.795,127.631,179.97,131.603,179.331,135.364L179.331,135.364z"/>
			</g>
			<g>
				<path fill-rule="evenodd" clip-rule="evenodd" fill="#FFD200" d="M20.639,130.583c0,2.077,0.376,4.09,1.201,5.928
					c2.493-3.807,5.502-9.98,5.502-15.282c0-2.172-0.549-4.17-1.805-5.812C23.095,119.179,20.639,125.053,20.639,130.583z"/>
				<path fill="#120C16" d="M25.501,114.426c-2.427,3.494-5.448,9.992-5.438,16.188c0.003,2.034,0.333,4.035,1.117,5.887l0,0
					c0.022,0.053,0.045,0.105,0.068,0.158l0,0c0.151,0.344,0.318,0.683,0.502,1.016c0.199-0.285,0.412-0.6,0.632-0.941l0,0
					c0.029-0.044,0.058-0.089,0.086-0.135l0,0c2.29-3.572,5.464-9.868,5.457-15.388C27.923,118.672,27.247,116.297,25.501,114.426
					L25.501,114.426z M21.94,135.315c-1.192-3.462-0.735-7.255-0.063-10.011c0.961-3.934,2.617-7.108,3.701-8.906
					C28.72,121.587,25.125,130.135,21.94,135.315L21.94,135.315z"/>
			</g>
			<g>
				<path fill-rule="evenodd" clip-rule="evenodd" fill="#FFD200" d="M4.151,129.75c0,5.672,1.541,10.663,4.387,14.011
					c1.818,2.139,4.072,3.385,6.534,3.727c-1.259-8.719-3.57-17.001-10.798-20.168C4.213,128.137,4.151,128.956,4.151,129.75z"/>
				<path fill="#120C16" d="M3.751,126.426c-0.112,1.124-0.167,2.224-0.167,3.295c0,9.778,4.53,17.154,11.003,18.315l0,0
					c0.012,0.002,0.025,0.004,0.038,0.006l0,0c0.37,0.065,0.745,0.11,1.126,0.133C14.39,138.287,11.962,129.465,3.751,126.426
					L3.751,126.426z M14.414,146.843c-2.039-0.458-3.9-1.633-5.445-3.449c-1.552-1.825-2.749-4.272-3.463-7.077
					c-0.649-2.548-0.899-5.306-0.746-8.218c2.8,1.412,4.947,3.753,6.534,7.117C12.976,138.779,13.854,143.139,14.414,146.843
					L14.414,146.843z"/>
			</g>
			<g>
				<path fill-rule="evenodd" clip-rule="evenodd" fill="#FFD200" d="M185.915,147.456c3.319-0.509,6.34-2.636,8.344-6.051
					c1.531-2.61,2.311-5.571,2.311-8.473c0-1.924-0.403-3.799-1.097-5.552C190.109,131.482,186.895,138.225,185.915,147.456z"/>
				<path fill="#120C16" d="M195.751,126.426c-6.304,4.445-9.603,11.897-10.5,21.75c0.381-0.03,0.756-0.08,1.124-0.149l0,0
					c0.01-0.002,0.02-0.003,0.029-0.005l0,0c6.366-1.213,10.713-8.118,10.722-15.103
					C197.129,130.703,196.695,128.479,195.751,126.426L195.751,126.426z M186.531,146.834c0.508-4.26,1.504-7.98,2.968-11.077
					c1.437-3.041,3.367-5.565,5.75-7.523c0.618,1.844,0.856,3.866,0.693,5.925c-0.195,2.463-0.947,4.87-2.173,6.959
					C191.994,144.144,189.408,146.168,186.531,146.834L186.531,146.834z"/>
			</g>
			<g>
				<path fill-rule="evenodd" clip-rule="evenodd" fill="#FFD200" d="M18.323,156.407c0,1.2,0.09,2.466,0.204,3.749
					c2.41-0.651,4.557-2.891,5.936-6.393c0.847-2.151,1.358-4.742,1.358-7.275c0-2.601-0.58-5.106-1.846-7.045
					C20.199,144.183,18.323,149.648,18.323,156.407z"/>
				<path fill="#120C16" d="M24.001,138.426c-3.706,4.384-6.252,9.927-6.244,18.025c0.001,1.069,0.046,2.183,0.14,3.344l0,0
					c0,0.001,0,0.001,0,0.002l0,0c0.03,0.371,0.064,0.748,0.104,1.13c0.377-0.057,0.745-0.147,1.102-0.271l0,0
					c0.004-0.001,0.007-0.002,0.011-0.003l0,0c4.442-1.547,7.289-8.112,7.283-14.147C26.394,143.43,25.65,140.492,24.001,138.426
					L24.001,138.426z M19.009,159.478c-0.329-4.332,0.011-8.112,1.032-11.523c0.823-2.749,2.095-5.25,3.873-7.605
					c1.982,3.684,1.591,9.216,0.021,13.206C22.745,156.577,20.992,158.667,19.009,159.478L19.009,159.478z"/>
			</g>
			<g>
				<path fill-rule="evenodd" clip-rule="evenodd" fill="#FFD200" d="M175.29,145.524c0,6.826,2.306,12.962,7.172,14.597
					c0.065-1.207,0.12-2.396,0.12-3.499c0-8.93-2.176-14.461-6.661-17.252C175.525,141.411,175.29,143.493,175.29,145.524z"/>
				<path fill="#120C16" d="M175.501,138.426c-0.508,2.305-0.78,4.749-0.782,7.147c-0.005,6.72,2.117,13.082,7.167,15.012l0,0
					c0.011,0.004,0.021,0.008,0.03,0.012l0,0c0.348,0.131,0.71,0.241,1.085,0.33c0.024-0.381,0.046-0.758,0.064-1.133l0,0
					c0.001-0.006,0.001-0.014,0.001-0.02l0,0c0.053-1.058,0.08-2.089,0.08-3.095C183.147,148.045,181.143,141.417,175.501,138.426
					L175.501,138.426z M181.95,159.384c-3.086-1.365-4.577-4.601-5.293-7.236c-0.939-3.457-1.06-7.714-0.357-11.89
					c2.134,1.557,3.637,3.872,4.573,7.031C181.816,150.466,182.171,154.433,181.95,159.384L181.95,159.384z"/>
			</g>
			<g>
				<path fill-rule="evenodd" clip-rule="evenodd" fill="#FFD200" d="M14.326,172.669c-1.03-12.574-5.419-19.438-13.731-21.478
					C0.73,161.174,5.132,168.033,14.326,172.669z"/>
				<path fill="#120C16" d="M0.001,150.426C0,150.505,0,150.585,0,150.665c0,0.301,0.003,0.599,0.01,0.896l0,0
					c0,0.009,0,0.018,0.001,0.027l0,0c0.228,9.267,4.173,16.568,13.814,21.511l0,0c0.052,0.026,0.105,0.054,0.158,0.08l0,0
					c0.333,0.169,0.672,0.335,1.019,0.498C14.223,161.703,10.576,152.601,0.001,150.426L0.001,150.426z M13.71,171.758
					c-4.214-2.264-7.289-5.026-9.368-8.406c-1.991-3.236-3.039-7.003-3.189-11.479c3.991,1.133,6.958,3.456,9.041,7.069
					C12.032,162.134,13.188,166.339,13.71,171.758L13.71,171.758z"/>
			</g>
			<g>
				<path fill-rule="evenodd" clip-rule="evenodd" fill="#FFD200" d="M186.685,171.99c9.22-3.906,13.761-10.685,13.761-20.735
					c0-0.024-0.001-0.049-0.001-0.073C192.242,153.195,187.845,159.844,186.685,171.99z"/>
				<path fill="#120C16" d="M201.001,150.426c-10.347,2.152-14.088,10.912-15,22.5c0.356-0.14,0.706-0.282,1.05-0.43l0,0
					c0.043-0.019,0.085-0.036,0.128-0.055l0,0c9.415-4.083,13.729-11.234,13.83-20.858l0,0c0-0.008,0-0.016,0-0.023l0,0
					c0.001-0.09,0.002-0.181,0.002-0.271C201.011,151.004,201.008,150.716,201.001,150.426L201.001,150.426z M187.308,171.142
					c0.576-5.243,1.769-9.32,3.628-12.421c2.089-3.484,5.021-5.735,8.935-6.851c-0.094,4.538-1.183,8.44-3.242,11.614
					C194.555,166.68,191.425,169.25,187.308,171.142L187.308,171.142z"/>
			</g>
			<g>
				<path fill-rule="evenodd" clip-rule="evenodd" fill="#FFD200" d="M20.659,175.785c0,2.819,0.584,5.451,1.944,7.481
					c2.704-2.706,5.315-8.694,5.315-14.275c0-0.213-0.004-0.425-0.012-0.637c-0.083-2.266-0.75-5.269-3.061-7.287
					C22.718,164.263,20.659,170.304,20.659,175.785z"/>
				<path fill="#120C16" d="M24.751,160.176c-2.312,3.104-4.672,9.605-4.684,15.524c-0.006,2.778,0.507,5.429,1.785,7.537l0,0
					c0.001,0.002,0.002,0.004,0.003,0.006l0,0c0.197,0.324,0.412,0.636,0.646,0.933c0.273-0.233,0.545-0.498,0.813-0.791l0,0
					c0.001-0.002,0.003-0.004,0.005-0.005l0,0c2.755-3.013,5.166-9.024,5.164-14.41C28.482,165.421,27.436,162.145,24.751,160.176
					L24.751,160.176z M22.675,182.4c-3.205-5.693-0.611-15.72,2.301-20.524c1.8,1.877,2.29,4.504,2.363,6.501
					c0.098,2.691-0.481,5.788-1.629,8.721C24.868,179.244,23.796,181.107,22.675,182.4L22.675,182.4z"/>
			</g>
			<g>
				<path fill-rule="evenodd" clip-rule="evenodd" fill="#FFD200" d="M173.219,169.281c0,5.723,2.133,11.479,5.74,13.987
					c0.871-2.45,1.325-5.322,1.325-8.223c0-5.891-1.801-11.761-5.294-14.021C173.801,163.463,173.219,166.352,173.219,169.281z"/>
				<path fill="#120C16" d="M174.751,160.176c-1.441,2.645-2.115,5.877-2.118,9.129c-0.006,5.713,2.058,11.485,5.652,14.229l0,0
					c0.007,0.006,0.014,0.011,0.021,0.017l0,0c0.305,0.23,0.62,0.44,0.945,0.626c0.14-0.345,0.27-0.7,0.39-1.064l0,0
					c0.002-0.007,0.004-0.013,0.006-0.019l0,0c0.788-2.386,1.185-5.163,1.188-7.958
					C180.845,168.753,178.813,162.283,174.751,160.176L174.751,160.176z M178.677,182.399c-4.684-3.909-6.397-13.844-3.47-20.573
					c1.997,1.606,3.481,4.733,4.143,8.813C179.994,174.608,179.73,178.973,178.677,182.399L178.677,182.399z"/>
			</g>
			<g>
				<path fill-rule="evenodd" clip-rule="evenodd" fill="#FFD200" d="M20.102,197.489c-0.184-0.566-0.367-1.132-0.367-1.132
					c-2.822-8.774-5.51-17.053-15.386-18.276C4.675,189.787,11.96,194.441,20.102,197.489z"/>
				<path fill="#120C16" d="M3.751,177.426c0.002,0.385,0.011,0.762,0.027,1.133l0,0c0,0.002,0,0.006,0,0.008l0,0
					c0.486,11.256,7.363,16.122,15.867,19.36l0,0c0.097,0.037,0.194,0.073,0.291,0.11l0,0c0.353,0.132,0.708,0.261,1.065,0.389
					C17.838,188.84,15.459,178.468,3.751,177.426L3.751,177.426z M19.196,196.535c-4.291-1.718-7.273-3.575-9.507-5.892
					c-2.954-3.063-4.519-6.976-4.769-11.93c9.013,1.46,11.573,9.417,14.275,17.819C19.195,196.534,19.195,196.534,19.196,196.535
					L19.196,196.535z"/>
			</g>
			<g>
				<path fill-rule="evenodd" clip-rule="evenodd" fill="#FFD200" d="M181.459,197.466c7.328-3.45,15.202-7.625,15.229-19.393
					C185.465,179.224,182.288,192.074,181.459,197.466z"/>
				<path fill="#120C16" d="M197.251,177.426c-11.299,0.703-15.445,12.552-16.5,21c0.343-0.161,0.685-0.321,1.026-0.483l0,0
					c0.064-0.03,0.13-0.062,0.195-0.093l0,0c7.809-3.714,15.062-7.984,15.28-19.288l0,0c0,0,0-0.001,0-0.002l0,0
					c0.003-0.179,0.005-0.359,0.005-0.542C197.258,177.823,197.256,177.625,197.251,177.426L197.251,177.426z M182.193,196.487
					c0.543-3.031,1.66-7.256,3.926-10.862c2.522-4.014,5.882-6.344,9.997-6.942c-0.115,4.901-1.602,8.657-4.629,11.745
					C189.024,192.938,185.826,194.729,182.193,196.487L182.193,196.487z"/>
			</g>
			<g>
				<path fill-rule="evenodd" clip-rule="evenodd" fill="#FFD200" d="M26.721,197.521c0,5.031,1.142,9.784,3.877,12.036
					c2.01-3.057,3.193-7.722,3.193-12.185c0-1.932-0.216-3.815-0.672-5.496c-0.566-2.086-1.816-4.721-4.322-6.096
					C27.521,188.995,26.721,193.323,26.721,197.521z"/>
				<path fill="#120C16" d="M28.501,184.926c-1.391,3.189-2.316,7.992-2.313,12.641c0.003,4.918,1.046,9.664,3.676,12.149l0,0
					c0,0.001,0,0.001,0.001,0.001l0,0c0.277,0.263,0.572,0.499,0.885,0.709c0.217-0.296,0.425-0.612,0.625-0.946l0,0l0,0l0,0
					c1.842-3.077,2.979-7.703,2.979-12.157C34.353,191.899,32.663,186.73,28.501,184.926L28.501,184.926z M30.492,208.746
					c-1.876-1.894-2.984-5.396-3.149-10.042c-0.148-4.157,0.525-8.776,1.741-12.169c1.993,1.351,2.991,3.663,3.487,5.491
					c0.751,2.766,0.856,6.174,0.297,9.597C32.421,204.357,31.574,206.879,30.492,208.746L30.492,208.746z"/>
			</g>
			<g>
				<path fill-rule="evenodd" clip-rule="evenodd" fill="#FFD200" d="M167.189,198.065c0,0.266,0.005,0.533,0.013,0.801
					c0.141,4.695,1.53,8.505,3.775,10.682c2.026-2.54,3.38-7.778,3.38-12.961c0-0.753-0.028-1.505-0.087-2.245
					c-0.318-4.006-1.484-6.988-3.253-8.588C168.657,188.305,167.189,192.984,167.189,198.065z"/>
				<path fill="#120C16" d="M171.001,184.926c-2.838,2.678-4.375,7.951-4.378,13.149c-0.004,4.96,1.389,9.851,4.378,12.351
					c0.25-0.259,0.49-0.553,0.719-0.877l0,0h0.001l0,0c1.994-2.82,3.203-7.996,3.203-12.97
					C174.923,191.687,173.751,186.991,171.001,184.926L171.001,184.926z M170.903,208.742c-1.857-2.139-3.011-5.729-3.135-9.894
					c-0.147-4.896,1.155-9.669,3.301-12.325c1.429,1.585,2.354,4.324,2.635,7.863C174.134,199.792,172.93,205.748,170.903,208.742
					L170.903,208.742z"/>
			</g>
			<g>
				<path fill-rule="evenodd" clip-rule="evenodd" fill="#FFD200" d="M27.644,218.698c-2.592-8.121-8.975-13.145-19.952-15.698
					C11.044,212.064,17.586,217.215,27.644,218.698z"/>
				<path fill="#120C16" d="M6.751,202.176c0.12,0.361,0.246,0.718,0.376,1.069l0,0c0.023,0.063,0.047,0.125,0.07,0.188l0,0
					c3.282,8.684,9.715,14.217,20.075,15.823l0,0c0.035,0.005,0.071,0.011,0.106,0.016l0,0c0.37,0.057,0.743,0.107,1.123,0.154
					C25.681,209.246,17.478,204.449,6.751,202.176L6.751,202.176z M26.872,218.041c-4.661-0.805-8.577-2.479-11.66-4.989
					c-2.856-2.325-5.094-5.446-6.669-9.298C18.375,206.23,24.267,210.82,26.872,218.041L26.872,218.041z"/>
			</g>
			<g>
				<path fill-rule="evenodd" clip-rule="evenodd" fill="#FFD200" d="M173.34,218.715c9.888-1.211,17.942-7.76,19.395-15.726
					C181.782,205.931,175.738,210.835,173.34,218.715z"/>
				<path fill="#120C16" d="M193.501,202.176c-10.183,2.565-18.344,7.154-21,17.25c0.379-0.034,0.755-0.074,1.127-0.123l0,0
					c0.029-0.003,0.057-0.007,0.086-0.011l0,0c10.148-1.338,18.001-8.01,19.593-15.896l0,0c0.007-0.033,0.013-0.066,0.02-0.1l0,0
					C193.398,202.925,193.457,202.552,193.501,202.176L193.501,202.176z M174.09,218.093c1.3-3.756,3.525-6.779,6.769-9.208
					c2.85-2.135,6.529-3.827,11.211-5.153c-0.822,3.363-2.895,6.544-5.956,9.098C182.836,215.563,178.617,217.401,174.09,218.093
					L174.09,218.093z"/>
			</g>
			<g>
				<path fill-rule="evenodd" clip-rule="evenodd" fill="#FFD200" d="M36.539,214.37c0,8.205,4.425,14.209,9.509,16.904
					c0.232-1.561,0.378-3.16,0.378-4.769c0-7.498-2.691-14.945-9.25-17.517C36.764,210.864,36.539,212.669,36.539,214.37z"/>
				<path fill="#120C16" d="M36.751,208.176c-0.516,2.091-0.756,4.12-0.757,6.061c-0.004,7.908,3.964,14.333,9.449,17.398l0,0
					c0.017,0.009,0.032,0.018,0.048,0.026l0,0c0.332,0.184,0.668,0.355,1.01,0.515c0.065-0.374,0.124-0.747,0.176-1.12l0,0
					c0.002-0.017,0.005-0.033,0.007-0.05l0,0c0.209-1.506,0.314-3.008,0.315-4.484C47.005,218.041,43.58,210.436,36.751,208.176
					L36.751,208.176z M45.617,230.427c-2.903-1.732-5.275-4.461-6.767-7.821c-1.729-3.893-2.165-8.325-1.277-12.891
					c3.785,1.739,5.78,5.208,6.803,7.937C45.764,221.351,46.193,225.836,45.617,230.427L45.617,230.427z"/>
			</g>
			<g>
				<path fill-rule="evenodd" clip-rule="evenodd" fill="#FFD200" d="M154.569,226.748c0,1.499,0.144,3.031,0.387,4.573
					c3.758-1.818,7.411-6.483,8.856-11.469c0.373-1.287,0.669-2.824,0.669-4.464c0-2.065-0.509-4.288-1.885-6.381
					C157.529,212.584,154.569,219.272,154.569,226.748z"/>
				<path fill="#120C16" d="M162.751,208.176c-5.346,3.472-8.755,10.425-8.756,18.531c0,1.409,0.104,2.854,0.317,4.321l0,0
					c0.001,0.009,0.002,0.02,0.004,0.028l0,0c0.055,0.372,0.116,0.744,0.185,1.119c0.343-0.134,0.687-0.293,1.03-0.475l0,0
					c0.011-0.006,0.022-0.013,0.033-0.019l0,0c4.76-2.544,9.468-9.549,9.478-16.248
					C165.046,212.883,164.367,210.375,162.751,208.176L162.751,208.176z M155.382,230.487c-1.12-8.508,1.62-16.547,7.067-20.711
					c2.024,3.458,1.593,7.25,0.818,9.919c-0.731,2.521-2.087,5.071-3.817,7.184C158.18,228.43,156.771,229.673,155.382,230.487
					L155.382,230.487z"/>
			</g>
			<g>
				<path fill-rule="evenodd" clip-rule="evenodd" fill="#FFD200" d="M19.73,227.979c3.572,4.463,12.152,13.051,24.517,11.925
					c-0.928-4.003-3.793-7.544-8.251-9.992C30.751,227.03,24.485,226.335,19.73,227.979z"/>
				<path fill="#120C16" d="M25.128,226.5c-2.259,0-4.442,0.377-6.377,1.176c0.228,0.297,0.462,0.593,0.703,0.89l0,0
					c0.01,0.013,0.021,0.025,0.031,0.038l0,0c5.042,6.182,12.938,11.997,22.607,11.997c0.585,0,1.178-0.021,1.776-0.065l0,0
					c0.001,0,0.003,0,0.004,0l0,0c0.374-0.027,0.75-0.064,1.129-0.109C43.509,231.987,33.754,226.5,25.128,226.5L25.128,226.5z
					 M20.642,228.22c1.378-0.389,2.88-0.585,4.486-0.585c4.116,0,8.486,1.316,11.99,3.611c3.307,2.167,5.571,5.033,6.484,8.171
					c-0.503,0.033-1.008,0.05-1.51,0.05C31.61,239.467,24.121,232.367,20.642,228.22L20.642,228.22z"/>
			</g>
			<g>
				<path fill-rule="evenodd" clip-rule="evenodd" fill="#FFD200" d="M156.795,239.9c11.543,0.883,20.226-5.971,24.472-12.531
					C169.473,225.675,159.619,230.732,156.795,239.9z"/>
				<path fill="#120C16" d="M176.86,226.457c-0.006,0-0.012,0-0.018,0c-10.239,0-18.546,5.246-20.842,13.97
					c0.379,0.039,0.756,0.07,1.131,0.094l0,0c0.006,0,0.013,0,0.019,0.001l0,0c0.525,0.031,1.048,0.047,1.565,0.047
					c9.896,0,18.277-5.675,22.878-12.601l0,0c0.018-0.027,0.036-0.055,0.054-0.082l0,0c0.209-0.317,0.41-0.637,0.604-0.959
					C180.41,226.611,178.607,226.457,176.86,226.457L176.86,226.457z M157.501,239.404c1.195-3.383,3.444-6.229,6.566-8.287
					c3.499-2.307,7.917-3.525,12.775-3.525c0.006,0,0.012,0,0.017,0c1.14,0,2.304,0.068,3.478,0.205
					c-2.129,3.056-4.995,5.771-8.214,7.757c-4.116,2.539-8.752,3.881-13.407,3.881C158.313,239.434,157.907,239.424,157.501,239.404
					L157.501,239.404z"/>
			</g>
			<g>
				<path fill-rule="evenodd" clip-rule="evenodd" fill="#FFD200" d="M66.833,253.606c-1.06-14.913-5.566-22.955-14.471-25.844
					C52.589,239.745,57.34,248.213,66.833,253.606z"/>
				<path fill="#120C16" d="M51.751,226.926c0,0.382,0.005,0.76,0.014,1.133l0,0c0,0.018,0.001,0.034,0.001,0.052l0,0
					c0.331,13.161,5.988,20.996,14.559,25.917l0,0c0.06,0.035,0.121,0.069,0.181,0.104l0,0c0.328,0.186,0.659,0.367,0.995,0.545
					C66.707,240.97,63.062,230.115,51.751,226.926L51.751,226.926z M66.223,252.653c-3.991-2.407-7.007-5.33-9.182-8.89
					c-2.571-4.209-3.928-9.217-4.129-15.271c4.278,1.573,7.442,4.488,9.646,8.873C64.487,241.208,65.691,246.222,66.223,252.653
					L66.223,252.653z"/>
			</g>
			<g>
				<path fill-rule="evenodd" clip-rule="evenodd" fill="#FFD200" d="M134.135,253.677c6.738-3.537,13.921-11.9,13.921-21.181
					c0-1.548-0.243-3.12-0.678-4.696C139.091,232.131,134.641,240.83,134.135,253.677z"/>
				<path fill="#120C16" d="M147.751,226.926c-9.435,4.563-13.941,14.058-14.25,27.75c0.338-0.157,0.677-0.326,1.016-0.505l0,0
					c0.045-0.024,0.09-0.048,0.135-0.072l0,0c7.084-3.81,13.967-12.269,13.979-21.525
					C148.633,230.713,148.358,228.82,147.751,226.926L147.751,226.926z M134.709,252.769c0.32-5.893,1.498-10.892,3.507-14.881
					c2.039-4.048,5.002-7.175,8.819-9.312c1.405,5.903-0.604,11.11-2.629,14.53C142.065,247.063,138.526,250.567,134.709,252.769
					L134.709,252.769z"/>
			</g>
			<g>
				<path fill-rule="evenodd" clip-rule="evenodd" fill="#FFD200" d="M95.981,272.69c-2.859-13.353-10.438-21.201-23.116-23.958
					C76.337,259.277,81.938,270.055,95.981,272.69z"/>
				<path fill="#120C16" d="M72.001,247.926c0.115,0.361,0.232,0.721,0.351,1.078l0,0c0.018,0.053,0.035,0.105,0.053,0.158l0,0
					c3.939,11.793,10.006,21.46,23.147,24.05l0,0c0.028,0.006,0.055,0.011,0.083,0.017l0,0c0.367,0.07,0.739,0.137,1.117,0.197
					C94.016,259.411,86.05,250.626,72.001,247.926L72.001,247.926z M95.287,272c-5.702-1.217-10.279-3.897-13.954-8.162
					c-3.036-3.523-5.482-8.126-7.632-14.383c5.793,1.416,10.53,4.021,14.098,7.761C91.351,260.938,93.865,265.906,95.287,272
					L95.287,272z"/>
			</g>
			<g>
				<path fill-rule="evenodd" clip-rule="evenodd" fill="#FFD200" d="M105.649,273.32c11.334-3.891,18.894-12.155,22.496-24.585
					C114.945,251.552,106.068,261.25,105.649,273.32z"/>
				<path fill="#120C16" d="M129.001,247.926c-13.723,2.527-23.99,12.508-24,26.25c0.363-0.116,0.721-0.235,1.076-0.359l0,0
					c0.021-0.007,0.041-0.015,0.062-0.021l0,0c11.641-4.081,18.947-12.499,22.52-24.649l0,0c0.013-0.042,0.025-0.085,0.037-0.128
					l0,0C128.801,248.657,128.902,248.293,129.001,247.926L129.001,247.926z M106.186,272.575c0.355-5.672,2.584-10.813,6.497-14.95
					c3.768-3.984,8.825-6.798,14.707-8.2c-1.756,5.699-4.374,10.503-7.797,14.302C116.058,267.648,111.553,270.621,106.186,272.575
					L106.186,272.575z"/>
			</g>
			<g>
				<path fill-rule="evenodd" clip-rule="evenodd" fill="#FFD200" d="M37.699,250.613c4.313,7.27,15.867,12.496,26.688,8.956
					C60.498,252.2,49.755,248.586,37.699,250.613z"/>
				<path fill="#120C16" d="M44.227,249.462c-0.001,0-0.002,0-0.004,0c-2.43,0-4.944,0.235-7.472,0.714
					c0.172,0.332,0.359,0.661,0.56,0.986l0,0c0.012,0.019,0.024,0.038,0.036,0.057l0,0c3.564,5.72,11.374,10.114,19.828,10.114
					c2.307,0,4.664-0.327,6.995-1.045l0,0c0.002-0.001,0.005-0.002,0.007-0.003l0,0c0.359-0.11,0.717-0.23,1.075-0.359
					C62.095,253.105,53.789,249.462,44.227,249.462L44.227,249.462z M38.567,251.019c1.899-0.28,3.795-0.422,5.656-0.422
					c0.002,0,0.005,0,0.008,0c4.64,0,8.934,0.886,12.417,2.561c3.099,1.49,5.488,3.587,6.979,6.11
					c-2.081,0.618-4.245,0.932-6.452,0.932c-4.112,0-8.195-1.072-11.808-3.101C42.501,255.49,40.137,253.367,38.567,251.019
					L38.567,251.019z"/>
			</g>
			<g>
				<path fill-rule="evenodd" clip-rule="evenodd" fill="#FFD200" d="M136.612,259.568c10.821,3.543,22.374-1.685,26.69-8.952
					C151.003,248.61,140.479,252.147,136.612,259.568z"/>
				<path fill="#120C16" d="M156.703,249.475c-9.57,0.001-17.794,3.555-20.952,10.451c0.357,0.129,0.716,0.249,1.075,0.36l0,0
					c0.003,0,0.005,0.001,0.007,0.002l0,0c2.33,0.718,4.687,1.045,6.994,1.045c8.453,0,16.263-4.394,19.828-10.112l0,0
					c0.012-0.02,0.024-0.04,0.036-0.06l0,0c0.2-0.324,0.388-0.653,0.56-0.985C161.688,249.708,159.152,249.475,156.703,249.475
					L156.703,249.475z M137.369,259.266c3.17-5.445,10.277-8.656,19.334-8.657c1.872,0,3.792,0.141,5.727,0.419
					c-1.569,2.344-3.932,4.464-6.795,6.071c-3.612,2.028-7.695,3.101-11.808,3.101C141.618,260.2,139.452,259.886,137.369,259.266
					L137.369,259.266z"/>
			</g>
			<g>
				<path fill-rule="evenodd" clip-rule="evenodd" fill="#FFD200" d="M57.367,271.238c7.713,5.265,22.409,10.798,32.349,5.097
					C82.314,270.326,67.21,265.804,57.367,271.238z"/>
				<path fill="#120C16" d="M67.768,268.169c-4.105,0.001-8.112,0.872-11.517,3.007c0.297,0.214,0.607,0.431,0.931,0.648l0,0
					c0.03,0.02,0.059,0.039,0.089,0.06l0,0c5.394,3.603,14.296,7.448,22.631,7.448c3.469,0,6.842-0.667,9.821-2.295l0,0
					c0.019-0.011,0.037-0.021,0.055-0.03l0,0c0.33-0.183,0.654-0.376,0.973-0.581C85.968,272.233,76.634,268.169,67.768,268.169
					L67.768,268.169z M58.407,271.275c2.683-1.308,5.824-1.97,9.361-1.971c7.891,0,16.169,3.357,20.984,6.963
					c-2.529,1.283-5.499,1.932-8.851,1.932C72.322,278.199,63.963,274.867,58.407,271.275L58.407,271.275z"/>
			</g>
			<g>
				<path fill-rule="evenodd" clip-rule="evenodd" fill="#FFD200" d="M111.294,276.938c11.091,4.094,25.849,0.074,31.703-6.291
					C132.299,266.252,117.698,270.26,111.294,276.938z"/>
				<path fill="#120C16" d="M133.028,268.196c-0.003,0-0.005,0-0.008,0c-9.163,0-18.431,3.94-22.77,8.98
					c0.349,0.144,0.701,0.279,1.059,0.406l0,0c0.024,0.009,0.049,0.018,0.073,0.026l0,0c3.07,1.086,6.453,1.58,9.87,1.58
					c8.601,0,17.41-3.136,21.96-7.873l0,0c0.013-0.014,0.025-0.026,0.038-0.04l0,0c0.265-0.277,0.516-0.562,0.75-0.85
					C140.599,268.874,136.823,268.196,133.028,268.196L133.028,268.196z M112.271,276.712c2.01-1.879,4.782-3.575,7.98-4.864
					c4.084-1.648,8.499-2.519,12.77-2.519c0.002,0,0.005,0,0.008,0c3.28,0,6.314,0.513,9.044,1.526
					c-4.382,4.293-12.648,7.199-20.819,7.199C118.039,278.055,114.97,277.593,112.271,276.712L112.271,276.712z"/>
			</g>
			<g>
				<path fill-rule="evenodd" clip-rule="evenodd" fill="#FFD200" d="M64.86,294.168c-0.409,0.52-0.592,1.149-0.592,1.824
					c0,1.423,0.708,2.967,1.298,3.865c0.49,0,2.491,0,2.613,0c10.452-2.338,18.169-7.678,25.632-12.844l6.75-4.563l0.318,0.303
					c10.242,9.18,19.866,14.456,31.195,17.104c0.116,0,1.368,0,1.838,0c0.091-0.169,0.183-0.339,0.183-0.339
					c0.607-1.111,1.188-2.173,1.188-3.816c0-0.265-0.034-0.564-0.067-0.863c-0.62-0.215-8.011-2.776-8.011-2.776
					c-10.021-3.343-20.352-6.819-26.757-14.129C91.444,285.329,79.798,290.647,64.86,294.168z"/>
				<path fill="#120C16" d="M100.501,277.176c-9.534,7.966-21.818,13.183-36,16.5c-0.57,0.645-0.792,1.453-0.794,2.298
					c-0.005,1.671,0.846,3.482,1.544,4.452c1,0,2,0,3,0c13.496-3.004,22.217-10.783,32.25-17.25c8.57,7.681,18.321,14.18,31.5,17.25
					c0.75,0,1.5,0,2.25,0c0.722-1.39,1.604-2.616,1.6-4.729c0-0.392-0.031-0.813-0.1-1.271
					C123.012,289.665,108.485,286.693,100.501,277.176L100.501,277.176z M65.16,294.685c7.209-1.709,13.784-3.889,19.549-6.482
					c5.893-2.649,11.155-5.827,15.662-9.454c6.527,7.139,16.752,10.55,26.653,13.853c2.539,0.847,5.159,1.72,7.676,2.645
					c0.12,1.768-0.451,2.812-1.104,4.002c-0.008,0.015-0.016,0.029-0.023,0.044h-1.443c-6.058-1.424-11.633-3.631-17.042-6.744
					c-4.576-2.635-9.1-5.977-13.83-10.216l-0.644-0.578l-0.727,0.47c-2.179,1.403-4.323,2.889-6.397,4.324
					c-7.743,5.359-15.059,10.424-25.364,12.744h-2.259C65.13,298.031,64.413,295.921,65.16,294.685L65.16,294.685z"/>
			</g>
		</g>
	</g>
	<path fill="#FFD200" stroke="#000000" stroke-width="1.1339" d="M155.687,16.203c-1.583-1.333-2.833-0.167-2.833-0.167
		s-10.209,12.25-24.5,12.333c-24.834-0.083-26-24-26-24s0.057-3.813-1.86-3.802S98.66,4.369,98.66,4.369s-1.167,23.917-26,24
		c-14.292-0.083-24.5-12.333-24.5-12.333s-1.251-1.167-2.834,0.167c-1.458,1.458-0.5,2.667-0.5,2.667l20.5,24.5
		c0,0,13.125-7.927,35.042-7.927s35.318,7.927,35.318,7.927l20.5-24.5C156.187,18.869,157.145,17.661,155.687,16.203z"/>
	<g>
		<path fill="#FFD200" d="M65.407,47.495l-0.149,0.108c0,0-23.776,0-24.703,0c-0.881,5.412-9.548,59.708-9.551,100.022l0.011,2.406
			c0,0.013-0.002,0.685-0.002,0.685c0.02,39.566,18.912,66.795,34.757,82.669c16.114,16.144,32.426,24.146,34.553,25.151
			c2.135-1.01,18.546-9.06,34.753-25.306c15.935-15.973,34.93-43.372,34.93-83.195c0-40.548-8.901-96.912-9.79-102.433
			c-0.929,0-24.696,0-24.696,0l-0.146-0.103c-0.12-0.084-12.276-8.4-35.053-8.522c0.003,0-0.248,0-0.248,0l-0.243,0
			C77.384,38.978,65.524,47.409,65.407,47.495z"/>
		<path d="M99.83,38.411c-22.925,0.001-34.757,8.626-34.757,8.626h-25c0,0-9.633,57.794-9.636,100.589
			c0,0.809,0.004,1.613,0.011,2.411l0,0l0,0c-0.001,0.227-0.002,0.454-0.002,0.68c0.038,77.005,69.877,108.445,69.877,108.445
			s70.251-31.625,70.251-109.125c0-43-9.875-103-9.875-103h-25c0,0-12.125-8.5-35.376-8.625
			C100.156,38.412,99.994,38.411,99.83,38.411L99.83,38.411z M41.037,48.171h24.037h0.368l0.299-0.217
			c0.029-0.021,2.966-2.126,8.611-4.204c5.211-1.918,13.861-4.205,25.479-4.205h0.241l0.252,0.001c-0.002,0-0.004,0-0.006,0
			c11.795,0.063,20.609,2.349,25.928,4.256c5.762,2.066,8.775,4.144,8.804,4.164l0.293,0.204l0.357,0.001h24.034
			c0.577,3.611,2.69,17.144,4.778,34.388c2.248,18.556,4.929,45.325,4.929,67.478c0,17.508-3.656,34.081-10.867,49.261
			c-5.771,12.147-13.821,23.44-23.927,33.563c-8.999,9.015-17.993,15.412-23.953,19.191c-5.233,3.317-9.084,5.241-10.37,5.857
			c-1.288-0.618-5.149-2.549-10.373-5.862c-5.926-3.763-14.867-10.128-23.809-19.092c-10.034-10.058-18.028-21.275-23.76-33.341
			c-7.159-15.07-10.794-31.521-10.802-48.899c0-0.223,0.001-0.449,0.002-0.674v-0.007v-0.008c-0.007-0.829-0.011-1.637-0.011-2.401
			c0.001-22.046,2.616-48.165,4.809-66.194C38.412,64.729,40.466,51.7,41.037,48.171L41.037,48.171z M100.789,258.127
			L100.789,258.127L100.789,258.127L100.789,258.127z"/>
	</g>
	<g>
		<path fill="#FFFFFF" d="M77.912,46.442c-0.253,0.1-0.479,0.398-0.428,0.666s0.206,0.494,0.479,0.494h44.575
			c0.273,0,0.508-0.195,0.558-0.464c0.05-0.269-0.1-0.535-0.354-0.632c-4.599-1.762-12.222-3.875-22.424-3.935L99.89,42.57
			C89.863,42.571,82.404,44.677,77.912,46.442z"/>
		<path d="M99.892,42.004c-10.119,0.001-17.651,2.128-22.188,3.912c-0.042,0.016-0.08,0.032-0.119,0.049l-0.051,0.021
			c-0.502,0.205-0.789,0.736-0.685,1.268c0.105,0.532,0.571,0.916,1.113,0.916h44.574c0.547,0,1.015-0.39,1.115-0.928
			c0.099-0.537-0.199-1.069-0.709-1.265c-4.643-1.778-12.334-3.911-22.623-3.972h-0.222c0.002,0,0.004,0,0.005,0L99.892,42.004
			L99.892,42.004z M77.962,47.036c0.054-0.022,0.101-0.043,0.157-0.065c4.446-1.748,11.834-3.832,21.768-3.833l0.21,0.001h0.215
			c10.114,0.06,17.667,2.151,22.224,3.897l0,0l0,0H77.962L77.962,47.036L77.962,47.036L77.962,47.036z"/>
	</g>
	<g>
		<path fill="#ED1C24" d="M47.349,55.541l-0.072,0.482c-2.599,17.281-8.611,61.028-8.325,93.939v0.118
			c-0.079,16.259,3.212,31.644,9.782,45.721c3.987,8.546,9.243,16.722,15.62,24.303l1.001,1.189V55.541H47.349z"/>
		<path d="M65.921,54.974h-1.134h-16.95h-0.976l-0.145,0.965c-2.601,17.292-8.619,61.069-8.332,94.029v0.113
			c-0.079,16.341,3.23,31.806,9.835,45.96c4.008,8.59,9.29,16.809,15.7,24.428l2.002,2.379v-3.109V56.108V54.974L65.921,54.974z
			 M39.508,147.63c0.003-32.563,5.78-74.575,8.329-91.522h16.95v163.631l0,0l0,0c-6.342-7.538-11.556-15.637-15.54-24.176
			c-6.457-13.837-9.729-28.945-9.73-44.914c0-0.189,0-0.379,0.001-0.568v-0.123C39.511,149.188,39.508,148.412,39.508,147.63
			L39.508,147.63z"/>
	</g>
	<g>
		<path fill="#FFFFFF" d="M73.292,55.541v174.099l0.175,0.168c7.643,7.308,15.055,12.567,19.926,15.692
			c2.249,1.442,4.491,2.779,6.664,3.973l0.272,0.149l0.273-0.149c5.811-3.185,17.283-10.253,28.828-21.818
			c9.512-9.529,17.077-20.134,22.485-31.521c6.737-14.182,10.154-29.69,10.154-46.097c0-32.921-6.005-76.712-8.587-94.012
			l-0.072-0.483H73.292z"/>
		<path d="M153.899,54.974h-0.978H73.858h-1.134v1.134v173.29v0.485l0.35,0.335c7.675,7.337,15.119,12.619,20.013,15.759
			c2.263,1.452,4.516,2.795,6.697,3.993l0.545,0.299l0.546-0.299c5.838-3.199,17.362-10.302,28.956-21.915
			c9.559-9.576,17.16-20.233,22.597-31.678c6.773-14.259,10.208-29.85,10.208-46.341c0-32.964-6.009-76.786-8.593-94.096
			L153.899,54.974L153.899,54.974z M73.858,56.108h79.063c2.595,17.381,8.58,61.061,8.58,93.929l0,0l0,0
			c0,16.32-3.396,31.748-10.098,45.854c-5.382,11.329-12.911,21.881-22.375,31.362c-11.526,11.547-22.988,18.593-28.699,21.723
			c-1.739-0.955-4.007-2.271-6.631-3.953c-5.025-3.224-12.331-8.445-19.841-15.625V56.108L73.858,56.108L73.858,56.108z"/>
	</g>
	<g>
		<path fill="#FFD200" stroke="#000000" stroke-width="1.1339" d="M150.158,73.869l-12.5,15.333c0,0-13.668-12.833-26.834-12.667
			c-13.167,0.167-16.334,12.167-16.5,17.833c0,9.5,7.667,18.833,7.667,18.833v21.167c0,0-24.834-11.5-24.834-39.667
			c0-20.333,14.833-33.167,35.667-33.167C133.658,61.536,150.158,73.869,150.158,73.869z"/>
		<path fill="#FFD200" stroke="#000000" stroke-width="1.1339" d="M118.491,123.369c0,0-0.751,12.333-0.167,20.333
			c6.23,6.333,20,10.833,20,35.333c0,32.333-30.375,47.625-49.5,46.833c-5.125,0.292-8.667-0.666-8.667-0.666s7.917,11.208,23.5,16
			c2.917-0.292,49.667-30.042,49.667-72.834C153.324,139.411,118.491,123.369,118.491,123.369z"/>
		<path fill="#FFD200" stroke="#000000" stroke-width="1.1339" d="M101.489,89.202c0,0,8.46-4.166,17.668-9
			c-0.833,10.834-4.5,38.75-4.5,62.167c0,9.354,3.104,39.167,5.167,39.167c8.063,0,9.813-15.625,11.063-15.625
			s3.125,8.563,3.125,12.375c0,5.188,0.418,8.729-2.354,12.083s-9.709,3.542-22.021,11.229c-5.419,3.384-9.688,8.313-10.646,7.104
			c-4.917-6.666,7.458-10.041,6.333-66C105.324,97.286,101.489,89.202,101.489,89.202z"/>
	</g>
</g>
</svg>
