<svg viewBox="0 0 465 237.9" xmlns="http://www.w3.org/2000/svg"><path d="M344.5 0v71l10 4.6v-1c0-11 3.2-9.6 10.5-13 2-.6 2.3-4.2 5.3-4.5 3.6-.4 11.5 1 14.8 2.6 2 1 2.3 2.3 3.3 4.3.7 2 4.3 3.3 5.3 5.6 1.6 4.6 0 10.9-5 12.6-1.6.6-9.2.3-9.2.3v7.2a10.2 10.2 0 0 0 2.3.7c12.5 3.3 81.5 24 83.1 27.7a.7.7 0 0 1-.6 1c-1.7.3-45.2-9.9-53.1-11.2-9.3-1.7-16.5-3.3-28.4-5v.7c0 3.6-.7 3.6-4 5v.6c4 .7 16.5 2.7 19.1 4.6 3 2 10-.3 14.9 6.3 1.3 1.7 1.3 9 0 10.9-2 3-4.3 1.6-7 2-1.6.3-2.6 2-4 2.6s-3.2.4-4.9.7c-3.6 0-5-3.3-7.6-5-1.3-1-2.6-.3-4.3-.6-2-.7-3.6-3-5.3-4-1-.7-3.6-.3-4.6.3-6.6 4-23.7 0-30.7-4.3l.4 43a31.6 31.6 0 0 1-4.3 14.4c-21 36.3-65.6 57.8-107.5 57.8h-.7c-41.9 0-86.4-20.8-107.5-57.1a31.4 31.4 0 0 1-4.6-15.2l.3-42.9c-6.6 4.3-24 8.3-30.7 4.3-1-.7-3.6-.7-4.6-.3-2 1-3.3 3.3-5.3 4-1.3.3-3-.4-4.3.6-2.6 1.7-4 5.3-7.6 5-1.6 0-3.6.3-5-.7-1.2-.6-2.2-2.3-4-2.6-3-.3-4.9 1-6.9-2-1.3-1.7-1.3-9 0-11 5-6.5 12-4.2 14.9-6.2 2.6-2 15.2-3.6 19.1-4.6v-.7c-3.3-1-4-1-4-5v-.6c-11.8 1.7-19.1 3.3-28.3 5-8.2 1.6-51.4 11.5-53 11.2 0 0-1-.3-.7-1 1.6-4 70.6-24.4 83.1-27.7a13.4 13.4 0 0 1 2.3-.7v-7.2s-7.6.3-9.2-.3c-4.6-2-6.6-8.3-5-12.6 1-2.3 4.6-4 5.3-5.6.7-2 1.3-3.3 3.3-4.3 3.3-1.6 11.2-3 14.9-2.6 3 .3 3.6 3.6 5.2 4.6 7.3 3.3 10.6 1.6 10.6 12.9v1l9.9-4.7V0z" fill="#fff"/><g fill="#001f47"><path d="M236.3 169l3.3 36.6 4.3-.4-3.3-36.6zm-29-5.3l-11.9 35 11.2 4 4-11.3-4-1.3-2.3 7.3-3-1 10.6-30.7zm12.2 7.9l-3.3 28.7a3.7 3.7 0 0 0 3.6 4.3l7.6 1 .7-4.3-7.6-1 1.3-12 5.6.7.7-4.2-5.6-.4 1.3-11.9 7.6 1 .6-4.2-7.5-1a4.3 4.3 0 0 0-5 3.3zm59.4-21.8l-3 3 25.7 26 3-3zm-20.5 18.5a4.3 4.3 0 0 0-4-3 2.5 2.5 0 0 0-1.3.3l-7.3 2.3 10.6 35v.3l4-1.3-4.6-15.5 3.3-1a3.5 3.5 0 0 0 2.3-2 3.2 3.2 0 0 0 .3-3zm-3.6 13.8l-3.7-11.5 3.3-1 3.7 11.5zm60.7-29.7l-12.6-7.9-3 5 3.7 2.3 1-1.3 10.2 6.6-1.6 2.6-24.8-15.2 1.7-2.6 5 3 2.2-3.7-3.6-2.3a5.3 5.3 0 0 0-3-1 5.8 5.8 0 0 0-5 2.7 6 6 0 0 0 2 8.2l21.8 13.9a5.3 5.3 0 0 0 3 1 5.8 5.8 0 0 0 5-2.6 6.7 6.7 0 0 0-2-8.7zm-35 27.4l4 6.3-2.7 2-8.9-28-2.3-3.3-9.9 6.3 6.3 9.9 3.6-2.3-4-6.3 2.7-1.7 8.9 28 2.3 3.3 9.9-6.2-6.3-10z"/><path d="M136.7 178.2c21.7 32.3 57.4 48.1 96 48.1 38.2 0 74.2-15.8 95.6-48.1v-.4c3.3-5.6 4.7-9.2 4.7-21v-31.4h-6v31.3c0 11.2-1.3 13.5-4 18.2-19.7 29.3-53 45.5-91 45.5s-71.3-16.2-91-45.5c-2.7-4.7-4-7.3-4-18.2v-31.3h-6v31.3c1 11.9 2.3 15.8 5.6 21.5zM130.4 66.3V10h204.2v56.4L338 68V6.6H127.4V68z"/><path d="M132 11.2v54.5l5.6-2.7V17.2h189.8V63l5.9 2.7V11.2zM334.6 125.7V157c0 12.2-1.3 15.8-5 21.8v.6c-21.7 32.7-58 48.9-97 48.9s-75.1-16.2-97-48.9v-.6c-3.2-6-4.9-9.6-4.9-21.8v-31.3h-3.3V157c0 12.9 1.7 17.2 5.3 23.4l.3.4.4.3c22.4 33.3 59.7 50.1 99.6 50.1s77.2-16.8 99.6-50.1l.4-.3.3-.4c3.6-6.2 5.3-10.5 5.3-23.4v-31.3z"/><path d="M232.3 37.6a52.1 52.1 0 0 1 20.2 4 35.6 35.6 0 0 1-3 7.6 141.6 141.6 0 0 0-23.8-.3l-10.2-8.6a56.1 56.1 0 0 1 16.8-2.6z"/></g><path d="M279.9 116.1c-4.3-1-8-3-12.3-4.2l-3 1.6a57.1 57.1 0 0 1-16.5 12.9 57.4 57.4 0 0 1-49.8 1.3 55.8 55.8 0 0 1-9.5-5.6 55.6 55.6 0 0 0 40.2 22.4h2a55 55 0 0 0 29-8.2 45 45 0 0 0 19.8-20.2z" fill="#dadada"/><g fill="#001f47"><path d="M252.1 83.1a164.8 164.8 0 0 0 8.6 15.9c3-4.6 3.6-8 6.3-15.8 1-3 5-7.3 8.6-11a117.4 117.4 0 0 0-13-6.9 159.3 159.3 0 0 0-10.5 17.8zM196 51.8c-5 4.3-8.6 9.9-11.6 15.8.7.7 1.4 1 2 1.7.4-.7 1-1 1.4-1.7a119.6 119.6 0 0 1 8.2-15.8zM229 83.5A169.1 169.1 0 0 0 215.5 65s-14.8 6.6-20.1 9.6a33.2 33.2 0 0 0-.4 5c3.3 5.5 5 11.5 9 20 1 .7 1.6 1.7 2.6 2.4 3 .6 6.3 1.6 9.9 2.6 0 0 9.2-14.9 12.5-21.1zM227.7 123.4l23.1-.7 4.6 12.6a83.6 83.6 0 0 1-19.4 7.9c-11.2-2.3-17.5-7.3-17.5-7.3l9.2-12.5zM189.8 114.2c-2 .6-4 1.6-5 2h-.3a45.7 45.7 0 0 0 14.2 15.8c.7-.3 1-1 1.6-1.3 0 0-6.6-9.6-10.5-16.5z"/></g><path d="M58.8 122.4c-2.6.7-1.6 3.6-2.3 5.6a1.1 1.1 0 0 0 .6.3c1-.3 2.7 0 3.3-1a7.9 7.9 0 0 0 .7-3c-.3-.6-1.3-1.9-2.3-1.9zm261.6-11.2c-1.3.3-2.6 1-4.2.6-1.4 0-4-1.3-4.3.7l-1.4 3.6a2.2 2.2 0 0 0 1.4 1.7 9.6 9.6 0 0 0 3 .6c1.6-1 1.3-3 3-4 .6.4 1 1.4 1.6 1.4a3.4 3.4 0 0 0 2.3-1.7 2.1 2.1 0 0 0 0-2 3.5 3.5 0 0 0-1.4-1zm48.2-27.7c.3.6 1.3 1.6.7 2-1.4 1-9-.4-9.3.6.4 1.7 5 2.7 6.3 3.3a6.5 6.5 0 0 0 5 .4 5.8 5.8 0 0 0 3-5.7c0-1-1.4-3.3-2-4.2-.7-.7-5.3-4.7-4-5 1.6.7 4 0 4.9 1.7 3 1 6.3 1.3 9.6 2a6 6 0 0 0 5.6-2 3.6 3.6 0 0 0 0-3.7c-.7-1.3-2.3-1.6-3.3-2-1.4.4 0 1.7-1 2l-2.7-.3c-1.6-1.6 2-1.6 2-2.3.4-1.3-1-2.7 0-4a.7.7 0 0 0-.6-.7c-1.4-.6-9.6-2.6-11-2.3l-.3.3c.4.4 1.7 1.7 1.7 2 .7 1-3.3 1.7-4 2-3 .7-10.9 1.7-9.9 6.3.4 1.3 8.3 7 9.3 9.6zm-286-5.3c3-.7 6.2-1 9.5-2 1-1.7 3.3-1 5-1.7 1.3.7-3.7 4.3-4 5a17 17 0 0 0-2 4.3 5.3 5.3 0 0 0 2.6 6c1.7 1 3.3.3 5-.4 1.3-.7 5.9-1.7 6.2-3.3-.3-1-7.6.3-9.2-.7-.7-.3.3-1.6.7-2 1-2.3 8.9-8.2 9.5-10.2 1.3-4.6-7-5.6-9.9-6.3-.6 0-4.3-1-4-2a12.6 12.6 0 0 0 1.7-2v-.3c-1 0-9.6 2-11 2.3a.7.7 0 0 0-.6.7c1 1.3-.3 2.6 0 4 .4 1 3.7.6 2 2.3l-2.6.3c-1.3-.6.3-1.6-1-2-1 .3-3 .7-3.3 2a3.6 3.6 0 0 0 0 3.6c1 2 3 2.7 5.4 2.4zm-16.9 42.2c-.3-.6-3.6 0-3.6.7-.3 1 2.6 1.6 3.6-.7zm333.6 0c1 2 4 1.7 3.6.7 0-.3-3.3-1-3.6-.7zm7 2c-1 0-2 1.4-2.4 2 0 1.4.7 2 .7 3 .6 1 2.3.7 3.3 1 .3 0 .3-.3.6-.3-.6-2.1 0-5-2.3-5.7zm37-10.2a1209.4 1209.4 0 0 0-60.8-15.8c-7.6-1.7-15.2-3.7-22.8-5-.6 0-1.6 0-2-.7.4-1.3-1.3-1.6-2.3-2l-7-2c-1.6-.3-3.2-1.3-5.2-1.6-2.3-.3-4-.3-5.3-2.3l.4-.3c2 .6 5.2 2.6 7.6 1 1-.7 2-2.7 1.6-3.7s-1.6-1-2.3-1.3c-3.3-1.3-6.6-3.3-10-5-6.8-3.6-13.8-6.9-20.7-10.5a55.8 55.8 0 0 0-10.2-4.3c-3-.7-6 .3-8.6 1.7-2.3 1.3-2.3 5-4.3 4.6a1.2 1.2 0 0 1-.3-1c-.7-1.3-3 2-5 3a64.6 64.6 0 0 0-14.5 13.8c-2 2.4-2.6 5.7-3.3 8.3l.3.7c1 .3 1.7 0 2.7-.7.6.3.6 1 1 1.6 3 4 11.2 1.7 15.5 3.3 0 .4 0 .7-.3.7a22.2 22.2 0 0 1-6.6-.3c-4.7 0-9.3-.4-14-.4l-.6.4a69 69 0 0 1-3.3 6.9c-.6.7-1.6 1.3-2.3 2-1.6 2-3 4.6-5.3 6-.6.3-2 .6-2.3 1.6l.4.3c6.9.7 7.5-6.6 12.2-8.2.3 0 .3.3.3.6a14.1 14.1 0 0 0-3 4.3c-2.6 5.6-4.6 4-7.3 6.3l.4.7c7.6-.4 8.9-4.7 11.5-5 2-.3 10.2 3.3 12.9 4.3a16.6 16.6 0 0 0 4 .7 14.3 14.3 0 0 1 1.6-.4c1 0 1.4 2 3.3.7 1.4-.7 1.4-2.7 1.7-4 .3-1.7-1.7-3-1.7-3.6.4-1.4 1.7.3 2-.7.4-.7-.6-2-1-2.3-1-1.3-4-3.6-3.3-5.3 0-.3.7-.7.7-.7l9.2 1c.4 0 1.7 3.3 1.7 3.7a25.9 25.9 0 0 1-1.7 4.6c-.6 2-2 3.3-2 5.3 0 2.6 1.7 5 3 7.2s4 1.4 6 2c1 .4 1.6 1 2.6 1.4a37.7 37.7 0 0 0 8.6 3c1.6.3 4 0 5-1.7.6-1-1.7-1.3-.7-2.6a2.4 2.4 0 0 1 2-.7c1.6.3 9.9 1.3 10.5.3.4-.3 0-.6-.3-1a39.9 39.9 0 0 0-6-1.6c-2.2-.7-4.5-.7-6.5-1.3s-1.7 1.3-3 2.3c-2 1.3-7.6-1.3-8.3-3.7s1.3-5 3-6.6c1-1.3 2.7-1.3 3.7-2.3.6-.6.3-1.6.3-2.3 1-1.3 5.3.7 7 .4 2-.7.2-3 2-3.3a22.2 22.2 0 0 1 4 2c1 .3 2.6.6 3.2 1.3s0 1.6 0 2.3c.3 1 2 1.3 3 1.3 1.7.3 3.3 0 5 .3 1.6 0 3.3.7 4.6.7l5.3.7c1.3.6-.4 1.6 1 4-1.4-.4-6.3-1.7-7 0a43.4 43.4 0 0 0 20.8 7.9 42.6 42.6 0 0 0 11.2 0c2.4-.4 2.7-2.3 4.3-2.7s3.3 2.7 4.7 3.3a36 36 0 0 0 3.6 2c2 1.4 4-1 5.6 0 2 1 3.3 6.6 6.3 6a2.6 2.6 0 0 0 1.3-1.4c.6-1.6-.3-3-.7-4.6.7-1.3 2.7.7 2.7-.6-.4-.4-.7-.7-1-.7-3.7-1-3-5-8.3-6-2.3-.3-4.6-1-7-1.2-.6 0-2.2.3-2.2-.7l.3-.3h4.3v-.7c-6.6-1-13.2-2.6-19.8-3.6-.7-.4-1-2-1-2.3.3-1.4 2 1 3-1.4.7-1.3-.7-2.6.3-3.3l9 1c-16.6-4-33-7.2-49.6-11.2-3.6-1-7.2-1.3-10.8-2.6v-.3c14.5 2 29 5.6 43.5 7.2v-.3c-8.4-1.8-16.3-3.8-24.3-5.1-12.2-2.3-24-4-36.3-6-7.9-1.3-15.8-2.6-23.7-3.2l-.3.6a6.9 6.9 0 0 0 2 1.3v.7c-1 0-5.7.3-5.7-1 1.7-1.6 2-2.3 4.7-2.3 4 .3 7.6 1 11.5 1.3 21.8 3 43.9 5.6 65.7 9.6 23 4 45.8 7.9 68.6 13.5 3.6 1 27.7 7.6 28.7 7.3a111.3 111.3 0 0 1-11.2-3.3zm-165-4.3a2.8 2.8 0 0 1-2.4 0c-1-.7-1-1.6-1.3-2.6 0-.4 0-.7.3-.7a4.6 4.6 0 0 1 3 1c0 .6.6 1.3.3 2.3zm77.4 8.6c2.4.6 5 .6 7.3 1.3a1.5 1.5 0 0 1 1 1c0 .3-.7.3-.7.3l-9.9-2.6-1-.7c1.4.7 1.7.3 3.3.7zm-54.4-10.6a1.5 1.5 0 0 1 1-1c.7.3 1.3.3 1.6 1l-2.3 5c-1.6 2-.3 5 0 7.2 0 .4-.3.4-.6.7-1.7-1.7-3-4-2.3-6.3zm-18.5-27.7c-.3 0-1.6-.3-1.3-1l1-.3 28.7 4.6 1.3.6c-.3.4-20.1-2.6-29.7-4zm33-5c-5-1-10.2-2.3-15.2-3.6-.3 0-1.3-.3-1-.6 1.7-.4 10.3 2 12.2 2.6 1 .3 1.4 0 2.4 0a2.7 2.7 0 0 1 1.6 1.6zm-169.9 42c1 0 1-1 1.6-1.4 1.7 1 1.4 3 3 4a7.8 7.8 0 0 0 2.7-.6 2.2 2.2 0 0 0 1.3-1.7c-.3-1.3-1-2.3-1.3-3.6-.7-2-3-.7-4.6-.7-1.7.4-3-.3-4.3-.6-.4 0-.7.3-1 .6a2.1 2.1 0 0 0 0 2 3 3 0 0 0 2.6 2zm63.7-6.3c-2.3-1.7-3.6-4-5.3-6l-2.3-2a69 69 0 0 1-3.3-6.9l-.7-.3c-4.6.3-9.2.3-13.9.3-2 0-4.6.4-6.6.4-.3 0-.3-.4-.3-.7 4.3-1.7 12.5 1 15.5-3.3.3-.7.3-1.7 1-1.7a6.2 6.2 0 0 0 2.7.7l.3-.7c-.7-3-1.3-5.9-3.3-8.2a70.3 70.3 0 0 0-14.5-13.9c-2-1-4.3-4.3-5-3 0 .4-.3.7-.3 1-2 .4-1.7-3-4.3-4.6a12.7 12.7 0 0 0-8.6-1.6c-3.6.6-7 2.6-10.2 4.3-7 3.6-13.9 6.9-20.8 10.5l-9.9 5c-.7.3-2 .3-2.3 1.3A3.9 3.9 0 0 0 119 83c2.3 1.3 5.6-.3 7.6-1l.4.3c-1.7 2-3.3 2-5.3 2.4-1.7.3-3.3 1.3-5.3 1.6l-7 2c-1 .3-2.6.7-2.2 2-.4.7-1.4.7-2 .7-7.6 1.3-15.2 3.3-22.8 5l-14.2 3.2c-15.5 4-31 8-46.5 12.6-1.7.3-9.6 2.6-10.3 3.3 1 .3 25.4-6.3 28.7-7.3 22.8-5.6 45.6-9.6 68.7-13.5 21.8-3.7 43.9-6.6 65.6-9.6 4-.3 7.6-1 11.6-1.3 2.3-.4 3 .6 4.6 2.3 0 1-4.6.6-5.6 1V86a6.9 6.9 0 0 0 2-1.3l-.3-.6c-8 .6-16.2 2.3-23.8 3.3-12.2 2-24.4 3.6-36.3 5.9-8.2 1.3-16.2 3.6-24 5v.3c14.4-1.7 29-5 43.5-7.3v.3l-11 2.7c-16.4 4-33 7.2-49.4 11.2l9-1c1 .7-.4 2 .2 3.3 1 2.3 3 0 3 1.3a7 7 0 0 1-1 2.3c-6.6.7-13.2 2.7-19.8 3.7v.6h4.3l.4.3c0 1-1.7.7-2.4.7-2.3.3-4.6 1-6.9 1.3-5.3 1-4.6 5-8.2 6-.4 0-.7.3-1 .6 0 1.3 2-.6 2.6.7-.3 1.6-1.3 3-.7 4.6.4.7.7 1.3 1.4 1.3 3 1 4.3-4.6 6.2-6 1.7-1 3.7 1 5.6 0 1.4-.6 2.4-1.2 3.7-2s3-3.5 4.6-3.2c1.3.3 2 2.3 4.3 2.6a63.7 63.7 0 0 0 11.2 0c6-1 16.2-4 20.8-7.9-.7-1.6-5.6-.3-7 0 1-2.3-.3-3.6 1-4l5.3-.7c1.7 0 3-.6 4.7-.6a25 25 0 0 0 5-.3c1 0 2.6-.4 3-1.4 0-.6-.7-1.6 0-2.3.6-1 2.2-1 3.2-1.3 1.3-.7 2.3-1.6 4-2 1.7.3.3 3 2 3.3s6-1.6 7-.3c0 .6-.7 2 .3 2.3 1 1 2.6 1 3.6 2.3 1.3 1.6 3.6 4.3 3 6.6s-6 5-8.2 3.6c-1.4-1-1.4-2.6-3-2.3a58.3 58.3 0 0 1-6.6 1.3c-2 .7-4.3 1-6 1.7a.6.6 0 0 0-.3 1c1 1 9.2 0 10.5-.3a2.4 2.4 0 0 1 2 .6c1 1.3-1.3 1.7-.6 2.7a5.5 5.5 0 0 0 5 1.6 65.5 65.5 0 0 0 8.5-3c1-.3 1.7-1 2.7-1.3 2-.7 4.2.3 5.9-2 1.3-2.3 3-4.6 3-7.3 0-2-1.3-3.6-2-5.3-1.3-.6-2.6-4-2.6-4.6 0-.3 1.3-3.6 1.6-3.6l9.2-1a.7.7 0 0 1 .7.7c.3 2-2.3 4-3.3 5.2-.3.4-1.3 1.7-1 2.3.3 1 2-.6 2 .7 0 1-1.6 2.3-1.6 3.6.3 1.4.3 3.3 1.6 4 2.3 1 2.3-.6 3.3-.6a14.3 14.3 0 0 0 1.7.3 16.6 16.6 0 0 0 4-.7c2.6-.6 10.5-4.2 12.8-4.2 2.7.3 4 4.6 11.6 5l.3-.8c-2.6-2.6-4.6-1-7.3-6.2a33.5 33.5 0 0 0-3-4.3c0-.3 0-.7.4-.7 4.6 1.7 5.3 9 12.2 8.3l.3-.4c-.4-.9-1.8-1.2-2.4-1.5zm-60.7-36c.6-.7 1.3-1 2-1.7 1 0 1.3.4 2.3 0 2-.6 10.5-3 12.2-2.6 0 .6-.7.6-1 .6a81.6 81.6 0 0 1-15.5 3.7zm33.3 5.3l-29.4 4.2 1.3-.6 28.7-4.6a1.2 1.2 0 0 1 1 .3c0 .7-1.3.7-1.6.7zm-71 38.6l-9.9 2.6c-.3 0-.6 0-.6-.3a1 1 0 0 1 1-1 68.3 68.3 0 0 1 7.2-1.4 12.4 12.4 0 0 1 3.3-.3zm52.5 1.6a.7.7 0 0 1-.6-.7c.6-2 1.6-4.9 0-7.2l-2.4-5c.4-.6 1-.6 1.7-1a1 1 0 0 1 1 1l2.6 6.3c1 3-.6 5.3-2.3 6.6zm25.7-10.6c-.6 0-2 .4-2.3 0-.3-.6.4-1.3.7-2 .6-1 1.6-1 3-1 .3.4.3.4.3.7-.7.7-1 1.7-1.6 2.4z" fill="#dd0741"/><path d="M278.5 69.3c.7-.7 1.3-1 1.7-1.3-.4-.4.3 0 0 0l.3-.4a35.7 35.7 0 0 0-3.6-5.9 28.2 28.2 0 0 1 1.6 7.6z" fill="#dadada"/><g fill="#001f47"><path d="M182.5 144.8l-4.3-6.2-30 21 2.3 3.4 13.2-9.2 2 2.6-10.9 7.6c-1 .7-1.3 1.6-2 2.3l2.6 3.6.4-.3a3.8 3.8 0 0 1 1.6-2.3l10-7q2-1.4 2-3c.3 0 .6.4 1.3.4a4.7 4.7 0 0 0 2-.7l9.5-6.6a4.5 4.5 0 0 0 1.7-2.6 8.2 8.2 0 0 0-1.4-3zm-3.3 2.3l-9.9 7-2-3 10-7zM194 158a4 4 0 0 0-1.3-2.6l-5.9-5-24 28 5.9 5a3.8 3.8 0 0 0 2.6 1 4.2 4.2 0 0 0 3-1.4l7.3-8.2c1-1.3 1.6-2.3 1-3.6h.6a2.5 2.5 0 0 0 2.3-1.4l7.6-8.5c1-1.3 1.3-2.3 1-3.3zm-14.8 12.9l-7.9 9.2-2.6-2.3 8.2-9.2zm2.7-3.3l-2.4-2.3 8-9.3 2.6 2.4z"/></g></svg>