<?xml version="1.0" encoding="utf-8"?>
<!-- Generator: Adobe Illustrator 12.0.0, SVG Export Plug-In . SVG Version: 6.00 Build 51448)  -->
<!DOCTYPE svg PUBLIC "-//W3C//DTD SVG 1.1//EN" "http://www.w3.org/Graphics/SVG/1.1/DTD/svg11.dtd" [
	<!ENTITY ns_svg "http://www.w3.org/2000/svg">
	<!ENTITY ns_xlink "http://www.w3.org/1999/xlink">
]>
<svg  version="1.1" id="Layer_1" xmlns="&ns_svg;" xmlns:xlink="&ns_xlink;" width="210.279" height="238.095"
	 viewBox="0 0 210.279 238.095" overflow="visible" enable-background="new 0 0 210.279 238.095" xml:space="preserve">
<g>
	<path fill-rule="evenodd" clip-rule="evenodd" d="M74.077,11.497C63.331,11.057,55.723,6.532,47.012,0
		c-5.421,8.771-11.019,15.217-17.896,19.258C21.321,23.838,12.988,25.094,0,23.333c2.598,5.219,5.199,10.341,7.377,15.747
		c2.038,5.058,3.781,10.185,5.17,15.458c1.663,6.315,2.864,12.629,2.95,19.172c0.109,8.284-1.284,16.365-3.033,24.437
		c-1.767,8.152-3.992,16.189-6.043,24.272c-2.087,8.225-4.04,16.4-5.201,24.811c-1.154,8.365-1.587,16.32-0.317,24.683
		c1.857,12.225,6.428,21.667,14.453,31.073c3.83,4.489,8.266,7.77,13.506,10.48c5.497,2.844,11.211,4.589,17.252,5.871
		c6.621,1.408,13.324,2.183,20.037,3.008c5.776,0.709,11.523,1.418,17.162,2.892c3.265,0.854,6.378,1.947,9.397,3.459
		c4.726,2.363,8.965,5.674,12.372,9.4c4.103-4.347,8.262-7.504,13.386-9.884c5.16-2.396,10.566-3.677,16.163-4.592
		c4.935-0.808,9.916-1.324,14.876-1.954c4.882-0.619,9.737-1.299,14.55-2.329c6.041-1.291,11.757-3.025,17.253-5.871
		c5.239-2.712,9.673-5.991,13.503-10.48c8.021-9.404,12.599-18.852,14.453-31.073c1.27-8.361,0.839-16.318-0.316-24.683
		c-1.16-8.409-3.113-16.586-5.2-24.811c-2.052-8.083-4.277-16.12-6.044-24.272c-1.749-8.068-3.278-16.158-3.033-24.436l0.045-1.523
		c0.178-6.021,1.37-11.833,2.906-17.649c1.393-5.272,3.135-10.401,5.171-15.459c2.188-5.437,4.789-10.538,7.485-15.745
		c-11.691,1.408-20.848,1.404-30.742-5.079C172.358,13.552,168.068,7.562,163.154,0c-8.587,6.654-16.317,11.061-27.06,11.497
		c-12.116,0.492-21.317-4.299-31.066-11.327C95.551,7.154,85.887,11.979,74.077,11.497L74.077,11.497z M105.076,3.538
		C85.478,17.839,65.643,17.734,47.705,3.934c-10.472,16.236-23.55,24.7-43.076,22.589c6.028,11.451,13.842,32,13.612,48.725
		C17.685,115.763-15.419,164,17.425,201.182c13.439,15.214,33.218,16.398,52.718,18.896c12.502,1.601,24.772,4.003,34.94,14.189
		c10.167-10.187,22.438-12.589,34.94-14.189c19.5-2.497,39.278-3.682,52.718-18.896c32.845-37.183-0.26-85.419-0.816-125.935
		c-0.229-16.725,7.584-37.273,13.612-48.725c-19.525,2.11-32.604-6.353-43.076-22.589c-17.937,13.8-37.771,13.904-57.368-0.395
		l-0.01-0.007L105.076,3.538L105.076,3.538z"/>
	<path fill-rule="evenodd" clip-rule="evenodd" fill="#0070B7" d="M17.382,42.301c2.16,6.202,3.919,12.458,5.08,18.925
		c0.844,4.698,1.381,9.35,1.267,14.124c-0.198,8.367-1.45,16.37-3.22,24.54c-1.787,8.247-4.034,16.376-6.11,24.554
		c-2.013,7.926-3.902,15.807-5.024,23.91c-1.049,7.578-1.405,14.783-0.323,22.369c0.886,6.215,2.635,11.563,5.614,17.092
		c2.177,4.043,4.798,7.626,7.99,10.942c2.962,3.077,6.192,5.452,9.993,7.398c6.4,3.279,13.182,4.896,20.241,6.084
		c4.735,0.798,9.502,1.349,14.268,1.935c4.476,0.55,8.939,1.102,13.363,1.98c4.638,0.922,9.1,2.167,13.442,4.048
		c4.014,1.738,7.712,3.944,11.123,6.698c3.059-2.47,6.352-4.51,9.916-6.155c5.095-2.353,10.364-3.8,15.87-4.825
		c5.229-0.975,10.516-1.541,15.792-2.194c5.259-0.649,10.496-1.335,15.68-2.439c5.308-1.13,10.347-2.638,15.181-5.13
		c3.795-1.957,7.028-4.32,9.99-7.398c3.192-3.317,5.815-6.898,7.992-10.943c2.978-5.53,4.727-10.877,5.613-17.092
		c1.082-7.585,0.727-14.792-0.323-22.368c-1.122-8.104-3.012-15.985-5.023-23.911c-2.076-8.178-4.323-16.307-6.11-24.554
		c-1.771-8.171-3.023-16.173-3.223-24.542c-0.113-4.775,0.425-9.423,1.268-14.121c1.161-6.468,2.923-12.723,5.083-18.926
		c1.188-3.408,2.512-6.753,3.949-10.065c-7.236-0.341-14.114-2.453-20.279-6.189c-6.206-3.761-10.973-8.715-15.367-14.459
		c-8.167,5.223-17.024,8.225-26.713,8.175c-10.666-0.056-20.411-3.703-29.294-9.569c-8.886,5.866-18.626,9.514-29.294,9.569
		c-9.69,0.05-18.544-2.953-26.713-8.176c-4.396,5.746-9.161,10.701-15.369,14.46c-6.168,3.736-13.038,5.848-20.278,6.189
		C14.871,35.547,16.195,38.894,17.382,42.301L17.382,42.301z"/>
	<path fill-rule="evenodd" clip-rule="evenodd" fill="#F4B233" d="M17.382,42.301c2.16,6.202,3.919,12.458,5.08,18.925
		c0.844,4.698,1.381,9.35,1.267,14.124c-0.198,8.367-1.45,16.37-3.22,24.54c-1.787,8.247-4.034,16.376-6.11,24.554
		c-2.013,7.926-3.902,15.807-5.024,23.91c-1.049,7.578-1.405,14.783-0.323,22.369c0.886,6.215,2.635,11.563,5.614,17.092
		c2.177,4.043,4.798,7.626,7.99,10.942c2.962,3.077,6.192,5.452,9.993,7.398c0.969,0.497,1.945,0.954,2.931,1.378V24.85
		c-0.61,0.412-1.23,0.81-1.869,1.197c-6.168,3.736-13.038,5.848-20.278,6.189C14.871,35.547,16.195,38.894,17.382,42.301
		L17.382,42.301z M77.431,215.59c1.031,0.174,2.062,0.36,3.088,0.564c4.638,0.922,9.1,2.167,13.442,4.048
		c4.014,1.738,7.712,3.944,11.123,6.698c3.059-2.47,6.352-4.51,9.916-6.155c5.095-2.353,10.364-3.8,15.87-4.825
		c0.683-0.127,1.365-0.248,2.05-0.362V19.733c-10.098-0.364-19.358-3.941-27.835-9.54c-8.428,5.564-17.626,9.132-27.654,9.532
		V215.59L77.431,215.59z M174.771,207.461c0.924-0.403,1.842-0.836,2.751-1.305c3.795-1.957,7.028-4.32,9.99-7.398
		c3.192-3.317,5.815-6.898,7.992-10.943c2.978-5.53,4.727-10.877,5.613-17.092c1.082-7.585,0.727-14.792-0.323-22.368
		c-1.122-8.104-3.012-15.985-5.023-23.911c-2.076-8.178-4.323-16.307-6.11-24.554c-1.771-8.171-3.023-16.173-3.223-24.542
		c-0.113-4.775,0.425-9.423,1.268-14.121c1.161-6.468,2.923-12.723,5.083-18.926c1.188-3.408,2.512-6.753,3.949-10.065
		c-7.236-0.341-14.114-2.453-20.279-6.189c-0.574-0.348-1.138-0.705-1.688-1.073V207.461L174.771,207.461z"/>
	<path fill-rule="evenodd" clip-rule="evenodd" fill="#EA222A" d="M105.138,42.21c38.431,0,69.596,31.166,69.596,69.596
		c0,38.431-31.165,69.597-69.596,69.597c-38.43,0-69.596-31.166-69.596-69.597C35.542,73.376,66.708,42.21,105.138,42.21
		L105.138,42.21z"/>
	<path fill-rule="evenodd" clip-rule="evenodd" fill="#FFFFFF" d="M104.767,55.09c31.113,0,56.345,25.231,56.345,56.345
		s-25.231,56.345-56.345,56.345s-56.345-25.231-56.345-56.345S73.653,55.09,104.767,55.09L104.767,55.09z"/>
	<path fill="#FFFFFF" d="M51.263,83.521l-0.087,0.15c-0.026,0.045-0.052,0.089-0.077,0.134c-0.039,0.067-0.068,0.117-0.087,0.151
		c-0.081,0.14-0.192,0.28-0.333,0.422c-0.37,0.42-0.834,0.726-1.394,0.917c-0.559,0.191-1.211,0.072-1.957-0.358
		c-0.74-0.428-1.166-0.931-1.277-1.509c-0.111-0.578-0.085-1.14,0.081-1.686l0.169-0.427l0.223-0.386l0.034-0.059l0.029-0.05
		l-0.663-0.382l0.049-0.084l0.948-1.643l0.663,0.382l0.039-0.067l0.039-0.066c0.055-0.096,0.111-0.193,0.169-0.294
		c0.054-0.094,0.097-0.167,0.126-0.217c0.096-0.168,0.263-0.347,0.502-0.537c0.33-0.301,0.753-0.514,1.268-0.637
		c0.515-0.125,1.109,0.008,1.784,0.398c0.766,0.442,1.201,0.954,1.303,1.535c0.104,0.582,0.067,1.141-0.108,1.681l-0.203,0.486
		l-0.242,0.419l0.822,0.474l-0.048,0.084l-0.949,1.643L51.263,83.521L51.263,83.521z M47.81,81.371
		c-0.181,0.313-0.252,0.584-0.213,0.815c0.038,0.23,0.116,0.432,0.232,0.604c0.066,0.091,0.154,0.178,0.262,0.264l0.234,0.135
		l0.235,0.136c0.084,0.049,0.213,0.082,0.388,0.101c0.176,0.02,0.375-0.014,0.601-0.101c0.225-0.086,0.427-0.286,0.608-0.598
		L47.81,81.371L47.81,81.371z M51.035,81.244l0.114-0.236l0.08-0.312c0.037-0.209,0.013-0.429-0.076-0.659s-0.299-0.44-0.632-0.632
		c-0.338-0.195-0.625-0.272-0.864-0.23c-0.238,0.041-0.439,0.13-0.608,0.263c-0.063,0.045-0.138,0.123-0.222,0.23l-0.156,0.212
		L51.035,81.244L51.035,81.244z"/>
	<polygon fill="#FFFFFF" points="55.419,75.068 50.003,73.958 50.064,73.883 51.471,72.145 54.391,72.877 52.927,70.348 
		52.988,70.272 54.285,68.67 57.632,75.303 57.571,75.378 56.292,76.958 55.419,75.068 	"/>
	<polygon fill="#FFFFFF" points="57.835,67.135 56.799,68.208 55.63,67.079 55.698,67.009 59.086,63.5 60.256,64.629 59.22,65.701 
		62.924,69.278 62.856,69.348 61.539,70.712 57.835,67.135 	"/>
	<path fill="#FFFFFF" d="M61.683,61.183l0.076-0.06l3.943-3.08l1.001,1.281l-2.448,1.913l0.625,0.8l0.786-0.613l0.419-0.328
		c0.147-0.115,0.373-0.235,0.679-0.357c0.305-0.123,0.665-0.161,1.079-0.112c0.408,0.029,0.797,0.282,1.17,0.76
		c0.376,0.481,0.54,0.932,0.488,1.348c-0.052,0.415-0.187,0.777-0.408,1.081c-0.074,0.114-0.147,0.218-0.223,0.305
		c-0.075,0.087-0.155,0.165-0.242,0.232l-0.419,0.328l-0.077,0.06l-2.281,1.782L61.683,61.183L61.683,61.183z M67.155,63.786
		c0.214-0.167,0.362-0.345,0.444-0.532c0.083-0.187,0.038-0.393-0.138-0.617c-0.167-0.214-0.35-0.306-0.549-0.278
		c-0.199,0.029-0.41,0.13-0.634,0.305l-0.564,0.441l0.876,1.121L67.155,63.786L67.155,63.786z"/>
	<path fill="#FFFFFF" d="M71.789,60.881c-0.889-0.326-1.565-0.907-2.029-1.742c-0.462-0.835-0.601-1.714-0.415-2.636
		c0.187-0.922,0.807-1.676,1.863-2.261l0.084-0.046c1.044-0.579,2.011-0.702,2.901-0.367c0.89,0.335,1.563,0.914,2.021,1.739
		c0.464,0.837,0.603,1.715,0.415,2.635c-0.188,0.92-0.809,1.673-1.864,2.258l-0.084,0.047
		C73.652,61.076,72.688,61.201,71.789,60.881L71.789,60.881z M74.107,58.976l0.158-0.154c0.238-0.222,0.395-0.524,0.47-0.909
		c0.075-0.384-0.031-0.835-0.319-1.354c-0.285-0.514-0.607-0.836-0.97-0.971c-0.362-0.135-0.705-0.168-1.029-0.101l-0.21,0.061
		l-0.169,0.094l-0.195,0.108l-0.166,0.159c-0.207,0.212-0.348,0.514-0.424,0.903c-0.076,0.389,0.026,0.835,0.305,1.337
		c0.284,0.514,0.605,0.84,0.96,0.975c0.355,0.135,0.689,0.173,1.003,0.112l0.214-0.053l0.194-0.108L74.107,58.976L74.107,58.976z"/>
	<path fill="#FFFFFF" d="M82.183,49.303l2.428,6.325l-0.091,0.035l-1.771,0.68l-1.845-4.807l-1.174,0.451l0.958,2.498l0.06,0.154
		c0.016,0.042,0.032,0.084,0.049,0.126c0.027,0.073,0.048,0.125,0.059,0.155c0.061,0.156,0.1,0.324,0.121,0.503
		c0.068,0.397,0.003,0.809-0.197,1.238c-0.2,0.432-0.688,0.795-1.463,1.093l-0.091,0.035c-0.116,0.044-0.203,0.078-0.263,0.101
		c-0.098,0.038-0.172,0.059-0.226,0.066L78.6,57.977l-0.144,0.035l-0.59-1.536l0.09-0.035l0.204,0.015l0.18-0.069
		c0.386-0.148,0.568-0.377,0.545-0.688c-0.035-0.327-0.121-0.666-0.255-1.015l-1.344-3.501l0.09-0.035L82.183,49.303L82.183,49.303z
		"/>
	<path fill="#FFFFFF" d="M86.203,47.755l0.095-0.02l1.855-0.395l0.549,2.584l0.976-0.208l0.52-0.11
		c0.183-0.039,0.438-0.047,0.767-0.023c0.328,0.023,0.669,0.145,1.023,0.366c0.354,0.222,0.594,0.631,0.721,1.23
		c0.126,0.592,0.074,1.063-0.155,1.412c-0.229,0.349-0.51,0.611-0.842,0.788c-0.107,0.056-0.216,0.11-0.327,0.16
		c-0.111,0.05-0.221,0.086-0.328,0.11l-0.52,0.11l-0.096,0.02l-2.83,0.602L86.203,47.755L86.203,47.755z M89.98,52.493
		c0.266-0.057,0.477-0.151,0.633-0.283c0.157-0.132,0.206-0.337,0.146-0.615c-0.056-0.265-0.18-0.428-0.371-0.49
		c-0.191-0.062-0.426-0.063-0.704-0.003l-0.7,0.148l0.296,1.392L89.98,52.493L89.98,52.493z"/>
	<polygon fill="#FFFFFF" points="94.488,46.065 94.585,46.053 96.467,45.822 96.765,48.243 98.955,47.974 98.658,45.553 
		98.754,45.541 100.636,45.31 101.462,52.034 101.366,52.046 99.484,52.277 99.153,49.587 96.963,49.856 97.293,52.546 
		97.197,52.558 95.314,52.79 94.488,46.065 	"/>
	<path fill="#FFFFFF" d="M104.461,45.083l0.097,0.006l1.892,0.132l-0.185,2.635l0.994,0.07l0.532,0.038
		c0.187,0.013,0.434,0.075,0.743,0.189c0.309,0.112,0.603,0.324,0.882,0.634s0.397,0.77,0.355,1.381
		c-0.043,0.604-0.223,1.042-0.539,1.314c-0.316,0.272-0.659,0.447-1.026,0.525c-0.118,0.024-0.237,0.046-0.358,0.063
		c-0.121,0.018-0.236,0.022-0.345,0.015l-0.531-0.037l-0.098-0.007l-2.886-0.202L104.461,45.083L104.461,45.083z M106.786,50.679
		c0.271,0.019,0.499-0.015,0.687-0.098c0.187-0.083,0.291-0.267,0.311-0.551c0.019-0.271-0.056-0.461-0.222-0.573
		c-0.167-0.112-0.392-0.178-0.676-0.197l-0.714-0.05l-0.1,1.419L106.786,50.679L106.786,50.679z M110.409,45.499l0.097,0.007
		l1.893,0.132l-0.473,6.758l-0.098-0.006l-1.892-0.133L110.409,45.499L110.409,45.499z"/>
	<path fill="#FFFFFF" d="M117.606,46.474l-0.815,3.833l3.286-3.309l0.096,0.021l1.817,0.386l-1.409,6.627l-0.095-0.02l-1.789-0.38
		l0.813-3.825l-3.246,3.308l-0.095-0.021l-1.855-0.394l1.408-6.627l0.095,0.02L117.606,46.474L117.606,46.474z M118.477,44.758
		l0.094,0.02c0.01,0.143,0.042,0.263,0.097,0.357c0.057,0.096,0.128,0.174,0.214,0.231l0.158,0.095l0.15,0.032l0.151,0.032
		l0.184-0.022c0.096-0.014,0.188-0.051,0.281-0.111c0.092-0.061,0.173-0.161,0.242-0.301l0.094,0.02l0.995,0.627
		c-0.237,0.339-0.548,0.555-0.935,0.648c-0.385,0.093-0.771,0.098-1.156,0.016l-0.094-0.02c-0.442-0.094-0.809-0.269-1.101-0.526
		s-0.472-0.566-0.539-0.931L118.477,44.758L118.477,44.758z"/>
	<polygon fill="#FFFFFF" points="129.506,49.922 129.596,49.962 131.328,50.733 130.226,53.209 133.104,51.524 133.193,51.564 
		135.228,52.47 131.541,54.419 132.533,58.686 132.445,58.647 130.278,57.682 129.698,54.394 128.572,56.923 128.484,56.883 
		126.751,56.112 129.506,49.922 	"/>
	<path fill="#FFFFFF" d="M143.066,57.261l-3.689,5.682l-0.082-0.053l-1.591-1.033l2.805-4.318l-1.056-0.685l-1.457,2.244
		l-0.09,0.139c-0.024,0.037-0.049,0.076-0.074,0.114c-0.042,0.064-0.072,0.111-0.09,0.139c-0.092,0.141-0.203,0.271-0.336,0.394
		c-0.281,0.288-0.653,0.477-1.118,0.568c-0.467,0.091-1.047-0.089-1.744-0.542l-0.081-0.053c-0.104-0.067-0.183-0.118-0.236-0.153
		c-0.089-0.057-0.149-0.105-0.187-0.145l-0.098-0.097l-0.112-0.097l0.896-1.379l0.08,0.053l0.107,0.173l0.162,0.105
		c0.347,0.225,0.639,0.238,0.877,0.037c0.243-0.221,0.467-0.489,0.671-0.803l2.043-3.145l0.081,0.053L143.066,57.261L143.066,57.261
		z"/>
	<polygon fill="#FFFFFF" points="144.008,64.296 145.212,58.901 145.286,58.963 146.999,60.4 146.216,63.306 148.771,61.887 
		148.845,61.949 150.424,63.274 143.734,66.504 143.66,66.442 142.104,65.136 144.008,64.296 	"/>
	<path fill="#FFFFFF" d="M151.825,64.663l0.067,0.07l3.477,3.599l-1.169,1.129l-2.159-2.234l-0.73,0.706l0.692,0.717l0.37,0.383
		c0.13,0.134,0.271,0.347,0.426,0.638c0.154,0.291,0.229,0.645,0.224,1.062c0.015,0.408-0.196,0.822-0.633,1.243
		c-0.44,0.425-0.87,0.634-1.29,0.626c-0.418-0.008-0.792-0.104-1.117-0.293c-0.122-0.061-0.231-0.124-0.326-0.19
		c-0.095-0.065-0.181-0.137-0.257-0.216l-0.37-0.383l-0.066-0.069l-2.011-2.082L151.825,64.663L151.825,64.663z M149.81,70.377
		c0.188,0.195,0.381,0.323,0.575,0.386c0.195,0.063,0.395-0.004,0.6-0.202c0.195-0.188,0.268-0.38,0.219-0.574
		c-0.05-0.195-0.173-0.395-0.37-0.599l-0.498-0.516l-1.023,0.988L149.81,70.377L149.81,70.377z"/>
	<polygon fill="#FFFFFF" points="58.221,160.682 57.139,159.522 59.227,157.575 57.577,155.805 55.489,157.752 54.413,156.598 
		59.509,151.846 60.585,153 58.61,154.841 60.26,156.611 62.235,154.769 63.317,155.93 58.221,160.682 	"/>
	<path fill="#FFFFFF" d="M64.449,166.039c-0.819-0.596-1.31-1.386-1.47-2.373c-0.161-0.985,0.057-1.888,0.652-2.707
		c0.595-0.82,1.385-1.304,2.369-1.45c0.984-0.146,1.885,0.077,2.705,0.674c0.83,0.603,1.325,1.39,1.486,2.359
		c0.161,0.97-0.061,1.871-0.664,2.7c-0.599,0.825-1.388,1.314-2.366,1.47C66.183,166.866,65.279,166.642,64.449,166.039
		L64.449,166.039z M67.862,161.341c-0.47-0.342-0.991-0.454-1.563-0.336c-0.572,0.119-1.031,0.416-1.376,0.891
		c-0.345,0.476-0.488,1.006-0.428,1.593c0.06,0.586,0.326,1.049,0.796,1.391c0.479,0.349,1.01,0.46,1.59,0.33
		c0.553-0.125,1.006-0.43,1.359-0.915c0.353-0.485,0.498-1.011,0.436-1.579C68.614,162.148,68.342,161.69,67.862,161.341
		L67.862,161.341z"/>
	<path fill="#FFFFFF" d="M77.261,171.164c-0.669,1.259-1.756,1.489-3.26,0.689l-2.059-1.096l3.271-6.152l2.034,1.082
		c0.575,0.305,0.97,0.669,1.185,1.09c0.251,0.491,0.23,1.011-0.061,1.557c-0.306,0.575-0.763,0.866-1.373,0.871
		C77.56,169.788,77.646,170.44,77.261,171.164L77.261,171.164z M76.904,167.816c0.2-0.375,0.06-0.69-0.418-0.944l-0.582-0.31
		l-0.645,1.213l0.522,0.277C76.299,168.329,76.674,168.25,76.904,167.816L76.904,167.816z M74.687,168.852l-0.731,1.376l0.748,0.397
		c0.578,0.308,0.988,0.233,1.231-0.222c0.245-0.462,0.087-0.842-0.474-1.141L74.687,168.852L74.687,168.852z"/>
	<path fill="#FFFFFF" d="M84.337,176.241c-0.958-0.329-1.658-0.942-2.101-1.839c-0.442-0.896-0.498-1.821-0.168-2.78
		c0.33-0.957,0.943-1.65,1.842-2.078s1.826-0.478,2.784-0.147c0.97,0.334,1.673,0.941,2.111,1.822
		c0.437,0.882,0.488,1.806,0.155,2.775c-0.332,0.965-0.943,1.663-1.833,2.098C86.237,176.525,85.307,176.575,84.337,176.241
		L84.337,176.241z M86.228,170.75c-0.549-0.188-1.081-0.144-1.593,0.138c-0.514,0.279-0.866,0.698-1.057,1.253
		s-0.172,1.104,0.057,1.647c0.229,0.543,0.619,0.909,1.168,1.099c0.561,0.192,1.101,0.144,1.617-0.149
		c0.492-0.281,0.836-0.706,1.032-1.272c0.195-0.567,0.181-1.114-0.045-1.638C87.182,171.303,86.788,170.944,86.228,170.75
		L86.228,170.75z"/>
	<polygon fill="#FFFFFF" points="98.65,179.052 97.078,178.831 97.851,173.33 95.599,173.012 94.826,178.514 93.255,178.293 
		94.224,171.393 99.62,172.151 98.65,179.052 	"/>
	<path fill="#FFFFFF" d="M107.181,179.364c-1.013,0.034-1.886-0.287-2.62-0.965c-0.734-0.677-1.118-1.522-1.154-2.536
		c-0.035-1.012,0.289-1.879,0.975-2.6c0.685-0.722,1.534-1.1,2.546-1.135c1.025-0.036,1.899,0.279,2.624,0.944
		c0.724,0.666,1.103,1.512,1.139,2.536c0.035,1.019-0.284,1.891-0.959,2.615C109.056,178.948,108.205,179.328,107.181,179.364
		L107.181,179.364z M106.979,173.56c-0.581,0.021-1.061,0.253-1.439,0.698c-0.377,0.446-0.557,0.963-0.536,1.549
		c0.021,0.588,0.235,1.094,0.644,1.519c0.408,0.425,0.904,0.627,1.484,0.606c0.592-0.021,1.078-0.261,1.456-0.72
		c0.358-0.438,0.528-0.957,0.507-1.557c-0.021-0.6-0.23-1.105-0.628-1.514C108.066,173.734,107.57,173.54,106.979,173.56
		L106.979,173.56z"/>
	<polygon fill="#FFFFFF" points="121.647,177.277 120.042,177.588 117.558,172.875 117.011,178.178 115.405,178.491 
		116.317,171.214 118.075,170.873 121.647,177.277 	"/>
	<path fill="#FFFFFF" d="M129.666,174.711c-0.94,0.38-1.87,0.377-2.792-0.01c-0.921-0.386-1.571-1.049-1.951-1.988
		s-0.371-1.864,0.026-2.776s1.064-1.558,2.005-1.938c0.95-0.384,1.88-0.388,2.788-0.01c0.907,0.378,1.554,1.042,1.938,1.993
		c0.382,0.945,0.379,1.874-0.008,2.785S130.617,174.328,129.666,174.711L129.666,174.711z M127.49,169.328
		c-0.539,0.218-0.91,0.6-1.112,1.148c-0.203,0.548-0.194,1.095,0.025,1.64c0.22,0.544,0.595,0.945,1.124,1.205
		s1.063,0.28,1.603,0.063c0.549-0.223,0.924-0.612,1.122-1.174c0.188-0.535,0.169-1.08-0.057-1.637
		c-0.225-0.557-0.594-0.959-1.108-1.207C128.573,169.118,128.04,169.106,127.49,169.328L127.49,169.328z"/>
	<polygon fill="#FFFFFF" points="144.366,168.291 143.164,169.071 142.426,167.935 138.49,170.492 134.694,164.648 136.025,163.782 
		139.052,168.442 140.968,167.198 137.941,162.539 139.272,161.674 142.298,166.333 142.858,165.97 144.366,168.291 	"/>
	<polygon fill="#FFFFFF" points="153.453,158.724 152.103,160.028 148.421,159.197 150.612,161.466 149.471,162.569 144.63,157.556 
		145.771,156.454 148.011,158.772 147.324,154.955 148.55,153.771 149.209,157.951 153.453,158.724 	"/>
	<path fill-rule="evenodd" clip-rule="evenodd" d="M105.139,54.145c31.84,0,57.662,25.822,57.662,57.662
		c0,31.839-25.822,57.662-57.662,57.662c-31.84,0-57.662-25.822-57.662-57.662C47.477,79.966,73.298,54.145,105.139,54.145
		L105.139,54.145z M123.359,60.785c10.253,3.664,19.08,10.33,25.422,18.94l-5.437,1.063c-5.172-6.363-11.9-11.407-19.605-14.557
		L123.359,60.785L123.359,60.785z M159.297,111.101c0.003,0.235,0.009,0.47,0.009,0.706c0,10.393-2.931,20.101-8.008,28.348
		l-3.03-4.632c3.644-6.61,5.813-14.147,6.061-22.168L159.297,111.101L159.297,111.101z M126.204,161.722
		c-6.476,2.738-13.594,4.252-21.065,4.252c-6.581,0-12.887-1.177-18.723-3.327l3.947-3.884c4.665,1.468,9.627,2.26,14.776,2.26
		c6.015,0,11.775-1.081,17.103-3.058L126.204,161.722L126.204,161.722z M60.348,142.268c-5.916-8.681-9.376-19.167-9.376-30.461
		c0-0.423,0.007-0.844,0.017-1.265l4.95,2.478c0.219,9.02,2.867,17.436,7.312,24.625L60.348,142.268L60.348,142.268z M61.828,79.277
		c7.01-9.317,16.955-16.302,28.461-19.576l-0.899,5.464c-8.791,2.968-16.472,8.354-22.25,15.364L61.828,79.277L61.828,79.277z
		 M104.331,77.749l0.007,11.562l-22.422,15.063l8.278,23.558l-7.447,9.609l-16.538-1.753c-4.103-6.645-6.554-14.417-6.776-22.745
		l14.606-11.927L69.855,82.73c5.34-6.472,12.426-11.45,20.536-14.213L104.331,77.749L104.331,77.749z M107.81,89.665l-0.008-11.699
		l14.651-8.484c7.109,2.913,13.324,7.563,18.112,13.425l-4.276,18.364l14.546,11.999c-0.233,7.401-2.225,14.358-5.572,20.468
		l-16.473,2.614l-7.474-8.108l8.389-23.871L107.81,89.665L107.81,89.665z M118.533,130.345l7.528,8.167l-5.07,16.189
		c-4.939,1.827-10.278,2.827-15.853,2.827c-4.739,0-9.31-0.723-13.609-2.062l-5.92-15.952l7.107-9.17H118.533L118.533,130.345z"/>
	<path fill-rule="evenodd" clip-rule="evenodd" fill="#FFFFFF" d="M152.771,88.019c0.337-6.344,4.072-11.777,4.814-16.997
		c0.399-2.801,0.392-3.121,0.453-7.017c7.852,7.324,13.887,14.471,13.988,24.154c-0.036,2.755-0.302,5.133-1.123,7.009
		c-0.044,0.114-0.091,0.225-0.138,0.336l4.4,0.001l-0.057,11.236l9.535,0.001v10.141h-9.535v10.782H31.051v-10.78l-7.445,0v-10.061
		l7.445,0.029V95.449l123.154,0.049C153.183,93.14,152.789,90.24,152.771,88.019L152.771,88.019z"/>
	<path fill-rule="evenodd" clip-rule="evenodd" d="M33.69,99.364h3.97v10.496h10.081V99.364h3.971v10.496h2.149v-1.597h-0.005
		c0-0.615,0.005-1.23,0.005-1.846c0.069-2.337,2.617-7.992,9.115-7.971c6.259,0.02,9.175,5.374,9.134,8.197v18.139H68.14v-10.952
		H57.832v10.952h-3.971v-10.952h-2.149v10.952h-3.971v-10.952H37.661v10.855v0.097h-3.97v-10.952h-6.474v-3.971h6.474V99.364
		L33.69,99.364z M57.832,107.292v2.568H68.14c0-0.949,0.009-1.873-0.038-2.819c-0.275-2.697-2.324-4.625-5.126-4.624
		S58.007,104.457,57.832,107.292L57.832,107.292z"/>
	<path fill-rule="evenodd" clip-rule="evenodd" d="M172.44,99.364h-3.971v10.497h-10.081V99.364h-3.971v10.497h-2.148v-1.597
		l0.006,0c0-0.615-0.006-1.23-0.006-1.846c-0.069-2.337-2.617-7.992-9.115-7.972c-6.26,0.02-9.175,5.374-9.135,8.197v18.139h3.971
		v-10.951h10.309v10.951h3.971v-10.951h2.148v10.951h3.971v-10.951h10.081v10.854v0.097h3.971v-10.951h8.982v-3.971h-8.982V99.364
		L172.44,99.364z M148.299,107.292v2.568H137.99c0-0.949-0.008-1.873,0.039-2.819c0.274-2.697,2.323-4.625,5.125-4.624
		C145.957,102.418,148.124,104.457,148.299,107.292L148.299,107.292z"/>
	<path fill-rule="evenodd" clip-rule="evenodd" d="M87.141,98.457c7.525-0.003,13.616,5.979,13.616,13.616
		s-6.085,13.613-13.616,13.615c-7.531,0.003-13.616-5.975-13.616-13.615C73.524,104.433,79.615,98.459,87.141,98.457L87.141,98.457z
		 M96.786,112.073c0-4.626-3.175-8.48-7.732-9.454v18.906C93.609,120.551,96.786,116.699,96.786,112.073L96.786,112.073z
		 M77.495,112.073c0,4.531,3.1,8.397,7.588,9.422v-18.845C80.649,103.662,77.494,107.499,77.495,112.073L77.495,112.073z"/>
	<path fill-rule="evenodd" clip-rule="evenodd" d="M102.591,99.364h0.029v-0.031h22.802c3.591,0.125,6.027,2.732,6.069,6.311v19.139
		h-3.971l0.015-19.188c-0.028-1.308-0.719-2.212-2.087-2.291h-5.742v21.479h-3.971v-21.479h-9.174v21.479h-3.971V99.364
		L102.591,99.364z"/>
	<path fill-rule="evenodd" clip-rule="evenodd" d="M159.812,68.864c-0.045,3.419-0.316,4.934-0.75,6.543
		c-1.123,4.175-2.918,7.635-3.12,13.039c-0.15,4.025,1.789,9.954,6.82,9.695c5.03-0.259,6.813-5.739,6.503-10.608
		C168.783,80.013,164.676,74.261,159.812,68.864L159.812,68.864z"/>
	<path fill-rule="evenodd" clip-rule="evenodd" fill="#FFFFFF" d="M159.886,80.618c-0.03,1.623-1.243,2.468-1.327,4.708
		c-0.049,1.319,0.529,2.084,1.354,2.118s1.688-0.797,1.719-2.18C161.642,84.82,161.48,82.387,159.886,80.618L159.886,80.618z"/>
</g>
</svg>
