<?xml version="1.0" encoding="UTF-8" standalone="no"?>
<svg
   xmlns:dc="http://purl.org/dc/elements/1.1/"
   xmlns:cc="http://creativecommons.org/ns#"
   xmlns:rdf="http://www.w3.org/1999/02/22-rdf-syntax-ns#"
   xmlns:svg="http://www.w3.org/2000/svg"
   xmlns="http://www.w3.org/2000/svg"
   xmlns:sodipodi="http://sodipodi.sourceforge.net/DTD/sodipodi-0.dtd"
   xmlns:inkscape="http://www.inkscape.org/namespaces/inkscape"
   inkscape:version="1.0 (4035a4f, 2020-05-01)"
   sodipodi:docname="FC_Internazionale_Milano_2021.svg"
   id="svg6327"
   xml:space="preserve"
   viewBox="0 0 840 840"
   version="1.1"
   enable-background="new 0 0 840 840"><metadata
   id="metadata6333"><rdf:RDF><cc:Work
       rdf:about=""><dc:format>image/svg+xml</dc:format><dc:type
         rdf:resource="http://purl.org/dc/dcmitype/StillImage" /></cc:Work></rdf:RDF></metadata><defs
   id="defs6331" /><sodipodi:namedview
   inkscape:current-layer="svg6327"
   inkscape:window-maximized="1"
   inkscape:window-y="25"
   inkscape:window-x="0"
   inkscape:cy="420"
   inkscape:cx="420"
   inkscape:zoom="0.69748176"
   showgrid="false"
   id="namedview6329"
   inkscape:window-height="793"
   inkscape:window-width="1440"
   inkscape:pageshadow="2"
   inkscape:pageopacity="0"
   guidetolerance="10"
   gridtolerance="10"
   objecttolerance="10"
   borderopacity="1"
   bordercolor="#666666"
   pagecolor="#ffffff" />
<style
   id="style6311"
   type="text/css">
	.st0{fill:#011EA0;}
	.st1{fill:#FFFFFF;}
</style>
<circle
   id="circle6313"
   stroke-width="1.2009"
   r="420"
   cy="-420"
   cx="420"
   transform="scale(1,-1)" /><circle
   style="fill:#00239c;fill-opacity:1"
   id="circle6315"
   stroke-width="1.0177"
   fill="#011ea0"
   r="360"
   cy="-420"
   cx="420"
   transform="scale(1,-1)" /><path
   id="path6317"
   d="m645.2 221.8-28.4 60.8c27.2 39 43.2 86.3 43.2 137.4 0 42.8-11.2 82.9-30.8 117.7l7.8 89.5c51.4-53.8 83-126.8 83-207.1 0-76.1-28.2-145.4-74.8-198.3z"
   class="st1" /><path
   id="path6319"
   d="m450.4 658.1v-476.2c25.2 3.2 49.2 10.3 71.3 20.7l25.4-54.4c-38.6-18.1-81.7-28.2-127.1-28.2s-88.5 10.1-127.1 28.2l25.4 54.4c22.4-10.5 46.7-17.6 72.2-20.8v476.4c-23.8-2.9-46.6-9.4-67.7-18.7l-5.5 62.5c32 11.6 66.6 18 102.7 18 36.2 0 71-6.4 103.1-18.2l-5.5-62.5c-20.9 9.4-43.5 15.8-67.2 18.8z"
   class="st1" /><path
   id="path6321"
   d="m194.8 221.8c-46.6 52.9-74.8 122.2-74.8 198.2 0 80.5 31.7 153.6 83.3 207.4l7.8-89.3c-19.8-34.8-31.1-75.1-31.1-118.1 0-51.1 16-98.4 43.2-137.3z"
   class="st1" /><path
   id="path6323"
   d="m577.7 294.5 44.7-95.9c-15.1-13.8-31.5-26-49.2-36.5l-92.6 198.8v142l46.4-99.5 25 286.1c20.4-10 39.5-22.3 57-36.5z"
   class="st1" /><path
   id="path6325"
   d="m360.6 364.2-94.1-201.9c-17.6 10.5-34.1 22.8-49.1 36.6l44.9 96.3-0.1 1.7-31.1 356.1c17.5 14.2 36.6 26.5 57 36.5l25-285.6 47.7 102.3v-142z"
   class="st1" />
</svg>
