<?xml version="1.0" encoding="utf-8"?>
<!-- Generator: Adobe Illustrator 15.0.0, SVG Export Plug-In . SVG Version: 6.00 Build 0)  -->
<!DOCTYPE svg PUBLIC "-//W3C//DTD SVG 1.1//EN" "http://www.w3.org/Graphics/SVG/1.1/DTD/svg11.dtd">
<svg version="1.1" id="Слой_1" xmlns="http://www.w3.org/2000/svg" xmlns:xlink="http://www.w3.org/1999/xlink" x="0px" y="0px"
	 width="70px" height="62px" viewBox="0 0 70 62" enable-background="new 0 0 70 62" xml:space="preserve">
<g>
	<path fill-rule="evenodd" clip-rule="evenodd" fill="#FFFFFF" d="M65.271,22.602c2.879,1.521,4.842,4.545,4.842,8.025
		c0,3.39-1.861,6.347-4.615,7.904c-3.375,13.725-15.766,23.908-30.529,23.908c-14.782,0-27.186-10.209-30.542-23.961
		c-2.706-1.57-4.525-4.498-4.525-7.851c0-3.443,1.922-6.441,4.751-7.979C8.312,9.341,20.499-0.439,34.969-0.439
		C49.42-0.439,61.598,9.318,65.271,22.602L65.271,22.602z"/>
	<path fill-rule="evenodd" clip-rule="evenodd" fill="#00438D" d="M35.007,0.219c16.997,0,30.782,13.784,30.782,30.781
		c0,16.996-13.785,30.781-30.782,30.781S4.226,47.996,4.226,31C4.226,14.003,18.01,0.219,35.007,0.219L35.007,0.219z"/>
	<path fill-rule="evenodd" clip-rule="evenodd" fill="#FFFFFF" d="M35.007,1.448c16.319,0,29.554,13.233,29.554,29.553
		c0,16.318-13.234,29.554-29.554,29.554S5.454,47.318,5.454,31C5.454,14.681,18.688,1.448,35.007,1.448L35.007,1.448z"/>
	<path fill="#00438D" d="M14.836,18.1c-0.335,0.422-0.685,0.662-1.054,0.723c-0.369,0.057-0.729-0.027-1.078-0.254
		c-0.358-0.232-0.582-0.531-0.671-0.9c-0.09-0.367-0.012-0.778,0.231-1.239l-0.386-0.249l0.321-0.496l0.387,0.25
		c0.329-0.418,0.678-0.658,1.047-0.72c0.37-0.063,0.73,0.021,1.086,0.251c0.347,0.227,0.572,0.519,0.669,0.877
		c0.098,0.361,0.021,0.781-0.23,1.264l0.389,0.25l-0.321,0.496L14.836,18.1L14.836,18.1z M12.673,16.696
		c-0.117,0.268-0.146,0.509-0.087,0.725c0.06,0.215,0.229,0.414,0.511,0.598c0.487,0.316,0.93,0.256,1.33-0.184L12.673,16.696
		L12.673,16.696z M14.748,17.338c0.117-0.269,0.146-0.511,0.088-0.727c-0.059-0.218-0.228-0.416-0.509-0.6
		c-0.487-0.315-0.932-0.253-1.332,0.188L14.748,17.338L14.748,17.338z M16.44,14.791l-2.889-0.74l0.481-0.553l2.045,0.55
		l-0.938-1.824l0.418-0.48l1.366,2.744c0.177,0.352,0.261,0.63,0.255,0.835c-0.007,0.203-0.109,0.418-0.305,0.644l-0.167,0.192
		l-0.44-0.385l0.165-0.191c0.11-0.125,0.166-0.235,0.169-0.328c0.001-0.094-0.031-0.205-0.096-0.335L16.44,14.791L16.44,14.791z
		 M19.872,12.905l-0.549,0.478l-2.088-2.4l-0.756,0.656L16.099,11.2l2.061-1.79l0.381,0.438l-0.754,0.657L19.872,12.905
		L19.872,12.905z M20.966,11.958l-1.994-3.193l2-1.249l0.289,0.462l-1.426,0.89l0.521,0.833l0.554-0.345
		c0.278-0.175,0.514-0.289,0.705-0.341c0.193-0.054,0.391-0.032,0.593,0.06c0.202,0.093,0.37,0.246,0.505,0.462
		c0.178,0.284,0.232,0.571,0.163,0.86c-0.069,0.288-0.276,0.54-0.62,0.754L20.966,11.958L20.966,11.958z M21.231,11.103l0.643-0.401
		c0.36-0.225,0.441-0.499,0.24-0.82c-0.084-0.134-0.191-0.219-0.326-0.256c-0.135-0.039-0.322,0.017-0.563,0.167l-0.585,0.365
		L21.231,11.103L21.231,11.103z M25.154,9.634c-0.457,0.203-0.89,0.19-1.296-0.039c-0.407-0.229-0.723-0.597-0.946-1.1
		c-0.223-0.5-0.274-0.979-0.153-1.437c0.121-0.456,0.402-0.785,0.846-0.982c0.446-0.198,0.873-0.186,1.283,0.035
		c0.409,0.221,0.727,0.584,0.952,1.09c0.235,0.529,0.292,1.019,0.169,1.465C25.884,9.114,25.6,9.436,25.154,9.634L25.154,9.634z
		 M24.937,9.133c0.225-0.101,0.372-0.276,0.443-0.529c0.072-0.255,0.002-0.625-0.215-1.109c-0.175-0.395-0.377-0.676-0.605-0.842
		c-0.227-0.168-0.475-0.191-0.742-0.072c-0.531,0.236-0.606,0.782-0.227,1.636c0.184,0.414,0.391,0.699,0.623,0.853
		C24.444,9.224,24.685,9.245,24.937,9.133L24.937,9.133z M27.319,8.649l-0.567,0.163l0.11-3.947l0.826-0.239l2.18,3.292l-0.699,0.2
		l-1.777-2.748l-0.037,0.011L27.319,8.649L27.319,8.649z M30.206,7.834l-0.459-3.735l0.673-0.083l0.177,1.43l0.625-0.078
		c0.352-0.043,0.624-0.042,0.817,0.001c0.192,0.043,0.358,0.154,0.495,0.33s0.223,0.387,0.252,0.633
		c0.041,0.337-0.029,0.629-0.211,0.876c-0.182,0.245-0.491,0.396-0.927,0.449L30.206,7.834L30.206,7.834z M30.808,7.171l0.718-0.088
		c0.429-0.052,0.618-0.275,0.571-0.667c-0.049-0.395-0.287-0.565-0.715-0.513l-0.719,0.088L30.808,7.171L30.808,7.171z
		 M36.311,7.433h-0.678V5.799h-1.437v1.634h-0.68V3.669h0.68v1.547h1.437V3.669h0.678V7.433L36.311,7.433z M37.902,7.228
		l-0.043,0.338l-0.674-0.083l0.459-3.734l0.674,0.083l-0.256,2.097c-0.023,0.169-0.053,0.356-0.09,0.561
		c0.15-0.239,0.33-0.469,0.531-0.691l1.291-1.402l0.045-0.378l0.67,0.082l-0.457,3.736l-0.672-0.082l0.238-1.936
		c0.041-0.335,0.074-0.563,0.102-0.683c-0.164,0.249-0.344,0.476-0.535,0.688L37.902,7.228L37.902,7.228z M41.633,7.991l-0.1,0.327
		l-0.65-0.199l1.102-3.599l0.648,0.199l-0.617,2.02c-0.051,0.164-0.111,0.342-0.184,0.538c0.189-0.209,0.404-0.405,0.643-0.587
		l1.514-1.158L44.1,5.167l0.645,0.197l-1.1,3.599l-0.646-0.198l0.57-1.864c0.1-0.324,0.172-0.542,0.219-0.654
		c-0.205,0.214-0.42,0.408-0.646,0.583L41.633,7.991L41.633,7.991z M42.914,3.645L43.26,3.75c-0.039,0.242,0.08,0.406,0.355,0.49
		c0.268,0.082,0.451,0.012,0.555-0.211l0.346,0.106c-0.07,0.198-0.201,0.347-0.389,0.442c-0.189,0.096-0.402,0.106-0.641,0.033
		c-0.227-0.069-0.393-0.192-0.5-0.369C42.879,4.064,42.855,3.865,42.914,3.645L42.914,3.645z M49.488,12.213l-0.643-0.401
		l0.342-2.045l-1.129,0.431l-0.504,0.807l-0.576-0.359l1.994-3.192l0.576,0.36L48.5,9.49c0.145-0.069,0.248-0.115,0.307-0.137
		l1.961-0.779l0.582,0.363l-1.414,0.576L49.488,12.213L49.488,12.213z M49.912,12.727l-0.453-0.38l3.334-2.115l0.66,0.553
		l-1.51,3.647l-0.557-0.468l1.283-3.011l-0.029-0.026L49.912,12.727L49.912,12.727z M53.533,14.672l1.039-2.797l0.5,0.537
		l-0.762,1.976l1.912-0.742l0.436,0.465l-2.873,1.073c-0.369,0.139-0.654,0.192-0.855,0.164c-0.203-0.027-0.406-0.151-0.609-0.369
		l-0.174-0.187l0.428-0.398l0.172,0.185c0.115,0.123,0.219,0.189,0.311,0.202c0.094,0.012,0.207-0.01,0.342-0.059L53.533,14.672
		L53.533,14.672z M54.08,17.041l3.156-2.049l1.285,1.978l-0.457,0.296l-0.916-1.408l-0.822,0.536l0.355,0.545
		c0.178,0.275,0.297,0.51,0.352,0.701c0.059,0.191,0.041,0.389-0.049,0.592c-0.09,0.205-0.24,0.375-0.453,0.514
		c-0.281,0.184-0.566,0.242-0.857,0.178c-0.289-0.063-0.545-0.266-0.766-0.607L54.08,17.041L54.08,17.041z M54.939,17.291
		l0.414,0.636c0.23,0.357,0.506,0.434,0.824,0.227c0.131-0.086,0.215-0.197,0.25-0.33c0.037-0.135-0.023-0.322-0.176-0.56
		l-0.377-0.579L54.939,17.291L54.939,17.291z"/>
	<path fill-rule="evenodd" clip-rule="evenodd" fill="#009FE3" d="M35.007,9.147c9.415,0,17.44,5.958,20.515,14.306
		c-2.168,1.682-3.518,4.303-3.518,7.174c0,2.962,1.436,5.66,3.725,7.33c-2.908,8.656-11.086,14.896-20.722,14.896
		c-9.618,0-17.785-6.217-20.706-14.85c2.325-1.67,3.787-4.387,3.787-7.376c0-2.896-1.374-5.541-3.577-7.219
		C17.597,15.083,25.61,9.147,35.007,9.147L35.007,9.147z"/>
	<path fill-rule="evenodd" clip-rule="evenodd" fill="#FFFFFF" d="M48.848,32.32c-0.846-0.293-1.154,0.49-0.998,1.297
		c0.477,2.426,1.074,5.768-0.238,8.5c-0.828,1.723-2.396,3.268-5.531,4.217c0.824-0.48,1.537-1.084,2.193-1.797
		c0.781-0.848,1.492-1.951,1.977-3.254c0.422-1.133,0.674-2.414,0.656-3.807c-0.006-0.41-0.033-0.838-0.076-1.279
		c-0.041-0.443-0.1-0.885-0.164-1.328l-0.057-0.371l-0.334,0.168c-0.984,0.49-2.059,0.975-3.195,1.445
		c0.098-1.781,0.15-3.256,0.691-4.822c0.611-1.77,2.217-2.1,2.934-2.08C47.734,29.239,48.658,29.661,48.848,32.32L48.848,32.32z"/>
	<path fill-rule="evenodd" clip-rule="evenodd" fill="#FFFFFF" d="M46.182,35.316c-1.064,0.518-2.23,1.033-3.469,1.529
		c-0.887,0.355-1.807,0.701-2.752,1.033c-0.014,0.627-0.262,1.605-0.688,2.813c2.414-0.658,4.787-1.469,7.068-2.391
		c0.018-0.268,0.025-0.539,0.021-0.816c-0.006-0.41-0.031-0.822-0.07-1.236C46.264,35.947,46.227,35.637,46.182,35.316
		L46.182,35.316z"/>
	<path fill-rule="evenodd" clip-rule="evenodd" fill="#FFFFFF" d="M37.969,43.988c3.133-0.471,5.748-1.279,7.492-2.215
		c0.102-0.221,0.197-0.447,0.283-0.68c0.236-0.631,0.414-1.314,0.52-2.041c-1.967,0.83-4.473,1.682-7.26,2.375
		c-0.109,0.283-0.225,0.576-0.35,0.877C38.438,42.838,38.207,43.4,37.969,43.988L37.969,43.988z"/>
	<path fill-rule="evenodd" clip-rule="evenodd" fill="#FFFFFF" d="M20.141,43.033L19.55,43.67c1.363,0.563,3.422,1.215,4.852,1.643
		l0.551-0.98C23.479,44.012,21.45,43.473,20.141,43.033L20.141,43.033z M26.347,41.256c-1.518,0.104-3.503,0.113-4.732,0.033
		l-0.521,0.619c1.329,0.254,3.411,0.43,4.939,0.51l0.425-0.754C26.411,41.531,26.373,41.395,26.347,41.256L26.347,41.256z
		 M20.857,42.186l-0.492,0.584c1.346,0.4,3.384,0.822,4.855,1.088l0.516-0.914C24.209,42.809,22.168,42.504,20.857,42.186
		L20.857,42.186z"/>
	<path fill-rule="evenodd" clip-rule="evenodd" fill="#FFFFFF" d="M36.709,47.063c0.037-0.002,0.076-0.002,0.115-0.004
		c1.707-0.064,3.045-0.277,4.18-0.781c1.129-0.5,2.045-1.209,2.871-2.107c0.381-0.412,0.742-0.891,1.068-1.424
		c-1.658,0.854-4.211,1.568-7.266,1.955C37.369,45.461,37.045,46.254,36.709,47.063L36.709,47.063z"/>
	<path fill-rule="evenodd" clip-rule="evenodd" fill="#FFFFFF" d="M41.754,12.541c-0.512-0.06-0.744-0.076-1.629-0.509
		c0.41-0.325,1.057-0.123,1.395-0.603c-1.248,0.045-1.619-0.341-2.344-0.672c-0.82-0.375-1.65-0.624-2.949,0.076l0.004,2.517
		c0.381-0.451,1-0.965,1.707-1.066c0.523-0.077,1.031,0.079,1.576,0.208C40.262,12.668,40.926,12.792,41.754,12.541L41.754,12.541z
		 M29.089,11.983l-0.321-0.092c1.569,10.895-0.271,20.75-6.97,29.216c7.807-5.006,14.509-7.371,20.901-7.416
		c0.328-3.412,1.449-5.138,4.301-5.093c-0.428-4.424-2.008-9.002-5.266-13.006C37.512,14.388,33.313,13.192,29.089,11.983
		L29.089,11.983z"/>
	<path fill-rule="evenodd" clip-rule="evenodd" fill="#FFFFFF" d="M38.154,36.479c0.646,0,1.178,0.594,1.258,1.361
		c0.006,0.064,0.018,0.133,0.01,0.199c-0.111,1.016-0.613,2.213-1.076,3.246c-0.584-1.033-1.455-2.023-1.455-3.246
		c0-0.08,0.004-0.16,0.014-0.236C36.996,37.053,37.521,36.479,38.154,36.479L38.154,36.479z"/>
	<path fill-rule="evenodd" clip-rule="evenodd" fill="#FFFFFF" d="M35.344,37.266c0.613,0.01,1.113,0.58,1.18,1.313
		c0.004,0.063,0.014,0.125,0.006,0.189c-0.117,0.965-0.611,2.098-1.063,3.076c-0.542-0.99-1.36-1.943-1.347-3.107
		c0.002-0.076,0.007-0.152,0.017-0.227C34.234,37.799,34.741,37.258,35.344,37.266L35.344,37.266z"/>
	<path fill-rule="evenodd" clip-rule="evenodd" fill="#FFFFFF" d="M32.675,38.02c0.583,0.018,1.049,0.566,1.103,1.262
		c0.005,0.061,0.013,0.121,0.005,0.182c-0.125,0.914-0.609,1.982-1.052,2.906c-0.501-0.947-1.267-1.863-1.237-2.969
		c0.002-0.072,0.008-0.145,0.019-0.213C31.613,38.512,32.103,38.006,32.675,38.02L32.675,38.02z"/>
	<path fill-rule="evenodd" clip-rule="evenodd" fill="#FFFFFF" d="M30.134,38.744c0.551,0.023,0.984,0.553,1.025,1.211
		c0.004,0.055,0.01,0.113,0.001,0.172c-0.131,0.863-0.606,1.869-1.038,2.736c-0.459-0.904-1.172-1.783-1.127-2.83
		c0.003-0.068,0.01-0.137,0.02-0.201C29.122,39.193,29.591,38.723,30.134,38.744L30.134,38.744z"/>
	<path fill-rule="evenodd" clip-rule="evenodd" fill="#FFFFFF" d="M27.71,39.441c0.52,0.031,0.922,0.537,0.947,1.158
		c0.004,0.055,0.009,0.109,0,0.162c-0.139,0.814-0.604,1.756-1.025,2.568c-0.42-0.861-1.077-1.703-1.019-2.689
		c0.003-0.066,0.012-0.129,0.023-0.191C26.747,39.848,27.199,39.41,27.71,39.441L27.71,39.441z"/>
	<path fill-rule="evenodd" clip-rule="evenodd" fill="#FFFFFF" d="M38.139,41.873l-2.49,6.352c-0.219,0.559-0.992,0.92-1.442,0.807
		l-0.822-0.209l3.528-9.006c0.305,0.578,0.699,1.121,1.025,1.699L38.139,41.873L38.139,41.873z"/>
	<path fill-rule="evenodd" clip-rule="evenodd" fill="#FFFFFF" d="M35.271,42.338c-0.731,1.799-1.464,3.598-2.196,5.396
		c-0.217,0.52-0.923,0.828-1.345,0.721c-0.259-0.064-0.516-0.131-0.773-0.195c1.063-2.623,2.126-5.242,3.19-7.863
		c0.279,0.545,0.643,1.057,0.94,1.604C35.149,42.111,35.211,42.225,35.271,42.338L35.271,42.338z"/>
	<path fill-rule="evenodd" clip-rule="evenodd" fill="#FFFFFF" d="M32.538,42.801c-0.635,1.482-1.27,2.963-1.904,4.445
		c-0.215,0.479-0.852,0.734-1.247,0.633c-0.241-0.061-0.481-0.123-0.724-0.184c0.95-2.24,1.9-4.48,2.852-6.721
		c0.252,0.512,0.585,0.996,0.855,1.51C32.427,42.588,32.482,42.697,32.538,42.801L32.538,42.801z"/>
	<path fill-rule="evenodd" clip-rule="evenodd" fill="#FFFFFF" d="M29.927,43.266c-0.539,1.164-1.076,2.326-1.615,3.49
		c-0.211,0.439-0.781,0.643-1.146,0.549c-0.225-0.059-0.449-0.115-0.674-0.174c0.836-1.859,1.673-3.719,2.509-5.578
		c0.228,0.48,0.528,0.936,0.773,1.416C29.825,43.066,29.876,43.166,29.927,43.266L29.927,43.266z"/>
	<path fill-rule="evenodd" clip-rule="evenodd" fill="#FFFFFF" d="M27.421,43.73l-1.32,2.537c-0.209,0.398-0.711,0.549-1.048,0.461
		l-0.625-0.16l2.169-4.438c0.202,0.447,0.472,0.873,0.691,1.322L27.421,43.73L27.421,43.73z"/>
	<path fill-rule="evenodd" clip-rule="evenodd" fill="#00438D" d="M37.48,16.858c0.383,0.098,0.766,0.193,1.146,0.291
		c0.381,0.096,0.764,0.19,1.146,0.288c0.879,1.626,1.467,3.161,1.813,4.745c0.346,1.586,0.447,3.225,0.352,5.061
		c0.469-0.033,0.939-0.064,1.41-0.098c-0.732,0.998-1.529,2.047-2.445,3.184c0.314-0.6,0.377-1.16-0.021-1.508
		c-1.098,0.115-2.195,0.234-3.293,0.35c-1.096,0.115-2.195,0.232-3.29,0.35c-0.653,0.533-1,1.234-1.18,1.922
		c-0.07-1.195-0.256-2.383-0.523-3.576c0.596-0.039,1.192-0.08,1.789-0.119c-0.697-0.91-0.848-2.162-0.571-3.252
		c0.321-1.268,1.203-2.061,2.184-2.834c0.234-0.188,0.49-0.387,0.734-0.59c0.623-0.527,1.174-1.1,1.225-1.67
		c-0.102,0.086-0.086,0.148-0.41,0.096s-0.986-0.66-1.213-1.328c-0.229-0.668-0.117-1.155,0.346-1.047
		c0.414,0.096,0.877,0.518,1.219,1.031c0.23,0.346,0.395,0.756,0.455,1.082c0.141,0.758-0.09,1.49-0.418,2.176
		c-0.635,1.332-1.299,2.5-1.141,4.045c0.076,0.75,0.383,1.498,1.158,2.053c0.42-0.029,0.842-0.059,1.264-0.088
		c0.387-3.262,0.123-6.059-1.035-9.168c-0.406-0.76-1-1.286-1.557-1.611C36.908,16.713,37.195,16.786,37.48,16.858L37.48,16.858z"/>
	<path fill-rule="evenodd" clip-rule="evenodd" fill="#00438D" d="M46.461,51.734c0.145,0.254,0.293,0.508,0.438,0.762
		c0.145,0.256,0.291,0.512,0.439,0.764c0.34-0.166,0.783-0.201,0.855-0.721c0.1-0.725-0.709-1.381-1.18-1.105
		C46.83,51.533,46.643,51.635,46.461,51.734L46.461,51.734z M44.822,51.703c0.027-0.014,0.055-0.027,0.088-0.045
		c0.186-0.094,0.365-0.191,0.553-0.295c0.201-0.107,0.4-0.215,0.602-0.326c0,0.002,0,0.004,0.002,0.006
		c0.201-0.107,0.404-0.221,0.609-0.336c1.105-0.707,1.932-0.416,2.416,0.201c0.484,0.615,0.611,1.57,0.309,2.162
		c-0.168,0.299-0.443,0.439-0.668,0.477c-0.439,0.076-0.9-0.16-1.25-0.029c0.221,0.385,0.439,0.773,0.66,1.158
		c0.223,0.385,0.445,0.768,0.664,1.154c-0.455,0.246-0.91,0.49-1.369,0.729c-0.383-0.719-0.771-1.434-1.158-2.152
		c-0.387-0.717-0.773-1.434-1.16-2.15c-0.195-0.285-0.48-0.355-0.768-0.313C44.508,51.865,44.666,51.785,44.822,51.703
		L44.822,51.703z"/>
	<path fill-rule="evenodd" clip-rule="evenodd" fill="#00438D" d="M36.572,53.92c0.031-0.008,0.066-0.012,0.098-0.016
		c0.205-0.031,0.414-0.068,0.621-0.105c0.225-0.037,0.451-0.078,0.682-0.119c0.025,0.135,0.051,0.27,0.074,0.406
		c0.301-0.33,0.652-0.666,1.006-0.76c0.299-0.08,0.697-0.092,1.072,0.113c0.371,0.201,0.725,0.617,0.902,1.426
		c-0.002,0.002-0.002,0.002-0.002,0.002c0.111,0.467,0.223,0.936,0.33,1.402c0.109,0.467,0.223,0.936,0.332,1.4
		c0.049,0.209,0.176,0.67,0.365,0.799c-0.561,0.123-0.979,0.213-1.545,0.326c-0.18-0.174-0.281-0.6-0.322-0.801
		c-0.098-0.473-0.197-0.943-0.297-1.416c-0.098-0.471-0.195-0.943-0.297-1.416c-0.367-0.871-0.91-0.898-1.438-0.49
		c0.137,0.738,0.277,1.475,0.416,2.209s0.27,1.473,0.406,2.209c-0.514,0.088-1.025,0.176-1.537,0.266
		c-0.127-0.805-0.26-1.605-0.385-2.408c-0.129-0.805-0.256-1.609-0.385-2.412c-0.094-0.33-0.336-0.488-0.625-0.541
		C36.219,53.971,36.395,53.945,36.572,53.92L36.572,53.92z"/>
	<path fill-rule="evenodd" clip-rule="evenodd" fill="#00438D" d="M30.97,53.525c0.03,0.004,0.062,0.008,0.092,0.014
		c0.211,0.031,0.416,0.064,0.627,0.096c0.229,0.033,0.455,0.068,0.682,0.098c-0.121,0.908-0.248,1.82-0.37,2.729
		s-0.255,1.818-0.376,2.729c-0.518-0.066-1.029-0.143-1.539-0.219c0.129-0.807,0.26-1.609,0.39-2.414
		c0.132-0.805,0.262-1.609,0.39-2.414c0.018-0.342-0.168-0.566-0.422-0.699C30.614,53.471,30.79,53.496,30.97,53.525L30.97,53.525z"
		/>
	<path fill-rule="evenodd" clip-rule="evenodd" fill="#00438D" d="M53.09,46.035c0.254-0.209,0.643-0.135,1.045,0.074
		c0.406,0.211,0.832,0.561,1.158,0.926c0.324,0.369,0.623,0.828,0.768,1.252c0.146,0.428,0.131,0.822-0.137,1.043
		c-0.271,0.227-0.674,0.178-1.082-0.023c-0.408-0.199-0.826-0.553-1.139-0.93c-0.313-0.379-0.592-0.859-0.729-1.299
		C52.836,46.637,52.838,46.24,53.09,46.035L53.09,46.035z M52.627,45.5c0.504-0.414,1.168-0.551,1.844-0.445
		c0.68,0.107,1.383,0.455,1.932,1.035c0.545,0.58,0.832,1.291,0.836,1.975c0.006,0.695-0.27,1.363-0.822,1.822
		c-0.559,0.461-1.281,0.627-1.984,0.514c-0.705-0.113-1.389-0.5-1.881-1.127c-0.494-0.627-0.723-1.363-0.705-2.045
		C51.865,46.551,52.121,45.918,52.627,45.5L52.627,45.5z"/>
	<path fill-rule="evenodd" clip-rule="evenodd" fill="#00438D" d="M22.934,50.467c0.027,0.014,0.058,0.029,0.085,0.045
		c0.182,0.104,0.362,0.203,0.54,0.303c0.201,0.109,0.398,0.219,0.602,0.332c-0.196,0.344-0.388,0.689-0.583,1.035
		c-0.193,0.344-0.389,0.689-0.584,1.031c0.426,0.227,0.855,0.451,1.286,0.676c0.138-0.258,0.276-0.514,0.411-0.77
		c0.137-0.256,0.271-0.512,0.408-0.77c0.125-0.32,0.027-0.592-0.173-0.801c0.155,0.08,0.313,0.164,0.466,0.246
		c0.031,0.014,0.061,0.029,0.092,0.047c0.183,0.096,0.371,0.189,0.563,0.283c0.201,0.1,0.405,0.201,0.612,0.303
		c-0.411,0.826-0.825,1.65-1.236,2.475c-0.409,0.824-0.825,1.648-1.235,2.471c-0.466-0.229-0.932-0.457-1.395-0.688
		c0.186-0.348,0.369-0.699,0.555-1.045c0.188-0.352,0.373-0.699,0.558-1.049c-0.436-0.227-0.87-0.455-1.304-0.682
		c-0.195,0.344-0.39,0.691-0.584,1.035c-0.193,0.344-0.393,0.689-0.586,1.033c-0.451-0.238-0.902-0.486-1.35-0.734
		c0.422-0.705,0.837-1.414,1.261-2.119s0.849-1.41,1.267-2.115c0.143-0.316,0.059-0.588-0.129-0.801
		C22.625,50.295,22.779,50.381,22.934,50.467L22.934,50.467z"/>
	<path fill-rule="evenodd" clip-rule="evenodd" fill="#00438D" d="M12.241,47.227c0.217,0.236,0.43,0.473,0.646,0.713
		c0.021-0.422,0.264-0.799,0.629-1.055c0.367-0.258,0.848-0.41,1.353-0.379c0.192,0.01,0.91,0.184,1.61,0.23
		c0.246,0.016,0.484,0.01,0.705-0.012c-0.015-0.012,0.056,0.064-0.045-0.043c-0.104-0.107-0.168-0.527,0.062-0.725
		c0.231-0.201,0.594-0.184,0.767-0.002c0.175,0.182,0.158,0.418,0.027,0.617c0,0-0.001,0-0.001,0.002h-0.001
		c-0.399,0.607-1.099,0.711-1.316,0.744c-0.492,0.078-1.025,0.08-1.381,0.229c-0.475,0.197-0.81,0.51-0.99,0.84
		c-0.182,0.332-0.217,0.686-0.096,0.965c0.158,0.164,0.316,0.332,0.479,0.5c0.585-0.523,1.166-1.049,1.748-1.574
		c0.584-0.525,1.168-1.049,1.75-1.576c0.231-0.254,0.232-0.535,0.119-0.787c0.115,0.121,0.234,0.244,0.352,0.365
		c0.023,0.023,0.044,0.047,0.069,0.07c0.14,0.146,0.28,0.291,0.421,0.43c0.158,0.16,0.315,0.314,0.477,0.473
		c-0.646,0.611-1.291,1.223-1.938,1.832s-1.292,1.219-1.94,1.828c0.186,0.186,0.369,0.365,0.561,0.549
		c-0.305,0.064-0.61,0.129-0.914,0.189c-0.099,0.021-0.188,0.045-0.28,0.07c-0.224,0.053-0.446,0.102-0.665,0.158
		c0.261-0.156,0.438-0.396,0.402-0.729c-0.837-0.842-1.654-1.697-2.45-2.559c-0.338-0.061-0.603,0.088-0.788,0.322
		c0.078-0.203,0.148-0.412,0.23-0.613c0.025-0.082,0.055-0.162,0.087-0.24C12.03,47.781,12.131,47.502,12.241,47.227L12.241,47.227z
		"/>
	<path fill-rule="evenodd" clip-rule="evenodd" fill="#FFFFFF" d="M61.01,22.219c4.648,0,8.42,3.77,8.42,8.418
		c0,4.65-3.771,8.421-8.42,8.421s-8.42-3.771-8.42-8.421C52.59,25.989,56.361,22.219,61.01,22.219L61.01,22.219z"/>
	<path fill-rule="evenodd" clip-rule="evenodd" fill="#FFFFFF" d="M9.014,22.219c4.643,0,8.409,3.766,8.409,8.408
		c0,4.644-3.766,8.41-8.409,8.41c-4.644,0-8.409-3.766-8.409-8.41C0.605,25.985,4.371,22.219,9.014,22.219L9.014,22.219z"/>
	<path fill-rule="evenodd" clip-rule="evenodd" fill="#00438D" d="M7.677,29.936l-1.917,2.861c-0.135,0.006-0.269,0.01-0.404,0.01
		c-0.553,0-1.102-0.063-1.637-0.184c-0.358-0.08-0.71-0.188-1.054-0.32c-0.145-0.225-0.398-0.661-0.559-1.14
		c-0.156-0.469-0.238-1.203-0.274-1.643c0.357-1.189,1.003-2.252,1.858-3.107c0.066-0.066,0.136-0.133,0.206-0.197
		c0.252-0.012,0.844-0.031,1.256-0.006c0.419,0.027,1.126,0.154,1.414,0.211L7.677,29.936L7.677,29.936z M5.728,32.971
		c0.137,0.234,0.597,1.016,0.965,1.438c0.349,0.402,0.977,1,1.212,1.221l-0.744,2.184c-0.207,0.045-0.704,0.137-1.238,0.111
		c-0.538-0.027-1.104-0.287-1.339-0.408c-0.361-0.225-0.705-0.48-1.026-0.758c-0.605-0.639-1.1-1.383-1.449-2.205
		c0.005-0.223,0.032-0.803,0.166-1.146c0.136-0.354,0.38-0.75,0.469-0.887c0.305,0.109,0.619,0.203,0.937,0.275
		c0.549,0.123,1.112,0.186,1.676,0.186C5.479,32.98,5.604,32.979,5.728,32.971L5.728,32.971z M8.064,35.703
		c0.219-0.037,0.962-0.172,1.774-0.424c0.772-0.24,1.375-0.564,1.589-0.688c0.053,0.031,0.104,0.061,0.157,0.092l0,0
		c0.489,0.275,1.01,0.498,1.552,0.662c0.248,0.072,0.502,0.135,0.758,0.184l0.114,0.021c-0.038,0.189-0.152,0.709-0.286,1.033
		c-0.092,0.219-0.252,0.479-0.381,0.668c-0.271,0.266-0.57,0.496-0.892,0.699c-0.982,0.473-2.07,0.754-3.219,0.799
		c-0.316-0.057-0.835-0.158-1.166-0.291c-0.368-0.148-0.628-0.439-0.741-0.584L8.064,35.703L8.064,35.703z M11.512,34.441
		c-0.001-0.318-0.005-1.313-0.033-2.006c-0.025-0.62-0.06-1.136-0.076-1.367c0.252-0.162,0.494-0.338,0.726-0.527
		c0.435-0.355,0.83-0.762,1.178-1.207c0.158-0.205,0.309-0.418,0.447-0.639c0.033-0.053,0.063-0.104,0.095-0.158
		c0.212,0.074,0.942,0.334,1.479,0.617c0.347,0.182,0.574,0.305,0.709,0.379c0.2,0.672,0.308,1.383,0.308,2.12
		c0,0.575-0.065,1.133-0.189,1.67c-0.175,0.293-0.534,0.85-0.894,1.186c-0.379,0.352-0.89,0.725-1.119,0.887
		c-0.071-0.012-0.144-0.023-0.215-0.039c-0.25-0.047-0.498-0.107-0.741-0.18c-0.529-0.158-1.038-0.377-1.516-0.645l0,0
		C11.616,34.502,11.564,34.471,11.512,34.441L11.512,34.441z M11.316,30.917c-0.325-0.109-1.614-0.541-2.08-0.658
		c-0.423-0.105-1.119-0.295-1.391-0.369l-1.107-3.508c0.555-0.76,1.246-1.527,2.179-2.139h0.014c1.386,0,2.684,0.379,3.792,1.041
		c0.139,0.273,0.588,1.178,0.729,1.629c0.127,0.402,0.252,1.109,0.307,1.434c-0.05,0.088-0.101,0.174-0.153,0.258
		c-0.135,0.213-0.281,0.422-0.439,0.623c-0.338,0.436-0.726,0.832-1.149,1.18C11.793,30.59,11.56,30.76,11.316,30.917L11.316,30.917
		z M0.806,29.51l-0.013-0.051c-0.011,0.08-0.02,0.16-0.029,0.238C0.777,29.637,0.791,29.573,0.806,29.51L0.806,29.51z M0.747,28.635
		c0.014-0.109,0.035-0.225,0.068-0.346l0.021,0.004c1.008-3.535,4.253-6.123,8.101-6.123c4.652,0,8.423,3.783,8.423,8.451
		c0,3.029-1.592,5.689-3.982,7.179c-1.249,0.906-2.785,1.439-4.446,1.439c-1.687,0-3.247-0.551-4.507-1.484
		c-2.352-1.5-3.913-4.135-3.913-7.134C0.512,29.936,0.593,29.272,0.747,28.635L0.747,28.635z M0.906,28.805
		c-0.012,0.188,0.001,0.352,0.029,0.496l0.013,0.061l0.815-0.197c0.379-1.094,1.002-2.074,1.805-2.875
		c0.065-0.066,0.132-0.131,0.201-0.193c-0.009-0.227-0.012-0.729,0.111-1.225C3.943,24.624,4,24.463,4.048,24.36
		c-0.099,0.01-0.207,0.029-0.316,0.057C3.566,24.459,3.386,24.52,3.257,24.6C2.093,25.713,1.257,27.168,0.906,28.805L0.906,28.805z
		 M7.468,22.782c0.094-0.094,0.224-0.207,0.4-0.311c0.059-0.037,0.123-0.07,0.192-0.098c-1.679,0.172-3.207,0.855-4.43,1.891
		l0.058-0.016c0.167-0.045,0.336-0.068,0.478-0.07c0.01-0.01,0.016-0.01,0.016-0.01s0.636-0.637,1.541-0.971
		C6.406,22.944,7.147,22.825,7.468,22.782L7.468,22.782z M8.816,22.331c-0.373,0.045-0.652,0.164-0.86,0.287
		c-0.1,0.061-0.182,0.123-0.252,0.182c0.57,0.293,0.979,0.703,1.272,1.27c1.399,0.008,2.709,0.395,3.831,1.063
		c0.13-0.074,0.356-0.191,0.646-0.293c0.292-0.105,0.597-0.133,0.784-0.137c-0.088-0.125-0.18-0.248-0.275-0.367
		c-0.206-0.258-0.43-0.504-0.667-0.73c-1.269-0.809-2.771-1.277-4.384-1.277L8.816,22.331L8.816,22.331z M14.007,24.114
		c0.031,0.037,0.063,0.074,0.092,0.111c0.152,0.191,0.297,0.391,0.432,0.596c0.094,0.1,0.271,0.275,0.596,0.586
		c0.508,0.48,1.078,1.578,1.289,2.002c0.035,0.029,0.069,0.061,0.105,0.096C15.989,26.165,15.115,24.999,14.007,24.114
		L14.007,24.114z M16.695,27.985c-0.063-0.098-0.132-0.184-0.198-0.256c-0.001,0.184-0.009,0.508-0.031,0.756
		c-0.027,0.297-0.185,0.854-0.245,1.061c0.194,0.668,0.298,1.375,0.298,2.108c0,0.542-0.057,1.071-0.164,1.581
		c0.05,0.066,0.11,0.168,0.145,0.305c0.006,0.021,0.01,0.043,0.014,0.061c0.379-0.945,0.588-1.977,0.588-3.056
		C17.101,29.651,16.958,28.79,16.695,27.985L16.695,27.985z M2.429,35.563c-0.218-0.361-0.405-0.74-0.561-1.139
		c-0.099-0.088-0.216-0.193-0.323-0.289C1.791,34.643,2.088,35.121,2.429,35.563L2.429,35.563z"/>
	<path fill-rule="evenodd" clip-rule="evenodd" fill="#00438D" d="M59.818,29.936L57.9,32.797c-0.133,0.006-0.268,0.01-0.402,0.01
		c-0.553,0-1.104-0.063-1.639-0.184c-0.357-0.08-0.709-0.188-1.053-0.32c-0.145-0.225-0.398-0.661-0.559-1.14
		c-0.156-0.469-0.238-1.203-0.275-1.643c0.357-1.189,1.004-2.252,1.859-3.107c0.066-0.066,0.135-0.133,0.205-0.197
		c0.254-0.012,0.844-0.031,1.256-0.006c0.42,0.027,1.127,0.154,1.414,0.211L59.818,29.936L59.818,29.936z M57.867,32.971
		c0.137,0.234,0.6,1.016,0.967,1.438c0.348,0.402,0.977,1,1.211,1.221l-0.744,2.184c-0.207,0.045-0.703,0.137-1.238,0.111
		c-0.537-0.027-1.104-0.287-1.338-0.408c-0.361-0.225-0.705-0.48-1.027-0.758c-0.605-0.639-1.098-1.383-1.447-2.205
		c0.004-0.223,0.031-0.803,0.164-1.146c0.137-0.354,0.381-0.75,0.471-0.887c0.307,0.109,0.619,0.203,0.936,0.275
		c0.549,0.123,1.113,0.186,1.678,0.186C57.621,32.98,57.744,32.979,57.867,32.971L57.867,32.971z M60.205,35.703
		c0.219-0.037,0.961-0.172,1.775-0.424c0.771-0.24,1.373-0.564,1.588-0.688c0.051,0.031,0.104,0.061,0.156,0.092l0,0
		c0.49,0.275,1.01,0.498,1.553,0.662c0.246,0.072,0.502,0.135,0.758,0.184l0.113,0.021c-0.039,0.189-0.152,0.709-0.287,1.033
		c-0.09,0.219-0.252,0.479-0.379,0.668c-0.271,0.266-0.572,0.496-0.895,0.699c-0.98,0.473-2.068,0.754-3.217,0.799
		c-0.316-0.057-0.836-0.158-1.166-0.291c-0.367-0.148-0.629-0.439-0.742-0.584L60.205,35.703L60.205,35.703z M63.652,34.441
		c0-0.318-0.006-1.313-0.033-2.006c-0.025-0.62-0.061-1.136-0.078-1.367c0.254-0.162,0.496-0.338,0.727-0.527
		c0.436-0.355,0.83-0.762,1.178-1.207c0.16-0.205,0.309-0.418,0.449-0.639c0.031-0.053,0.063-0.104,0.094-0.158
		c0.213,0.074,0.941,0.334,1.48,0.617c0.346,0.182,0.572,0.305,0.709,0.379c0.199,0.672,0.307,1.383,0.307,2.12
		c0,0.575-0.066,1.133-0.189,1.67c-0.174,0.293-0.533,0.85-0.893,1.186c-0.379,0.352-0.891,0.725-1.119,0.887
		c-0.072-0.012-0.145-0.023-0.217-0.039c-0.248-0.047-0.496-0.107-0.74-0.18c-0.529-0.158-1.037-0.377-1.518-0.645l0,0
		C63.758,34.502,63.705,34.471,63.652,34.441L63.652,34.441z M63.457,30.917c-0.326-0.109-1.613-0.541-2.08-0.658
		c-0.424-0.105-1.117-0.295-1.391-0.369l-1.107-3.508c0.555-0.76,1.246-1.527,2.18-2.139h0.014c1.387,0,2.684,0.379,3.793,1.041
		c0.137,0.273,0.588,1.178,0.729,1.629c0.125,0.402,0.252,1.109,0.307,1.434c-0.051,0.088-0.1,0.174-0.154,0.258
		c-0.135,0.213-0.279,0.422-0.438,0.623c-0.338,0.436-0.727,0.832-1.15,1.18C63.934,30.59,63.699,30.76,63.457,30.917L63.457,30.917
		z M52.947,29.51l-0.014-0.051c-0.012,0.08-0.021,0.16-0.029,0.238C52.918,29.637,52.932,29.573,52.947,29.51L52.947,29.51z
		 M52.887,28.635c0.014-0.109,0.035-0.225,0.068-0.346l0.021,0.004c1.008-3.535,4.252-6.123,8.1-6.123
		c4.654,0,8.426,3.783,8.426,8.451c0,3.029-1.594,5.689-3.984,7.179c-1.248,0.906-2.785,1.439-4.445,1.439
		c-1.688,0-3.246-0.551-4.508-1.484c-2.352-1.5-3.912-4.135-3.912-7.134C52.652,29.936,52.734,29.272,52.887,28.635L52.887,28.635z
		 M53.045,28.805c-0.01,0.188,0.004,0.352,0.031,0.496l0.012,0.061l0.816-0.197c0.379-1.094,1.002-2.074,1.805-2.875
		c0.066-0.066,0.133-0.131,0.201-0.193c-0.01-0.227-0.012-0.729,0.111-1.225c0.063-0.248,0.119-0.408,0.168-0.512
		c-0.1,0.01-0.207,0.029-0.316,0.057c-0.168,0.043-0.346,0.104-0.475,0.184C54.234,25.713,53.396,27.168,53.045,28.805
		L53.045,28.805z M59.607,22.782c0.094-0.094,0.225-0.207,0.4-0.311c0.059-0.037,0.123-0.07,0.191-0.098
		c-1.678,0.172-3.205,0.855-4.428,1.891l0.057-0.016c0.168-0.045,0.338-0.068,0.477-0.07c0.014-0.01,0.018-0.01,0.018-0.01
		s0.637-0.637,1.541-0.971C58.547,22.944,59.287,22.825,59.607,22.782L59.607,22.782z M60.957,22.331
		c-0.373,0.045-0.652,0.164-0.859,0.287c-0.1,0.061-0.182,0.123-0.252,0.182c0.568,0.293,0.979,0.703,1.271,1.27
		c1.398,0.008,2.707,0.395,3.83,1.063c0.131-0.074,0.355-0.191,0.646-0.293c0.291-0.105,0.596-0.133,0.785-0.137
		c-0.088-0.125-0.18-0.248-0.277-0.367c-0.205-0.258-0.428-0.504-0.666-0.73c-1.268-0.809-2.771-1.277-4.383-1.277L60.957,22.331
		L60.957,22.331z M66.146,24.114c0.033,0.037,0.063,0.074,0.092,0.111c0.154,0.191,0.297,0.391,0.432,0.596
		c0.094,0.1,0.271,0.275,0.598,0.586c0.506,0.48,1.078,1.578,1.287,2.002c0.035,0.029,0.07,0.061,0.107,0.096
		C68.129,26.165,67.254,24.999,66.146,24.114L66.146,24.114z M68.836,27.985c-0.064-0.098-0.131-0.184-0.197-0.256
		c-0.004,0.184-0.01,0.508-0.033,0.756c-0.027,0.297-0.184,0.854-0.244,1.061c0.193,0.668,0.297,1.375,0.297,2.108
		c0,0.542-0.057,1.071-0.164,1.581c0.051,0.066,0.111,0.168,0.146,0.305c0.004,0.021,0.008,0.043,0.014,0.061
		c0.377-0.945,0.586-1.977,0.586-3.056C69.24,29.651,69.098,28.79,68.836,27.985L68.836,27.985z M54.568,35.563
		c-0.217-0.361-0.404-0.74-0.561-1.139c-0.098-0.088-0.215-0.193-0.322-0.289C53.932,34.643,54.229,35.121,54.568,35.563
		L54.568,35.563z"/>
</g>
</svg>
