<?xml version="1.0" encoding="UTF-8" standalone="no"?>
<svg enable-background="new 0 0 224.194 300" height="300" viewBox="0 0 224.194 300" width="224.194" xmlns="http://www.w3.org/2000/svg" xmlns:xlink="http://www.w3.org/1999/xlink">
   <defs>
      <clipPath id="a">
         <use overflow="visible" xlink:href="#b"/>
      </clipPath>
      <path id="b" d="m0 0h224.194v300h-224.194z"/>
   </defs>
   <path clip-rule="evenodd" d="m162.731 0l-7.249 12.414-13.642-2.952 9.461 10.816-6.884 12.168 13.029-5.776 9.46 10.445-1.35-14.255 12.657-5.777-13.883-3.07z" fill="#005dab" fill-rule="evenodd"/>
   <path clip-rule="evenodd" d="m162.114 2.829l-6.145 10.569-11.676-2.458 8.113 9.217-5.898 10.323 11.183-4.914 7.989 8.847-1.11-12.166 10.819-4.915-11.924-2.582z" fill="#fff000" fill-rule="evenodd"/>
   <path clip-rule="evenodd" d="m64.285 0l7.374 12.414 13.641-2.952-9.461 10.816 7.006 12.168-13.152-5.776-9.465 10.445 1.353-14.255-12.778-5.777 14.008-3.07z" fill="#005dab" fill-rule="evenodd"/>
   <path clip-rule="evenodd" d="m65.022 2.829l6.146 10.569 11.674-2.458-8.11 9.217 5.901 10.323-11.186-4.914-7.987 8.847 1.228-12.166-10.937-4.915 11.92-2.582z" fill="#fff000" fill-rule="evenodd"/>
   <path clip-path="url(#a)" clip-rule="evenodd" d="m112.092 26.179c-9.339 10.203-23.101 16.591-36.989 16.467-14.134 0-26.548-6.511-36.626-16.467l-38.343 51.371c12.409 9.219 22.982 22.613 23.103 40.435.124 19.907-23.84 41.05-23.227 75.829.737 39.576 22.613 66.244 61.574 73.248 24.577 4.547 35.517 13.273 50.508 32.938 14.993-19.664 25.935-28.391 50.516-32.938 38.956-7.004 60.836-33.672 61.57-73.248.616-34.779-23.348-55.922-23.227-75.829.123-17.821 10.693-31.216 23.103-40.435l-38.344-51.371c-10.197 9.956-22.613 16.467-36.625 16.467-13.767.125-27.774-6.264-36.993-16.467" fill="#2e4597" fill-rule="evenodd"/>
   <path clip-path="url(#a)" clip-rule="evenodd" d="m112.092 26.179c-9.339 10.203-23.101 16.591-36.989 16.467-14.134 0-26.548-6.511-36.626-16.467l-38.343 51.371c12.409 9.219 22.982 22.613 23.103 40.435.124 19.907-23.84 41.05-23.227 75.829.737 39.576 22.613 66.244 61.574 73.248 24.577 4.547 35.517 13.273 50.508 32.938 14.993-19.664 25.935-28.391 50.516-32.938 38.956-7.004 60.836-33.672 61.57-73.248.616-34.779-23.348-55.922-23.227-75.829.123-17.821 10.693-31.216 23.103-40.435l-38.344-51.371c-10.197 9.956-22.613 16.467-36.625 16.467-13.767.125-27.774-6.264-36.993-16.467" fill="#005dab" fill-rule="evenodd"/>
   <path clip-rule="evenodd" d="m112.092 27.531c-4.669 4.794-10.443 8.851-16.589 11.674-6.389 2.828-13.519 4.427-20.4 4.427-6.883-.124-13.396-1.599-19.418-4.301-6.271-2.828-11.923-6.885-17.084-11.799l-37.24 49.896c6.513 4.916 12.535 11.062 16.715 18.312 3.686 6.511 6.022 13.889 6.022 22.245.122 8.849-4.301 17.577-9.338 27.774-6.517 13.151-14.259 28.393-13.889 48.055.489 19.665 6.022 36.008 16.343 48.422 10.321 12.168 25.318 20.525 44.491 23.965 12.411 2.339 21.382 5.654 29.249 10.939 7.497 5.039 13.767 11.92 21.137 21.382 7.256-9.462 13.643-16.343 21.139-21.382 7.869-5.285 16.716-8.601 29.129-10.939 19.296-3.439 34.292-11.797 44.489-23.965 10.445-12.414 15.979-28.757 16.344-48.422.372-19.662-7.125-34.903-13.76-48.055-5.04-10.197-9.464-18.926-9.464-27.774.121-8.356 2.453-15.733 6.143-22.245 4.183-7.25 10.197-13.396 16.716-18.313l-37.117-49.896c-5.285 4.915-10.938 8.971-17.208 11.799-6.019 2.703-12.533 4.177-19.417 4.301-6.883 0-13.884-1.599-20.401-4.427-6.267-2.822-12.044-6.879-16.592-11.673" fill="#fff" fill-rule="evenodd"/>
   <path clip-rule="evenodd" d="m112.092 33.552c-4.421 3.81-9.463 7.131-14.867 9.589-7.007 3.069-14.626 4.79-22.122 4.79-7.497-.124-14.626-1.721-21.139-4.67-5.288-2.459-10.203-5.527-14.75-9.337l-31.955 42.642c5.655 4.918 10.817 10.449 14.503 17.084 4.057 7.007 6.635 15.117 6.635 24.334.127 3.194-.367 6.27-1.228 9.462h169.847c-.861-3.192-1.354-6.268-1.354-9.462.128-9.217 2.705-17.327 6.639-24.334 3.811-6.635 8.851-12.167 14.504-17.084l-31.832-42.643c-4.548 3.81-9.46 6.878-14.625 9.337-6.635 2.949-13.763 4.546-21.263 4.67-7.496 0-15.117-1.721-22.12-4.79-5.53-2.457-10.57-5.778-14.873-9.588" fill="#005dab" fill-rule="evenodd"/>
   <path clip-rule="evenodd" d="m134.829 270.994c7.373-4.177 15.854-7.002 26.793-8.971 6.391-1.227 12.168-2.824 17.576-5.036v-126.71h-44.369z" fill="#005dab" fill-rule="evenodd"/>
   <path clip-rule="evenodd" d="m44.992 256.983c5.285 2.212 11.183 3.809 17.451 5.04 11.064 1.966 19.541 4.791 26.915 8.968v-140.718h-44.366z" fill="#005dab" fill-rule="evenodd"/>
   <path clip-rule="evenodd" d="m179.198 256.983c9.956-4.177 18.066-10.075 24.336-17.452 9.708-11.678 14.993-27.16 15.358-45.839.372-18.56-7.004-33.307-13.395-45.968-3.073-6.146-5.897-11.92-7.741-17.451h-18.559v126.71" fill="#ee2e24" fill-rule="evenodd"/>
   <path clip-rule="evenodd" d="m89.358 270.994c1.351.865 2.701 1.723 4.057 2.464 6.635 4.667 12.411 10.445 18.677 18.063 6.146-7.617 12.044-13.396 18.807-18.063 1.227-.741 2.58-1.599 3.931-2.464v-140.717h-45.472z" fill="#ee2e24" fill-rule="evenodd"/>
   <path clip-rule="evenodd" d="m26.313 130.273c-1.845 5.531-4.672 11.305-7.745 17.451-6.268 12.661-13.64 27.408-13.394 45.968.491 18.679 5.652 34.161 15.363 45.839 6.265 7.374 14.499 13.275 24.455 17.452v-126.71z" fill="#ee2e24" fill-rule="evenodd"/>
   <path clip-rule="evenodd" d="m31.228 100.658h10.568c1.723 0 3.073.489 4.058 1.35.86.861 1.351 1.969 1.351 3.197 0 1.107-.367 1.964-.983 2.825-.491.495-1.104.861-1.965 1.108 1.35.367 2.211.98 2.825 1.721.615.737.985 1.719.985 2.827 0 .983-.248 1.721-.615 2.458-.493.858-1.108 1.475-1.845 1.841-.489.248-1.226.491-2.087.615-1.353.122-2.089.246-2.579.246h-9.712v-18.188" fill="#fff" fill-rule="evenodd"/>
   <path clip-rule="evenodd" d="m37.001 114.914h2.83c.98 0 1.594-.124 1.964-.494.367-.367.615-.858.615-1.352 0-.489-.248-.98-.615-1.351-.37-.247-.983-.491-1.964-.491h-2.83z" fill="#1464b0" fill-rule="evenodd"/>
   <path clip-rule="evenodd" d="m37.001 107.906h2.336c.861 0 1.599-.246 1.845-.489.367-.371.491-.737.491-1.356 0-.491-.124-.98-.491-1.228-.246-.247-.983-.489-1.721-.489h-2.46z" fill="#1464b0" fill-rule="evenodd"/>
   <path clip-rule="evenodd" d="m62.073 100.658h5.655v10.815c0 1.104-.246 2.088-.493 3.073-.367.98-.981 1.721-1.598 2.579-.737.617-1.475 1.107-2.212 1.351-1.228.494-2.46.741-3.931.741-.865 0-1.969-.124-2.953-.247-.98-.124-1.841-.37-2.579-.737-.741-.37-1.351-.861-1.965-1.475-.617-.737-.983-1.474-1.231-2.089-.247-1.229-.493-2.215-.493-3.195v-10.815h5.655v11.059c0 1.107.247 1.845.86 2.335.491.617 1.228.861 2.213.861.98 0 1.721-.245 2.211-.861.613-.491.86-1.228.86-2.335v-11.06" fill="#fff" fill-rule="evenodd"/>
   <path clip-rule="evenodd" d="m83.458 111.47l4.917 1.475c-.37 1.354-.861 2.458-1.598 3.443-.737.859-1.597 1.597-2.701 2.088-.985.491-2.335.737-3.934.737-1.969 0-3.563-.367-4.794-.984-1.228-.491-2.336-1.475-3.316-2.949-.861-1.475-1.355-3.316-1.355-5.529 0-2.953.861-5.289 2.459-6.885 1.599-1.595 3.811-2.456 6.759-2.456 2.212 0 4.057.491 5.407 1.352 1.228.983 2.212 2.334 2.827 4.299l-4.915 1.108c-.124-.613-.37-.984-.494-1.227-.367-.372-.737-.737-1.227-.985-.37-.247-.861-.371-1.476-.371-1.227 0-2.334.495-2.949 1.599-.489.737-.737 1.969-.737 3.44 0 2.091.367 3.442.861 4.181.737.859 1.475 1.107 2.579 1.107 1.108 0 1.845-.248 2.46-.861.614-.613.984-1.474 1.227-2.582" fill="#fff" fill-rule="evenodd"/>
   <path clip-rule="evenodd" d="m102.756 100.658h5.531v10.815c0 1.104-.124 2.088-.491 3.073-.37.98-.859 1.721-1.478 2.579-.859.617-1.597 1.107-2.331 1.351-1.107.494-2.459.741-3.938.741-.858 0-1.717-.124-2.821-.247-.985-.124-1.845-.37-2.583-.737-.615-.37-1.231-.861-1.846-1.475-.613-.737-.98-1.474-1.227-2.089-.371-1.229-.491-2.215-.491-3.195v-10.815h5.528v11.059c0 1.107.248 1.845.861 2.335.617.617 1.351.861 2.088.861.985 0 1.722-.245 2.335-.861.613-.491.861-1.228.861-2.335v-11.06" fill="#fff" fill-rule="evenodd"/>
   <path clip-rule="evenodd" d="m112.092 118.846v-18.188h9.219c1.847 0 3.197.243 4.056.489.985.371 1.599.861 2.215 1.599.613.861.857 1.841.857 3.073 0 .98-.244 1.721-.733 2.579-.372.737-.985 1.231-1.723 1.721-.492.37-1.109.494-1.967.737.74.248 1.229.372 1.475.615.244.123.492.495.981.984.372.491.613.861.737 1.107l2.704 5.285h-6.391l-2.948-5.531c-.369-.737-.737-1.108-.982-1.475-.492-.248-.861-.371-1.354-.371h-.489v7.376z" fill="#fff" fill-rule="evenodd"/>
   <path clip-rule="evenodd" d="m117.749 108.03h2.336c.248 0 .737 0 1.474-.246.369 0 .613-.245.861-.615.245-.247.365-.613.365-.984 0-.491-.12-.98-.489-1.352-.368-.247-1.105-.489-2.087-.489h-2.46z" fill="#1464b0" fill-rule="evenodd"/>
   <path clip-rule="evenodd" d="m131.636 100.658h14.993v3.932h-9.336v2.827h8.723v3.687h-8.723v3.686h9.584v4.056h-15.241z" fill="#fff" fill-rule="evenodd"/>
   <path clip-rule="evenodd" d="m148.965 112.824l5.284-.246c.124.737.372 1.474.737 1.969.493.737 1.351.98 2.46.98.737 0 1.351-.121 1.847-.491.365-.367.609-.737.609-1.351 0-.491-.244-.861-.609-1.231-.376-.367-1.357-.737-2.956-1.104-2.456-.491-4.175-1.228-5.16-2.087-.982-.985-1.599-2.093-1.599-3.567 0-.856.248-1.717.861-2.579.492-.861 1.229-1.475 2.459-1.969.982-.489 2.457-.737 4.424-.737 2.336 0 4.059.37 5.285 1.352 1.227.741 1.843 2.215 2.087 4.057l-5.16.37c-.241-.861-.493-1.475-.982-1.845-.368-.367-.984-.491-1.846-.491-.613 0-1.106.124-1.472.367-.248.248-.492.618-.492.985 0 .365.12.613.492.859.245.124.858.367 1.84.615 2.46.489 4.179 1.107 5.164 1.597 1.106.491 1.844 1.228 2.336 1.965.489.861.737 1.723.737 2.706 0 1.104-.369 2.212-.981 3.195-.613.982-1.475 1.719-2.584 2.212-1.227.615-2.705.861-4.424.861-3.073 0-5.285-.737-6.391-1.845-1.229-1.227-1.842-2.702-1.966-4.547" fill="#fff" fill-rule="evenodd"/>
   <path clip-rule="evenodd" d="m166.906 100.658h16.964v4.548h-5.777v13.64h-5.53v-13.64h-5.657z" fill="#fff" fill-rule="evenodd"/>
   <path d="m186.571 100.658h5.653v18.188h-5.653z" fill="#fff"/>
   <path clip-rule="evenodd" d="m25.819 75.338l9.708-.859c.246 1.963.737 3.441 1.352 4.546.983 1.598 2.458 2.459 4.423 2.459 1.478 0 2.582-.37 3.319-1.231.861-.861 1.228-1.841 1.228-2.949 0-1.104-.367-2.087-1.104-2.949-.739-.861-2.46-1.595-5.285-2.336-4.425-1.228-7.621-2.949-9.465-5.037-1.965-2.089-2.949-4.671-2.949-7.987 0-2.093.489-4.057 1.478-5.903.98-1.963 2.455-3.438 4.42-4.423 1.969-1.107 4.672-1.721 8.113-1.721 4.301 0 7.497.983 9.708 2.952 2.213 1.966 3.563 5.039 3.934 9.338l-9.588.737c-.367-1.845-.861-3.195-1.598-4.053-.861-.861-1.966-1.231-3.44-1.231-1.108 0-2.088.248-2.706.861-.613.613-.858 1.351-.858 2.336 0 .613.245 1.226.739 1.841.489.494 1.593.983 3.438 1.478 4.425 1.228 7.62 2.332 9.586 3.562 1.969 1.352 3.319 2.827 4.18 4.668.86 1.724 1.351 3.814 1.351 6.025 0 2.703-.613 5.161-1.717 7.373-1.231 2.212-2.949 3.934-5.042 5.039-2.087 1.107-4.666 1.721-7.863 1.721-5.655 0-9.587-1.351-11.677-4.053-2.211-2.707-3.439-6.023-3.685-10.204" fill="#fff" fill-rule="evenodd"/>
   <path clip-rule="evenodd" d="m57.407 61.326h23.35v7.007h-7.866v20.77h-7.621v-20.77h-7.863z" fill="#fff" fill-rule="evenodd"/>
   <path clip-rule="evenodd" d="m85.181 61.326h20.4v6.022h-12.781v4.425h11.921v5.655h-11.921v5.407h13.151v6.268h-20.77z" fill="#fff" fill-rule="evenodd"/>
   <path clip-rule="evenodd" d="m126.472 84.558h-8.847l-1.227 4.545h-7.744l9.343-27.772h8.355l9.338 27.772h-8.109z" fill="#fff" fill-rule="evenodd"/>
   <path clip-rule="evenodd" d="m124.756 78.536l-2.708-9.957-2.824 9.957z" fill="#1464b0" fill-rule="evenodd"/>
   <path clip-rule="evenodd" d="m154.005 61.326h7.737v16.591c0 1.723-.241 3.197-.733 4.672-.493 1.474-1.23 2.703-2.092 3.81-1.105 1.107-2.087 1.845-3.193 2.334-1.475.615-3.193.861-5.284.861-1.23 0-2.581-.123-3.932-.247-1.474-.245-2.583-.615-3.689-1.104-.857-.618-1.843-1.355-2.58-2.336-.737-1.107-1.351-2.211-1.599-3.319-.489-1.723-.737-3.319-.737-4.672v-16.59h7.621v16.962c0 1.598.492 2.703 1.105 3.564.737.861 1.843 1.226 3.073 1.226 1.354 0 2.456-.365 3.196-1.102.734-.985 1.106-2.09 1.106-3.688v-16.962" fill="#fff" fill-rule="evenodd"/>
   <path clip-rule="evenodd" d="m185.586 82.344h-12.041l-1.723 6.759h-10.689l12.777-41.048h11.555l12.902 41.048h-11.182z" fill="#fff" fill-rule="evenodd"/>
   <path clip-rule="evenodd" d="m183.374 74.355l-3.811-13.395-3.069 13.395z" fill="#1464b0" fill-rule="evenodd"/>
   <path clip-rule="evenodd" d="m111.479 146.007l12.292 36.5h39.818l-32.197 22.614 12.288 36.503-32.201-22.618-32.201 22.618 12.414-36.503-32.32-22.614h39.82z" fill="#fff000" fill-rule="evenodd"/>
</svg>
