<?xml version="1.0" encoding="UTF-8" standalone="no"?>
<!-- Created with Inkscape (http://www.inkscape.org/) -->
<svg
   xmlns:svg="http://www.w3.org/2000/svg"
   xmlns="http://www.w3.org/2000/svg"
   version="1.0"
   width="230"
   height="300"
   id="svg3431">
  <defs
     id="defs3" />
  <g
     id="layer1">
    <g
       transform="matrix(2.6399678,0,0,2.6399678,-118.82568,-161.71807)"
       id="g3459">
      <path
         d="M 130.42141,108.46206 L 130.42141,73.788786 C 117.94311,67.191656 104.10111,64.003896 88.418014,63.151556 C 73.450914,64.140276 60.427114,66.356366 46.721414,73.788786 L 46.721414,108.63252 C 46.738514,136.98142 57.614414,165.48373 88.332814,173.00138 C 118.57381,165.73943 130.42141,135.87337 130.42141,108.46206"
         style="font-size:12px;letter-spacing:0;word-spacing:0;fill:#221f1f;fill-rule:nonzero;stroke:none;font-family:fnt0"
         id="path244" />
      <path
         d="M 89.270314,170.4955 L 89.270314,104.7288 C 101.30541,104.7288 111.80631,105.13792 124.13111,108.93937 L 128.17121,106.28006 C 128.17121,110.06446 127.88141,114.73529 127.47231,118.86063 C 125.15391,140.81695 113.05071,165.31326 89.270314,170.4955"
         style="font-size:12px;letter-spacing:0;word-spacing:0;fill:#ffffff;fill-rule:nonzero;stroke:none;font-family:fnt0"
         id="path246" />
      <path
         d="M 48.818214,85.840896 L 48.818214,75.340046 C 61.160114,69.305466 74.422514,65.947236 88.418014,65.947236 C 102.14071,65.947236 115.72701,69.731636 128.17121,75.340046 L 128.17121,85.840896 C 118.36931,87.647866 98.782514,88.091076 88.571414,88.091076 C 78.616114,88.091076 58.620114,87.528536 48.818214,85.840896"
         style="font-size:12px;letter-spacing:0;word-spacing:0;fill:#ffffff;fill-rule:nonzero;stroke:none;font-family:fnt0"
         id="path248" />
      <path
         d="M 73.331514,77.777746 L 73.331514,75.101386 C 73.962314,74.589986 74.405514,73.925156 74.729414,72.919396 C 74.882814,72.459126 75.087414,71.299946 74.541914,70.993106 C 74.320314,70.890826 73.842914,70.941966 73.331514,71.078336 L 73.331514,68.896336 L 74.848714,68.606546 C 76.400014,68.606546 76.809114,69.731636 76.962514,71.402226 C 76.962514,73.498986 76.246614,74.641126 74.848714,76.175336 C 76.246614,78.681226 78.070614,82.601996 77.661414,85.551106 C 77.661414,86.386396 75.667014,86.250026 75.411314,85.551106 C 74.865814,81.954216 74.422514,80.266586 73.331514,77.777746 z M 119.05121,84.511246 C 118.48861,83.403196 118.47161,81.391676 119.73301,81.323486 C 121.01151,81.255296 120.73881,82.721326 120.78991,83.369106 C 122.11961,83.897556 123.75611,83.556626 123.75611,82.261066 C 123.75611,81.476906 123.46631,81.425766 121.84681,79.908596 C 120.24441,78.357336 118.62501,77.436806 119.61371,75.544606 C 120.63651,73.481936 122.11961,73.993346 124.74481,75.084346 C 125.97221,75.595746 125.42671,77.215196 124.48911,77.215196 C 123.89251,77.215196 122.20481,75.749166 121.65931,76.277626 C 120.58541,77.283386 123.46631,78.595996 125.23921,80.505236 C 125.73351,81.067786 125.76761,81.664426 125.73351,82.465626 C 125.69941,83.658906 125.40961,84.068026 124.69371,84.545336 C 124.02881,84.971506 122.20481,85.465866 120.55131,85.312446 C 119.97171,85.193116 119.61371,85.210166 119.05121,84.511246 z M 110.45961,84.886276 C 109.89701,83.761186 109.86291,81.749656 111.15851,81.698516 C 112.40291,81.613286 112.13011,83.096356 112.19831,83.744136 C 113.51091,84.272586 115.04521,83.829376 115.04521,82.499716 C 115.04521,79.482426 114.51671,79.755176 113.05071,78.135726 C 111.61871,76.499226 109.82881,74.317236 110.83461,72.390946 C 111.87441,70.311226 113.32341,70.822636 115.93161,71.930676 C 117.22711,72.476176 116.66461,74.095626 115.72701,74.078576 C 115.07921,74.044486 113.49391,72.544366 112.86321,73.141006 C 111.77221,74.232006 114.97701,77.181106 116.44301,78.971026 C 117.02261,79.635846 117.10781,81.221206 117.10781,82.192876 C 117.10781,83.437296 116.95441,84.545336 115.93161,85.073786 C 114.95991,85.551106 113.59621,85.840896 111.95971,85.687476 C 111.39711,85.551106 111.02211,85.585196 110.45961,84.886276 z M 106.21491,85.397676 L 106.21491,70.430556 C 106.21491,69.169086 108.58441,69.424796 108.58441,70.754446 L 108.58441,85.363586 C 108.58441,86.215926 106.35131,86.676196 106.21491,85.397676 z M 99.345014,86.250026 C 98.509714,86.386396 97.947214,85.977276 97.538114,84.852186 L 97.538114,69.305466 C 97.947214,68.606546 98.373314,68.487216 98.782514,68.487216 L 103.55561,69.134996 C 105.36251,69.680496 104.93641,70.993106 103.96471,71.402226 L 99.890514,70.839676 L 99.907614,75.340046 L 102.70321,75.340046 C 103.55561,75.340046 103.40221,77.828886 102.70321,77.828886 L 99.907614,77.828886 L 99.907614,84.153256 L 104.10111,84.153256 C 105.36251,84.153256 104.80001,86.250026 104.01581,86.250026 L 99.345014,86.250026 z M 90.651114,86.386396 C 89.270314,86.386396 88.571414,86.676196 88.707814,85.551106 C 88.997614,80.232486 90.804614,75.050246 93.344514,70.157806 L 90.548814,69.953246 C 89.099914,69.833916 89.168114,67.413266 90.548814,67.566686 L 95.015114,68.043996 C 96.140214,68.043996 96.685714,68.606546 96.259514,69.458886 C 93.753714,74.641126 91.656914,79.533566 91.094314,84.289636 L 95.287914,84.289636 C 96.719814,84.289636 96.805014,86.386396 95.356114,86.386396 L 90.651114,86.386396 z M 79.468414,84.715806 L 79.604814,68.606546 C 79.604814,67.771246 81.156014,67.771246 81.565214,68.606546 L 81.565214,84.153256 L 85.912114,84.153256 C 87.020214,84.289636 87.020214,85.977276 85.758714,86.250026 L 80.303714,86.386396 C 79.604814,86.386396 79.468414,85.551106 79.468414,84.715806 z M 63.359114,73.379656 C 63.376214,73.379656 63.376214,73.379656 63.376214,73.345566 C 64.211514,74.896826 64.620614,76.038966 64.774014,77.692506 C 64.399014,77.777746 63.904614,77.811836 63.359114,77.828886 L 63.359114,79.823366 L 65.200214,79.823366 L 65.626414,85.551106 C 66.171914,86.386396 67.995914,85.840896 67.706114,84.289636 C 67.706114,80.931406 67.092414,76.226486 66.325314,74.078576 C 65.524114,71.828396 65.200214,71.402226 64.774014,70.993106 L 63.359114,71.368136 L 63.359114,73.379656 z M 73.331514,68.896336 L 73.331514,71.078336 C 72.905414,71.163566 72.462214,71.282896 72.206414,71.299946 C 71.814414,71.351086 71.780314,71.385176 71.780314,71.828396 L 71.780314,76.038966 C 72.394014,75.749166 72.922414,75.476416 73.331514,75.101386 L 73.331514,77.777746 C 73.331514,77.760696 73.314514,77.743646 73.297414,77.692506 L 71.916714,78.135726 L 71.916714,84.852186 C 71.916714,86.386396 69.956314,86.386396 69.802814,85.551106 L 69.802814,71.282896 C 69.802814,70.430556 70.109714,69.885056 70.501814,69.458886 L 73.331514,68.896336 z M 61.961314,77.828886 C 62.251114,76.038966 62.523814,74.641126 63.359114,73.379656 L 63.359114,71.368136 L 61.705614,71.828396 C 59.387214,75.408236 59.029214,80.539336 59.029214,84.715806 C 59.029214,85.551106 61.160114,85.840896 61.160114,84.289636 L 61.705614,79.823366 L 63.359114,79.823366 L 63.359114,77.828886 C 62.898914,77.845926 62.421614,77.828886 61.961314,77.828886 z M 53.028814,84.937416 C 52.329814,84.937416 51.630914,84.374866 51.358214,83.829376 C 51.085414,81.306436 51.102514,79.397196 51.767314,76.806076 C 52.005914,75.783266 55.023214,73.720596 56.693814,73.942206 C 57.546214,74.044486 57.512114,75.340046 57.512114,76.823116 C 57.512114,77.436806 57.000714,77.539086 56.676814,77.590226 C 55.585814,77.811836 55.381214,77.470896 55.125514,76.362856 C 53.079914,77.112916 53.335614,79.959736 53.472014,82.158776 C 53.540214,83.317966 54.597114,83.215686 55.568714,83.215686 C 55.756314,82.550856 55.602814,81.528046 56.676814,81.528046 C 57.443914,81.579186 58.057614,81.630326 57.818914,83.130446 C 57.733714,83.675946 58.006414,84.272586 56.387014,84.937416 C 55.023214,85.073786 54.324314,85.073786 53.028814,84.937416"
         style="font-size:12px;letter-spacing:0;word-spacing:0;fill:#221f1f;fill-rule:nonzero;stroke:none;font-family:fnt0"
         id="path250" />
      <path
         d="M 88.571414,102.22291 C 77.951214,102.22291 64.620614,103.74008 52.875314,106.41644 L 48.818214,103.8935 L 48.818214,88.636576 C 62.097714,90.034416 76.110214,90.443546 89.270314,90.443546 C 102.41341,90.443546 114.72131,89.727576 128.17121,88.636576 L 128.17121,103.62075 L 123.68791,106.28006 C 109.43671,102.47862 99.208614,102.22291 88.571414,102.22291"
         style="font-size:12px;letter-spacing:0;word-spacing:0;fill:#ffffff;fill-rule:nonzero;stroke:none;font-family:fnt0"
         id="path252" />
      <path
         d="M 111.39711,101.64332 L 109.59021,98.438516 L 106.64111,98.438516 L 106.64111,96.461076 L 108.68671,96.461076 L 107.18661,93.477886 C 107.06721,93.239226 106.86271,93.068756 106.64111,93.000566 L 106.64111,90.801526 C 107.37411,90.818576 108.09001,91.023136 108.36281,91.449306 L 114.44851,102.17177 C 114.44851,102.18882 114.46561,102.22291 114.46561,102.23996 L 114.46561,102.46157 C 114.20991,102.99002 111.68691,102.71727 111.39711,101.64332 z M 106.64111,98.438516 L 103.94771,98.438516 L 102.70321,101.21715 C 102.17481,101.91607 100.06101,101.50695 100.50421,100.53528 L 104.25451,91.432256 C 104.49321,91.023136 105.60121,90.750386 106.64111,90.801526 L 106.64111,93.000566 C 106.28311,92.915336 105.90801,93.051706 105.72051,93.580166 L 104.57841,96.461076 L 106.64111,96.461076 L 106.64111,98.438516 z M 62.881814,100.07501 L 62.881814,99.819306 C 63.018214,99.154476 64.006914,98.404416 64.620614,98.847636 L 66.291214,100.07501 C 66.768514,100.3989 66.990114,100.55232 67.620914,100.45004 L 69.802814,100.07501 C 70.109714,100.07501 70.109714,99.836356 70.109714,98.847636 L 70.109714,93.426736 L 67.706114,93.273316 C 67.024214,93.222176 66.990114,90.835626 67.706114,90.869716 L 72.206414,91.142466 C 72.751914,91.432256 72.751914,92.131186 72.751914,92.574396 L 72.751914,100.12615 C 72.751914,101.2001 72.479214,101.71151 71.575714,101.84788 L 67.262914,102.47862 C 66.188914,102.63204 65.779814,102.59794 65.319514,102.22291 L 63.103414,100.3989 C 62.967114,100.31367 62.898914,100.19434 62.881814,100.07501 z M 78.769514,101.08078 C 77.559214,101.08078 76.962514,100.53528 76.962514,100.12615 L 76.962514,91.841386 C 76.962514,91.432256 77.661414,91.023136 78.070614,91.023136 L 83.951714,91.023136 C 85.076814,91.023136 85.059814,93.171036 83.951714,93.171036 L 79.468414,93.171036 L 79.468414,94.620016 L 83.116414,94.620016 C 83.968814,94.620016 83.661914,96.716776 83.116414,96.716776 L 79.468414,96.716776 L 79.468414,98.949916 L 85.059814,98.949916 C 85.912114,98.949916 85.741614,101.08078 85.059814,101.08078 L 78.769514,101.08078 z M 90.804614,95.335986 L 90.804614,100.12615 C 90.804614,101.21715 88.366914,101.21715 88.366914,100.12615 L 88.366914,91.568636 C 88.366914,91.023136 89.952214,91.040186 90.395414,91.432256 L 96.140214,97.023626 L 96.140214,91.841386 C 96.140214,90.869716 98.475614,90.801526 98.475614,91.909576 L 98.475614,100.19434 C 98.475614,101.54104 96.395914,101.09782 95.714014,100.3989 L 90.804614,95.335986"
         style="font-size:12px;letter-spacing:0;word-spacing:0;fill:#221f1f;fill-rule:nonzero;stroke:none;font-family:fnt0"
         id="path254" />
      <path
         d="M 86.900814,139.33388 L 67.024214,159.21049 C 73.314514,164.71662 78.752414,168.56921 86.917914,170.34208 L 86.900814,139.33388"
         style="font-size:12px;letter-spacing:0;word-spacing:0;fill:#ffffff;fill-rule:nonzero;stroke:none;font-family:fnt0"
         id="path256" />
      <path
         d="M 86.917914,105.29134 L 53.898114,138.41335 C 56.591514,145.43665 60.358914,152.01673 65.285414,157.42057 L 86.917914,135.737 L 86.917914,105.29134"
         style="font-size:12px;letter-spacing:0;word-spacing:0;fill:#fff200;fill-rule:nonzero;stroke:none;font-family:fnt0"
         id="path258" />
      <path
         d="M 83.866514,104.49014 C 73.280414,104.60947 63.666014,106.10959 52.585514,108.93937 L 48.886414,106.34825 C 48.886414,110.1156 48.988714,114.53073 49.363714,118.60492 C 49.892114,124.1281 51.102514,129.95812 52.943514,135.49834 L 83.866514,104.49014"
         style="font-size:12px;letter-spacing:0;word-spacing:0;fill:#005bab;fill-rule:nonzero;stroke:none;font-family:fnt0"
         id="path260" />
      <path
         d="M 92.645614,165.89285 L 92.645614,109.33144 C 92.645614,107.23468 93.378614,106.82556 94.912814,107.08126 C 98.185814,107.08126 101.08381,107.21764 104.62951,107.66085 L 104.01581,110.38835 C 100.38491,110.14969 97.384614,110.03037 95.015114,110.06446 L 95.015114,139.14636 L 103.96471,139.14636 L 104.11811,141.65225 L 95.015114,141.65225 L 95.015114,165.04051 L 92.645614,165.89285"
         style="font-size:12px;letter-spacing:0;word-spacing:0;fill:#221f1f;fill-rule:nonzero;stroke:none;font-family:fnt0"
         id="path262" />
      <path
         d="M 106.43651,153.46571 C 105.51601,138.63496 105.10681,124.9634 106.35131,110.32016 C 106.50471,108.58138 107.35701,107.83132 108.29461,107.9336 C 113.73251,108.63252 119.32391,109.84285 125.06871,111.58163 C 125.06871,117.58211 124.28451,123.53146 122.98901,129.37853 L 120.46601,128.40686 C 121.72751,125.01454 122.29011,118.02533 122.42641,113.67839 C 117.31241,112.19531 112.82911,111.2066 109.01061,110.76338 C 107.73211,123.90649 108.55031,138.02127 109.12991,151.45418 C 112.74381,147.66978 114.99401,144.05585 117.80671,137.45873 L 120.15921,138.85657 C 117.36351,145.7094 115.18151,148.86306 110.13571,154.53966 C 108.14121,156.75575 106.64111,156.21025 106.43651,153.46571"
         style="font-size:12px;letter-spacing:0;word-spacing:0;fill:#221f1f;fill-rule:nonzero;stroke:none;font-family:fnt0"
         id="path264" />
    </g>
  </g>
</svg>
