<?xml version="1.0" encoding="utf-8"?>
<!-- Generator: Adobe Illustrator 13.0.0, SVG Export Plug-In . SVG Version: 6.00 Build 14948)  -->
<!DOCTYPE svg PUBLIC "-//W3C//DTD SVG 1.1//EN" "http://www.w3.org/Graphics/SVG/1.1/DTD/svg11.dtd">
<svg version="1.1" id="Layer_3" xmlns="http://www.w3.org/2000/svg" xmlns:xlink="http://www.w3.org/1999/xlink" x="0px" y="0px"
	 width="300px" height="300px" viewBox="0 0 300 300" enable-background="new 0 0 300 300" xml:space="preserve">
<path fill="#FFFFFF" d="M192.53,69.002c8.021,5.134,17.005,11.551,17.005,11.551l31.443-64.17h-96.897H47.184l31.443,64.17
	c0,0,8.984-6.417,17.005-11.551s27.914-8.984,27.914-8.984v168.448l-11.551-3.851l-21.818,44.277c0,0,9.946,6.097,21.497,9.626
	s32.406,4.813,32.406,4.813s20.855-1.283,32.406-4.813s21.497-9.626,21.497-9.626l-21.817-44.277l-11.551,3.851V60.018
	C164.616,60.018,184.509,63.868,192.53,69.002z"/>
<path fill="#C2C1C1" d="M98.366,235.992c-29.075-16.128-48.759-47.131-48.759-82.735c0-0.602,0.012-1.2,0.023-1.799l-14.624-5.175
	c-0.974,0.92-3.725,1.832-7.39,2.828c-3.149,0.856-6.019,1.162-7.541,1.27c-0.022,0.957-0.037,1.915-0.037,2.875
	c0,2.287,0.066,4.559,0.188,6.815c1.432,0.051,3.766,0.174,6.646,0.477c4.866,0.512,8.579,2.817,8.834,3.97
	s-2.688,2.816-7.042,4.865c-2.966,1.396-5.75,2.196-7.226,2.565c0.485,3.214,1.094,6.388,1.821,9.517
	c1.416-0.199,3.749-0.486,6.66-0.689c4.88-0.341,8.938,1.285,9.39,2.376c0.452,1.09-2.159,3.24-6.09,6.014
	c-2.692,1.899-5.311,3.176-6.694,3.792c1.04,3.082,2.201,6.107,3.471,9.075c1.36-0.441,3.605-1.128,6.432-1.833
	c4.747-1.183,9.025-0.286,9.659,0.71c0.635,0.995-1.563,3.565-4.953,6.979c-2.312,2.328-4.657,4.033-5.917,4.885
	c1.56,2.849,3.231,5.626,5.002,8.333c1.266-0.672,3.347-1.731,5.99-2.908c4.47-1.989,8.838-1.849,9.636-0.978
	c0.798,0.869-0.92,3.782-3.666,7.733c-1.86,2.676-3.858,4.752-4.956,5.815c2.027,2.532,4.151,4.982,6.368,7.347
	c1.131-0.882,2.99-2.281,5.377-3.891c4.056-2.735,8.382-3.355,9.319-2.636c0.937,0.717-0.25,3.884-2.268,8.252
	c-1.364,2.951-2.966,5.339-3.864,6.579c2.427,2.138,4.934,4.186,7.523,6.131c0.958-1.063,2.555-2.775,4.642-4.791
	c3.52-3.398,7.672-4.76,8.72-4.214c1.047,0.543,0.429,3.868-0.8,8.521c-0.838,3.172-2.016,5.823-2.682,7.19
	c2.012,1.229,4.069,2.39,6.155,3.505c0.022-0.009,0.035-0.014,0.035-0.014l12.75-26L98.366,235.992z M35.702,115.762
	c1.877-0.129,4.684-0.262,8.298-0.262c5.462,0,11.06,0.304,13.263,0.438c4.454-10.355,10.7-19.757,18.354-27.81l-6.899-14.329
	c-1.415-0.155-3.899-1.307-7.013-2.948c-2.908-1.533-5.229-3.282-6.408-4.236c-2.255,2.312-4.422,4.71-6.493,7.192
	c1.011,1.011,2.644,2.701,4.557,4.902c3.21,3.693,4.353,7.911,3.754,8.929c-0.599,1.017-3.887,0.226-8.468-1.245
	c-3.129-1.004-5.717-2.323-7.045-3.058c-1.819,2.663-3.542,5.397-5.153,8.204c1.17,0.819,3.075,2.202,5.346,4.041
	c3.802,3.08,5.661,7.035,5.247,8.142c-0.413,1.105-3.789,0.897-8.556,0.245c-3.264-0.447-6.048-1.299-7.48-1.792
	c-1.327,2.933-2.537,5.93-3.636,8.979c1.295,0.604,3.41,1.634,5.964,3.05C34.199,114.684,34.988,115.214,35.702,115.762z"/>
<path fill="#C2C1C1" d="M243.921,195.573c0,0-3.921-0.823-6.671-1.323S230,193,230,193s-0.067-0.047-0.188-0.13
	c-8.532,18.448-22.832,33.68-40.593,43.377l6.136,13.922c2.011,0.952,4.698,3.306,6.164,4.837c1.505,1.572,3.25,4.583,4.113,6.152
	c2.884-1.65,5.692-3.417,8.426-5.286c-0.854-1.469-2.494-4.325-3.355-6.065c-1.197-2.419-2.733-8.755-1.373-9.947
	c1.361-1.191,6.547,1.825,8.985,3.612c1.748,1.282,3.979,3.929,5.106,5.329c2.56-2.13,5.028-4.363,7.408-6.688
	c-1.104-1.308-3.188-3.808-4.33-5.359c-1.599-2.174-4.212-8.146-3.079-9.558c1.134-1.409,6.764,0.661,9.476,1.997
	c1.932,0.953,4.566,3.149,5.928,4.339c2.143-2.529,4.188-5.143,6.127-7.839c-1.311-1.094-3.807-3.2-5.204-4.534
	c-1.952-1.863-5.563-7.291-4.692-8.877c0.872-1.585,6.775-0.523,9.679,0.321c2.075,0.605,5.065,2.32,6.607,3.253
	c1.67-2.857,3.235-5.784,4.678-8.781c-1.475-0.847-4.318-2.498-5.934-3.574C247.838,202.005,243.34,197.286,243.921,195.573z
	 M267.71,141.693c-1.708,0.035-4.97,0.082-6.897-0.008c-2.695-0.125-8.981-1.853-9.365-3.62c-0.382-1.769,4.771-4.841,7.516-6.107
	c1.963-0.905,5.346-1.572,7.121-1.879c-0.619-3.279-1.366-6.513-2.237-9.696c-1.67,0.33-4.894,0.947-6.817,1.194
	c-2.676,0.345-9.166-0.265-9.852-1.939c-0.683-1.676,3.857-5.596,6.341-7.32c1.78-1.235,5.006-2.481,6.697-3.091
	c-1.181-3.113-2.479-6.168-3.897-9.156c-1.587,0.614-4.654,1.783-6.506,2.36c-2.575,0.805-9.073,1.331-10.039-0.199
	c-0.963-1.532,2.827-6.181,4.974-8.31c1.535-1.521,4.483-3.304,6.047-4.2c-1.702-2.855-3.509-5.64-5.428-8.341
	c-1.459,0.883-4.268,2.56-5.986,3.448c-2.396,1.24-8.704,2.886-9.921,1.547c-1.214-1.342,1.711-6.578,3.455-9.047
	c1.245-1.761,3.831-4.022,5.217-5.179c-2.428-2.815-4.987-5.514-7.655-8.101L230.25,64.5c0,0-1,3.75-4.25,5s-5.75,1.5-5.75,1.5
	l-7.5,17.42c14.454,15.323,23.844,35.475,25.488,57.782l16.88,8.234c1.832-0.951,4.208-1.772,5.796-2.191
	c2.081-0.549,5.508-0.619,7.315-0.614C268.187,148.284,268.013,144.97,267.71,141.693z"/>
<path d="M78.235,83.762c0,0,9.212-6.96,19.345-12.999s24.17-7.984,24.17-7.984V226L110,222.25l-23.25,49.5c0,0,6.75,3.5,24.5,9
	s32.799,4.5,32.799,4.5V281H144c0,0-14.5,0.25-31-4s-20.25-7.5-20.25-7.5l19.5-42l12.75,4.25V57.5c0,0-10,0.25-24,6.75
	S79.25,77,79.25,77L50.5,18.5h93.25h0.299v-4.033H44.15L78.235,83.762z M190.759,70.763c10.133,6.039,19.345,12.999,19.345,12.999
	l34.085-69.294H144.29V18.5h0.299h93.25L209.089,77c0,0-7.75-6.25-21.75-12.75s-24-6.75-24-6.75v174.25l12.75-4.25l19.5,42
	c0,0-3.75,3.25-20.25,7.5s-31,4-31,4h-0.049v4.25c0,0,15.049,1,32.799-4.5s24.5-9,24.5-9l-23.25-49.5l-11.75,3.75V62.779
	C166.589,62.779,180.626,64.724,190.759,70.763z"/>
<path d="M183,56.25C198.75,61.5,205.25,68,205.25,68l22.25-43.5H144H60.5L82.75,68c0,0,6.5-6.5,22.25-11.75s26.071-6,26.071-6
	v190.546l-15.018-5.585l-15.47,31.166c0,0,9.81,4.15,21.281,6.565c10.183,2.144,19.883,2.443,21.934,2.484v0.006
	c0,0,0.074-0.001,0.202-0.003c0.128,0.002,0.202,0.003,0.202,0.003v-0.006c2.051-0.041,11.751-0.341,21.934-2.484
	c11.471-2.415,21.28-6.565,21.28-6.565l-15.47-31.166l-15.018,5.585V50.25C156.929,50.25,167.25,51,183,56.25z"/>
<path fill="#C2C1C1" d="M58.544,112.023l4.095-9.876h30.835V79.021c0,0,1.325-1.566,4.457-3.252s5.661-2.65,5.661-2.65v31.678
	l12.768,12.768v6.022c0,0-4.939-0.843-6.866-0.963s-1.927-0.121-1.927-0.121l-10.479-10.479H58.544z"/>
<path fill="#C2C1C1" d="M171.5,132.5v-14l14.688-14.688V74.125c0,0,3.432,1.705,5.037,2.719s4.203,2.662,4.203,2.662v22.078h27.906
	l5.916,10.333h-36.5L171.5,132.5z"/>
<polygon fill="#C2C1C1" points="98.5,236.75 101.5,230.667 101.5,202.167 116.25,187.417 116.25,173.667 95.375,194.542 
	58.833,194.542 64.5,204.834 91.833,204.834 91.833,231.834 "/>
<path fill="#C2C1C1" d="M189.219,236.247l-3.719-7.83v-26.584L171.167,187.5v-3.167c0,0,4.082,0.5,7.666,1s5.917,1.417,5.917,1.417
	l4.833,4.75c0,0-0.083,2.916,2.667,6.666s6.583,6.167,6.583,6.167h-3.416v28.083L189.219,236.247z"/>
<path fill="#72706F" d="M116,127.257v38.222h-2.305c0,0-1.195-20.869-19.028-20.869c-14.514,0-18.349,10.736-18.349,10.736
	s-10.637-1.987-27.735-7.952c-17.098-5.964-34.892-15.408-36.979-16.899s-3.28-4.473-3.28-5.467s3.777-3.778,5.467-4.275
	s9.642-1.392,21.571-1.392s33.003,1.789,48.61,3.38S116,127.257,116,127.257z"/>
<g>
	<circle fill="#72706F" cx="93.913" cy="163.995" r="15.508"/>
	<circle fill="none" stroke="#FFFFFF" stroke-width="2" cx="93.913" cy="163.995" r="9.244"/>
</g>
<g>
	<circle fill="#72706F" cx="207.746" cy="187.828" r="15.508"/>
	<circle fill="none" stroke="#FFFFFF" stroke-width="2" cx="207.746" cy="187.828" r="9.244"/>
</g>
<path fill="#FFFFFF" d="M116,140.246l-1.014-0.528c0,0-0.792,0-0.317-0.845s1.585-2.167,0.846-2.643s-3.065,1.48-3.488,1.956
	s-2.801,1.268-2.325,0.317s2.853-3.224,2.008-3.752s-3.488,3.118-4.228,3.065s-2.061,0.211-1.321-0.528s2.378-3.593,1.638-3.699
	s-4.281,3.857-4.281,3.857s-3.329-0.582-15.008-3.488s-19.553-2.959-19.553-2.589s0.317,0.951,0.529,0.951s5.549,0.899,23.305,4.968
	S116,142.73,116,142.73v2.167c0,0-19.562-4.122-31.822-7.028s-24.943-4.914-25.366-4.333s0.634,1.109,0.951,1.109
	s19.605,5.179,30.333,7.187s25.904,6.13,25.904,6.13V140.246z"/>
<path fill="#FFFFFF" d="M61.897,149.468c0,0-1.299-3.155-1.206-4.175s0.278-4.545,0.278-4.545h-3.34c0,0,0,2.876,0,4.082
	s1.021,3.896,1.855,4.36s1.67,1.021,2.041,0.649S61.897,149.468,61.897,149.468z"/>
<path fill="#FFFFFF" d="M66.475,150.328c0,0-1.299-3.155-1.206-4.175s0.278-4.545,0.278-4.545h-3.34c0,0,0,2.876,0,4.082
	s1.021,3.896,1.855,4.36c0.835,0.464,1.67,1.021,2.041,0.65C66.475,150.328,66.475,150.328,66.475,150.328z"/>
<path fill="#FFFFFF" d="M71.413,151.563c0,0-1.299-3.155-1.206-4.175s0.278-4.545,0.278-4.545h-3.34c0,0,0,2.876,0,4.082
	s1.021,3.896,1.855,4.359c0.835,0.465,1.67,1.021,2.041,0.65S71.413,151.563,71.413,151.563z"/>
<path fill="#72706F" d="M233.474,146.594c0,0,0.51,2.447,1.938,2.957s12.645,6.118,26.309,11.012s24.676,10.912,27.226,12.747
	s3.977,4.182,3.977,7.546s-3.468,11.013-5.608,12.746s-3.67,1.733-9.687,1.733s-20.19-1.428-31.917-3.365s-18.15-3.263-18.15-3.263
	s0.612-20.089-19.068-20.089c-17.641,0-19.578,14.786-19.578,14.786s-1.937,0.001-8.157-1.02s-9.333-2.142-9.333-2.142v-42.42
	c0,0,3.521,0,5.968,0s7.036,0.714,7.036,0.714s-0.102,1.021,0.204,1.734s2.242,3.976,5.812,4.996s16.621,3.467,17.845,3.263
	s2.346-1.734,2.346-2.651s0-1.529,0-1.529s-3.366,0.306-3.569-0.612s0.307-3.467,1.122-4.181s0.815-0.714,0.815-0.714
	s-1.224-2.346,0-2.753s3.161-1.835,3.569-2.447s2.958-3.365,4.589-3.365s4.894,2.141,6.22,3.977s2.753,3.161,2.753,4.997
	s-0.816,4.079-2.447,5.506s-3.263,1.938-3.263,2.549s-1.122,4.283,0,4.283s4.895,1.02,5.813,1.02s2.956-1.122,4.282-2.855
	S233.474,146.594,233.474,146.594z"/>
<path fill="#FFFFFF" d="M171.423,144.237c0,0,7.476,1.359,8.155,1.456s0.388-2.233,1.165-2.233s3.302,0.097,3.302,0.097
	s0.485,3.495,3.884,4.175s30.099,6.214,32.429,6.505s3.203,0.389,4.951,0.389s4.467-1.36,5.438-2.137s2.621-1.457,2.621-0.874
	s0.292,2.039-0.776,2.913s-5.049,3.301-7.379,3.301s-14.759-2.815-30.002-5.825c-15.243-3.009-23.787-4.854-23.787-4.854V144.237z"
	/>
<path fill="#FFFFFF" d="M171.423,151.228c0,0,25.34,5.243,40.875,8.738s28.739,5.729,28.739,6.603s-0.484,1.554-1.262,1.65
	s-17.477-3.011-37.187-7.477s-31.166-6.407-31.166-6.407V151.228z"/>
<path fill="#FFFFFF" d="M171.423,156.373c0,0,25.535,5.243,48.352,10.292s43.013,9.904,43.4,10.001s0.68,0.582,0.68,0.971
	s-0.39,0.776-0.777,0.776s-28.837-5.631-50.585-10.389s-41.069-8.059-41.069-8.059V156.373z"/>
</svg>
